
<svg width="20px" height="19px" viewBox="0 0 20 19" version="1.1" xmlns="http://www.w3.org/2000/svg" xmlns:xlink="http://www.w3.org/1999/xlink">
    <!-- Generator: Sketch 43.1 (39012) - http://www.bohemiancoding.com/sketch -->
    <desc>Created with Sketch.</desc>
    <defs></defs>
    <g id="Page-1" stroke="none" stroke-width="1" fill="none" fill-rule="evenodd">
        <g id="chat" fill-rule="nonzero" fill="#15386E">
            <path d="M3.33333333,7.82166667 L7.66666667,7.82166667 C7.851,7.82166667 8,7.67233333 8,7.48833333 C8,7.30433333 7.851,7.155 7.66666667,7.155 L3.33333333,7.155 C3.149,7.155 3,7.30433333 3,7.48833333 C3,7.67233333 3.149,7.82166667 3.33333333,7.82166667 Z" id="Shape"></path>
            <path d="M12,9.155 L3.33333333,9.155 C3.149,9.155 3,9.30433333 3,9.48833333 C3,9.67233333 3.149,9.82166667 3.33333333,9.82166667 L12,9.82166667 C12.1843333,9.82166667 12.3333333,9.67233333 12.3333333,9.48833333 C12.3333333,9.30433333 12.1843333,9.155 12,9.155 Z" id="Shape"></path>
            <path d="M12,11.155 L3.33333333,11.155 C3.149,11.155 3,11.3043333 3,11.4883333 C3,11.6723333 3.149,11.8216667 3.33333333,11.8216667 L12,11.8216667 C12.1843333,11.8216667 12.3333333,11.6723333 12.3333333,11.4883333 C12.3333333,11.3043333 12.1843333,11.155 12,11.155 Z" id="Shape"></path>
            <path d="M18.024,0.178333333 L6.64333333,0.155 C5.55333333,0.155 4.66666667,1.04166667 4.66666667,2.13166667 L4.66666667,3.83966667 L1.97666667,3.84533333 C0.886666667,3.84533333 0,4.732 0,5.822 L0,12.869 C0,13.959 0.886666667,14.8453333 1.97666667,14.8453333 L4,14.8453333 L4,18.1786667 C4,18.3163333 4.08466667,18.44 4.21333333,18.4896667 C4.25233333,18.5046667 4.293,18.512 4.33333333,18.512 C4.42533333,18.512 4.51566667,18.4736667 4.58,18.403 L7.81466667,14.8446667 L13.3566667,14.822 C14.4466667,14.822 15.3333333,13.9353333 15.3333333,12.8456667 L15.3333333,12.808 L17.0866667,14.7366667 C17.151,14.8073333 17.2413333,14.8456667 17.3333333,14.8456667 C17.3736667,14.8456667 17.4143333,14.8383333 17.4533333,14.8233333 C17.582,14.7736667 17.6666667,14.65 17.6666667,14.5123333 L17.6666667,11.179 L18.0233333,11.179 C19.1133333,11.179 20,10.2923333 20,9.20266667 L20,2.155 C20,1.06533333 19.1136667,0.178666667 18.024,0.178333333 Z M14.6666667,12.8453333 C14.6666667,13.5676667 14.079,14.155 13.3553333,14.155 L7.66533333,14.1783333 C7.572,14.1786667 7.48266667,14.2183333 7.42,14.2873333 L4.66666667,17.3163333 L4.66666667,14.5116667 C4.66666667,14.3276667 4.51766667,14.1783333 4.33333333,14.1783333 L1.97666667,14.1783333 C1.25433333,14.1783333 0.666666667,13.5906667 0.666666667,12.8686667 L0.666666667,5.82166667 C0.666666667,5.09933333 1.25433333,4.51166667 1.97733333,4.51166667 L5,4.50533333 L5,4.50533333 L5.00066667,4.50533333 L13.3566667,4.488 C14.079,4.488 14.6666667,5.07566667 14.6666667,5.798 L14.6666667,11.945 L14.6666667,12.8453333 Z M19.3333333,9.202 C19.3333333,9.92433333 18.7456667,10.5116667 18.0233333,10.5116667 L17.3333333,10.5116667 C17.149,10.5116667 17,10.661 17,10.845 L17,13.6496667 L15.3333333,11.8163333 L15.3333333,5.79833333 C15.3333333,4.70833333 14.4466667,3.82166667 13.356,3.82166667 L5.33333333,3.838 L5.33333333,2.13133333 C5.33333333,1.409 5.921,0.821333333 6.64266667,0.821333333 L18.023,0.844666667 L18.0236667,0.844666667 C18.746,0.844666667 19.3336667,1.43233333 19.3336667,2.15466667 L19.3336667,9.202 L19.3333333,9.202 Z" id="Shape"></path>
        </g>
    </g>
</svg>