
<svg width="18px" height="18px" viewBox="0 0 18 18" version="1.1" xmlns="http://www.w3.org/2000/svg" xmlns:xlink="http://www.w3.org/1999/xlink">
    <!-- Generator: Sketch 43.1 (39012) - http://www.bohemiancoding.com/sketch -->
    <desc>Created with Sketch.</desc>
    <defs></defs>
    <g id="Page-1" stroke="none" stroke-width="1" fill="none" fill-rule="evenodd">
        <g id="Group" fill="#43619C">
            <path d="M8.99202535,17.9842785 C4.03372059,17.9842785 0,13.9504557 0,8.99225316 C0,4.03382278 4.03372059,0 8.99202535,0 C13.9503301,0 17.9840507,4.03382278 17.9840507,8.99225316 C17.9840507,13.9504557 13.9503301,17.9842785 8.99202535,17.9842785 L8.99202535,17.9842785 Z M8.99202535,0.683544304 C4.4105718,0.683544304 0.683526987,4.41068354 0.683526987,8.99225316 C0.683526987,13.5735949 4.4105718,17.3007342 8.99202535,17.3007342 C13.5732511,17.3007342 17.3005237,13.5735949 17.3005237,8.99225316 C17.3005237,4.41068354 13.5732511,0.683544304 8.99202535,0.683544304 L8.99202535,0.683544304 Z" id="Facebook-Circle"></path>
            <path d="M13.1078734,12.5523797 C13.1078734,12.8073418 12.9012152,13.014 12.6462532,13.014 L10.5147342,13.014 L10.5147342,9.77491139 L11.6020253,9.77491139 L11.7649367,8.51240506 L10.5147342,8.51240506 L10.5147342,7.70650633 C10.5147342,7.34103797 10.6163544,7.092 11.1404051,7.092 L11.8089114,7.0915443 L11.8089114,5.96255696 C11.6933924,5.94706329 11.296481,5.91288608 10.8348608,5.91288608 C9.87106329,5.91288608 9.21121519,6.50118987 9.21121519,7.58141772 L9.21121519,8.51240506 L8.12118987,8.51240506 L8.12118987,9.77491139 L9.21121519,9.77491139 L9.21121519,13.014 L5.20496203,13.014 C4.95,13.014 4.74334177,12.8073418 4.74334177,12.5523797 L4.74334177,5.11108861 C4.74334177,4.85612658 4.95,4.64946835 5.20496203,4.64946835 L12.6462532,4.64946835 C12.9012152,4.64946835 13.1078734,4.85612658 13.1078734,5.11108861 L13.1078734,12.5523797" id="Facebook"></path>
        </g>
    </g>
</svg>