
<svg width="25px" height="25px" viewBox="0 0 25 25" version="1.1" xmlns="http://www.w3.org/2000/svg" xmlns:xlink="http://www.w3.org/1999/xlink">
    <!-- Generator: Sketch 43.1 (39012) - http://www.bohemiancoding.com/sketch -->
    <desc>Created with Sketch.</desc>
    <defs></defs>
    <g id="Page-1" stroke="none" stroke-width="1" fill="none" fill-rule="evenodd">
        <g id="facebook-logo-in-circular-button-outlined-social-symbol" fill-rule="nonzero" fill="#FFFFFF">
            <path d="M25,12.5 C25,5.59656863 19.4033905,0 12.5,0 C5.59656863,0 0,5.59656863 0,12.5 C0,19.4033905 5.59656863,25 12.5,25 C19.4033905,25 25,19.4033905 25,12.5 Z M1.13635621,12.5 C1.13635621,6.22385621 6.22385621,1.13635621 12.5,1.13635621 C18.7761438,1.13635621 23.8636438,6.22385621 23.8636438,12.5 C23.8636438,18.7761438 18.7761438,23.8636438 12.5,23.8636438 C6.22385621,23.8636438 1.13635621,18.7761438 1.13635621,12.5 Z" id="Shape"></path>
            <path d="M12.9795343,19.7147467 L12.9795343,12.5 L15.3602124,12.5 L15.7363562,10.1091095 L12.9795343,10.1091095 L12.9795343,8.91025327 C12.9795343,8.28639706 13.1840686,7.69093137 14.0795343,7.69093137 L15.869281,7.69093137 L15.869281,5.30457516 L13.3283905,5.30457516 C11.1920343,5.30457516 10.6090686,6.71135621 10.6090686,8.66139706 L10.6090686,10.1080065 L9.1431781,10.1080065 L9.1431781,12.5 L10.6090686,12.5 L10.6090686,19.7147467 L12.9795343,19.7147467 L12.9795343,19.7147467 Z" id="Shape"></path>
        </g>
    </g>
</svg>