
<svg width="25px" height="25px" viewBox="0 0 25 25" version="1.1" xmlns="http://www.w3.org/2000/svg" xmlns:xlink="http://www.w3.org/1999/xlink">
    <!-- Generator: Sketch 43.1 (39012) - http://www.bohemiancoding.com/sketch -->
    <desc>Created with Sketch.</desc>
    <defs></defs>
    <g id="Page-1" stroke="none" stroke-width="1" fill="none" fill-rule="evenodd">
        <g id="social-linkedin-circular-button" fill-rule="nonzero" fill="#FFFFFF">
            <path d="M12.5,0 C5.59614258,0 0,5.59614258 0,12.5 C0,19.4038574 5.59614258,25 12.5,25 C19.4038574,25 25,19.4038574 25,12.5 C25,5.59614258 19.4038574,0 12.5,0 Z M12.5,23.046875 C6.67495117,23.046875 1.953125,18.3250488 1.953125,12.5 C1.953125,6.67495117 6.67495117,1.953125 12.5,1.953125 C18.3250488,1.953125 23.046875,6.67495117 23.046875,12.5 C23.046875,18.3250488 18.3250488,23.046875 12.5,23.046875 Z" id="Shape"></path>
            <path d="M6.25458984,18.7446777 L8.59833984,18.7446777 L8.59833984,9.36967773 L6.25458984,9.36967773 L6.25458984,18.7446777 Z M15.6295898,9.36967773 C13.6230469,9.40327148 12.6358398,10.8658203 12.5045898,10.9321777 L12.5045898,9.36967773 L10.1608398,9.36967773 L10.1608398,18.7446777 L12.5045898,18.7446777 L12.5045898,13.2759277 C12.5045898,13.0753418 12.9989746,11.4692871 14.8483398,11.7134277 C15.8416992,11.7782715 16.3772461,13.092041 16.4108398,13.2759277 L16.4108398,18.7446777 L18.7454102,18.7553711 L18.7454102,12.2650391 C18.6630371,11.328125 18.1945801,9.40322266 15.6295898,9.36967773 Z M7.42646484,6.24467773 C6.77949219,6.24467773 6.25458984,6.76879883 6.25458984,7.41655273 C6.25458984,8.06430664 6.77949219,8.58842773 7.42646484,8.58842773 C8.0734375,8.58842773 8.59833984,8.06430664 8.59833984,7.41655273 C8.59833984,6.76879883 8.0734375,6.24467773 7.42646484,6.24467773 Z" id="Shape"></path>
        </g>
    </g>
</svg>