
<svg width="25px" height="25px" viewBox="0 0 25 25" version="1.1" xmlns="http://www.w3.org/2000/svg" xmlns:xlink="http://www.w3.org/1999/xlink">
    <!-- Generator: Sketch 43.1 (39012) - http://www.bohemiancoding.com/sketch -->
    <desc>Created with Sketch.</desc>
    <defs></defs>
    <g id="Page-1" stroke="none" stroke-width="1" fill="none" fill-rule="evenodd">
        <g id="instagram-social-network-logo-of-photo-camera" fill-rule="nonzero" fill="#FFFFFF">
            <path d="M3.18903061,0 L21.6566327,0 C23.4104592,0 24.8454082,1.29846939 24.8454082,3.18877551 L24.8454082,21.6568878 C24.8454082,23.5471939 23.4104592,24.8456633 21.6566327,24.8456633 L3.18903061,24.8456633 C1.43469388,24.8456633 0,23.5471939 0,21.6568878 L0,3.18877551 C0,1.29846939 1.43469388,0 3.18903061,0 L3.18903061,0 Z M18.0989796,2.76045918 C17.4836735,2.76045918 16.9808673,3.26352041 16.9808673,3.87908163 L16.9808673,6.55637755 C16.9808673,7.17168367 17.4836735,7.675 18.0989796,7.675 L20.9071429,7.675 C21.522449,7.675 22.0257653,7.17168367 22.0257653,6.55637755 L22.0257653,3.87908163 C22.0257653,3.26352041 21.522449,2.76045918 20.9071429,2.76045918 L18.0989796,2.76045918 L18.0989796,2.76045918 Z M22.0375,10.5071429 L19.8507653,10.5071429 C20.0576531,11.1826531 20.1696429,11.8982143 20.1696429,12.6385204 C20.1696429,16.7711735 16.7114796,20.1211735 12.4464286,20.1211735 C8.18163265,20.1211735 4.72397959,16.7711735 4.72397959,12.6385204 C4.72397959,11.8977041 4.83571429,11.182398 5.04285714,10.5071429 L2.76096939,10.5071429 L2.76096939,21.0022959 C2.76096939,21.5454082 3.20535714,21.990051 3.74872449,21.990051 L21.0502551,21.990051 C21.5936224,21.990051 22.0380102,21.5456633 22.0380102,21.0022959 L22.0380102,10.5071429 L22.0375,10.5071429 Z M12.4461735,7.53392857 C9.69056122,7.53392857 7.45637755,9.69846939 7.45637755,12.3688776 C7.45637755,15.0392857 9.69056122,17.2038265 12.4461735,17.2038265 C15.2020408,17.2038265 17.4364796,15.0392857 17.4364796,12.3688776 C17.4364796,9.69846939 15.2022959,7.53392857 12.4461735,7.53392857 Z" id="Shape"></path>
        </g>
    </g>
</svg>