
<svg width="18px" height="18px" viewBox="0 0 18 18" version="1.1" xmlns="http://www.w3.org/2000/svg" xmlns:xlink="http://www.w3.org/1999/xlink">
    <!-- Generator: Sketch 43.1 (39012) - http://www.bohemiancoding.com/sketch -->
    <desc>Created with Sketch.</desc>
    <defs></defs>
    <g id="Page-1" stroke="none" stroke-width="1" fill="none" fill-rule="evenodd">
        <g id="SOCIAL-ICONS-SKETCH" transform="translate(-910.000000, -207.000000)" fill="#2A5B83">
            <g id="Group-2" transform="translate(910.000000, 207.000000)">
                <path d="M8.89335,17.901 C3.997125,17.901 0.0135,13.9176 0.0135,9.021375 C0.0135,4.124925 3.997125,0.141525 8.89335,0.141525 C13.7898,0.141525 17.7732,4.124925 17.7732,9.021375 C17.7732,13.9176 13.7898,17.901 8.89335,17.901 L8.89335,17.901 Z M8.89335,0.816525 C4.369275,0.816525 0.6885,4.497075 0.6885,9.021375 C0.6885,13.54545 4.369275,17.226 8.89335,17.226 C13.41765,17.226 17.0982,13.54545 17.0982,9.021375 C17.0982,4.497075 13.41765,0.816525 8.89335,0.816525 L8.89335,0.816525 Z" id="Instagram-Circle"></path>
                <path d="M12.2526,4.874625 L5.964525,4.874625 C5.42295,4.874625 4.983975,5.312475 4.983975,5.852925 L4.983975,12.1455 C4.983975,12.685725 5.42295,13.1238 5.964525,13.1238 L12.2526,13.1238 C12.794175,13.1238 13.23315,12.685725 13.23315,12.1455 L13.23315,5.852925 C13.23315,5.312475 12.794175,4.874625 12.2526,4.874625 L12.2526,4.874625 Z M10.913175,6.163425 C10.913175,6.021225 11.0286,5.905575 11.1708,5.905575 L11.944125,5.905575 C12.08655,5.905575 12.201975,6.021225 12.201975,6.163425 L12.201975,6.93675 C12.201975,7.079175 12.08655,7.1946 11.944125,7.1946 L11.1708,7.1946 C11.0286,7.1946 10.913175,7.079175 10.913175,6.93675 L10.913175,6.163425 L10.913175,6.163425 Z M9.118125,7.426125 C9.994275,7.426125 10.7046,8.134875 10.7046,9.00855 C10.7046,9.8829 9.994275,10.591425 9.118125,10.591425 C8.2422,10.591425 7.531875,9.8829 7.531875,9.00855 C7.531875,8.134875 8.2422,7.426125 9.118125,7.426125 L9.118125,7.426125 Z M12.459825,12.092625 C12.459825,12.234825 12.3444,12.350475 12.201975,12.350475 L6.01515,12.350475 C5.872725,12.350475 5.7573,12.234825 5.7573,12.092625 L5.7573,8.225775 L6.788475,8.225775 C6.65415,8.41905 6.6087,8.779725 6.6087,9.00855 C6.6087,10.38915 7.7346,11.51235 9.118125,11.51235 C10.501875,11.51235 11.627775,10.38915 11.627775,9.00855 C11.627775,8.779725 11.59515,8.42445 11.42865,8.225775 L12.459825,8.225775 L12.459825,12.092625 L12.459825,12.092625 Z" id="Instagram"></path>
            </g>
        </g>
    </g>
</svg>