
<svg width="20px" height="20px" viewBox="0 0 20 20" version="1.1" xmlns="http://www.w3.org/2000/svg" xmlns:xlink="http://www.w3.org/1999/xlink">
    <!-- Generator: Sketch 43.1 (39012) - http://www.bohemiancoding.com/sketch -->
    <desc>Created with Sketch.</desc>
    <defs></defs>
    <g id="Page-1" stroke="none" stroke-width="1" fill="none" fill-rule="evenodd">
        <g id="key" fill-rule="nonzero" fill="#666467">
            <path d="M14.2857143,0 C11.135,0 8.57142857,2.56357143 8.57142857,5.71428571 C8.57142857,6.8875 8.92785714,7.97857143 9.53642857,8.88714286 L0.104642857,18.3189286 C-0.035,18.4585714 -0.035,18.6842857 0.104642857,18.8239286 C0.174285714,18.8935714 0.265714286,18.9285714 0.357142857,18.9285714 C0.448571429,18.9285714 0.54,18.8935714 0.609642857,18.8239286 L2.14285714,17.2907143 L4.7475,19.8953571 C4.81714286,19.965 4.90857143,20 5,20 C5.09142857,20 5.18285714,19.965 5.2525,19.8953571 C5.39214286,19.7557143 5.39214286,19.53 5.2525,19.3903571 L2.64785714,16.7857143 L3.92857143,15.505 L5.81892857,17.3953571 C5.88857143,17.465 5.98,17.5 6.07142857,17.5 C6.16285714,17.5 6.25428571,17.465 6.32392857,17.3953571 C6.46357143,17.2557143 6.46357143,17.03 6.32392857,16.8903571 L4.43357143,15 L5.71428571,13.7192857 L8.31892857,16.3239286 C8.38857143,16.3935714 8.48,16.4285714 8.57142857,16.4285714 C8.66285714,16.4285714 8.75428571,16.3935714 8.82392857,16.3239286 C8.96357143,16.1842857 8.96357143,15.9585714 8.82392857,15.8189286 L6.21928571,13.2142857 L9.97714286,9.45642857 C11.0257143,10.6617857 12.5664286,11.4285714 14.2857143,11.4285714 C17.4364286,11.4285714 20,8.865 20,5.71428571 C20,2.56357143 17.4364286,0 14.2857143,0 Z M14.2857143,10.7142857 C11.5285714,10.7142857 9.28571429,8.47142857 9.28571429,5.71428571 C9.28571429,2.95714286 11.5285714,0.714285714 14.2857143,0.714285714 C17.0428571,0.714285714 19.2857143,2.95714286 19.2857143,5.71428571 C19.2857143,8.47142857 17.0428571,10.7142857 14.2857143,10.7142857 Z" id="Shape"></path>
        </g>
    </g>
</svg>