
<svg width="14px" height="20px" viewBox="0 0 14 20" version="1.1" xmlns="http://www.w3.org/2000/svg" xmlns:xlink="http://www.w3.org/1999/xlink">
    <!-- Generator: Sketch 43.1 (39012) - http://www.bohemiancoding.com/sketch -->
    <desc>Created with Sketch.</desc>
    <defs></defs>
    <g id="Page-1" stroke="none" stroke-width="1" fill="none" fill-rule="evenodd">
        <g id="placeholder" fill-rule="nonzero" fill="#666467">
            <path d="M7.11163636,4.36363636 C5.70836364,4.36363636 4.56618182,5.50581818 4.56618182,6.90909091 C4.56618182,8.31236364 5.70836364,9.45454545 7.11163636,9.45454545 C8.51490909,9.45454545 9.65709091,8.31236364 9.65709091,6.90909091 C9.65709091,5.50581818 8.51490909,4.36363636 7.11163636,4.36363636 Z M7.11163636,8.72727273 C6.10909091,8.72727273 5.29345455,7.91163636 5.29345455,6.90909091 C5.29345455,5.90654545 6.10909091,5.09090909 7.11163636,5.09090909 C8.11418182,5.09090909 8.92981818,5.90654545 8.92981818,6.90909091 C8.92981818,7.91163636 8.11418182,8.72727273 7.11163636,8.72727273 Z" id="Shape"></path>
            <path d="M11.9781818,2.04254545 C10.6610909,0.725454545 8.90981818,0 7.04727273,0 C5.18436364,0 3.43345455,0.725454545 2.11636364,2.04254545 C-0.321090909,4.47963636 -0.624,9.06509091 1.46036364,11.8432727 L7.04727273,19.9116364 L12.6258182,11.8545455 C14.7185455,9.06509091 14.4156364,4.47963636 11.9781818,2.04254545 Z M12.036,11.4294545 L7.04727273,18.6338182 L2.05054545,11.4181818 C0.16,8.89745455 0.430909091,4.75636364 2.63090909,2.55672727 C3.81054545,1.37709091 5.37890909,0.727272727 7.04727273,0.727272727 C8.71563636,0.727272727 10.284,1.37709091 11.464,2.55672727 C13.664,4.75636364 13.9349091,8.89745455 12.036,11.4294545 Z" id="Shape"></path>
        </g>
    </g>
</svg>