
<svg width="27px" height="20px" viewBox="0 0 27 20" version="1.1" xmlns="http://www.w3.org/2000/svg" xmlns:xlink="http://www.w3.org/1999/xlink">
    <!-- Generator: Sketch 43.1 (39012) - http://www.bohemiancoding.com/sketch -->
    <desc>Created with Sketch.</desc>
    <defs></defs>
    <g id="Page-1" stroke="none" stroke-width="1" fill="none" fill-rule="evenodd">
        <g id="mail" fill-rule="nonzero" fill="#666467">
            <g id="Group" transform="translate(4.347826, 9.565217)">
                <path d="M17.486087,5.66086957 C17.3791304,5.66086957 17.2721739,5.62173913 17.1886957,5.5426087 L12.1852174,0.848695652 C12.0104348,0.685217391 12.0017391,0.409565217 12.166087,0.234782609 C12.3304348,0.0582608696 12.6043478,0.0504347826 12.7808696,0.215652174 L17.7843478,4.90956522 C17.9591304,5.07304348 17.9678261,5.34869565 17.8034783,5.52347826 C17.7173913,5.61478261 17.6026087,5.66086957 17.486087,5.66086957 Z" id="Shape"></path>
                <path d="M0.784347826,5.66086957 C0.668695652,5.66086957 0.553043478,5.61478261 0.466956522,5.52347826 C0.302608696,5.34869565 0.311304348,5.07304348 0.486086957,4.90956522 L5.49130435,0.215652174 C5.66695652,0.052173913 5.9426087,0.0591304348 6.10608696,0.234782609 C6.27043478,0.409565217 6.26173913,0.685217391 6.08695652,0.848695652 L1.08173913,5.5426087 C0.99826087,5.62173913 0.891304348,5.66086957 0.784347826,5.66086957 Z" id="Shape"></path>
            </g>
            <path d="M24.7930435,19.5904348 L2.17391304,19.5904348 C0.975652174,19.5904348 0,18.6156522 0,17.4165217 L0,2.59304348 C0,1.39391304 0.975652174,0.419130435 2.17391304,0.419130435 L24.7930435,0.419130435 C25.9913043,0.419130435 26.9669565,1.39391304 26.9669565,2.59304348 L26.9669565,17.4165217 C26.9669565,18.6156522 25.9913043,19.5904348 24.7930435,19.5904348 Z M2.17391304,1.28869565 C1.45478261,1.28869565 0.869565217,1.87391304 0.869565217,2.59304348 L0.869565217,17.4165217 C0.869565217,18.1356522 1.45478261,18.7208696 2.17391304,18.7208696 L24.7930435,18.7208696 C25.5121739,18.7208696 26.0973913,18.1356522 26.0973913,17.4165217 L26.0973913,2.59304348 C26.0973913,1.87391304 25.5121739,1.28869565 24.7930435,1.28869565 L2.17391304,1.28869565 Z" id="Shape"></path>
            <path d="M13.4834783,12.1895652 C12.9052174,12.1895652 12.3269565,11.9973913 11.8869565,11.613913 L0.72173913,1.87391304 C0.540869565,1.71652174 0.52173913,1.44173913 0.679130435,1.26 C0.83826087,1.07913043 1.11217391,1.0626087 1.29304348,1.21826087 L12.4582609,10.9573913 C13.013913,11.4417391 13.9530435,11.4417391 14.5078261,10.9573913 L25.6591304,1.23391304 C25.8391304,1.07652174 26.1130435,1.09391304 26.2730435,1.27565217 C26.4304348,1.4573913 26.4121739,1.73130435 26.2313043,1.88956522 L15.08,11.6130435 C14.6391304,11.9973913 14.0617391,12.1895652 13.4834783,12.1895652 Z" id="Shape"></path>
        </g>
    </g>
</svg>