
<svg width="20px" height="22px" viewBox="0 0 20 22" version="1.1" xmlns="http://www.w3.org/2000/svg" xmlns:xlink="http://www.w3.org/1999/xlink">
    <!-- Generator: Sketch 43.1 (39012) - http://www.bohemiancoding.com/sketch -->
    <desc>Created with Sketch.</desc>
    <defs></defs>
    <g id="Page-1" stroke="none" stroke-width="1" fill="none" fill-rule="evenodd">
        <g id="share" fill-rule="nonzero" fill="#15386E">
            <path d="M13.9025,14.9746429 C13.7153571,15.1617857 13.5542857,15.3675 13.415,15.585 L7.24357143,11.8389286 C7.40678571,11.4303571 7.49928571,10.9860714 7.49928571,10.52 C7.49928571,10.0539286 7.40678571,9.60964286 7.24392857,9.20107143 L13.4167857,5.48357143 C14.0507143,6.47928571 15.1621429,7.14285714 16.4278571,7.14285714 C18.3971429,7.14285714 19.9992857,5.54071429 19.9992857,3.57142857 C19.9992857,1.60214286 18.3971429,0 16.4278571,0 C14.4585714,0 12.8564286,1.60214286 12.8564286,3.57142857 C12.8564286,4.02 12.9432143,4.44785714 13.0946429,4.84357143 L6.91357143,8.56607143 C6.275,7.59321429 5.17571429,6.94857143 3.9275,6.94857143 C1.95821429,6.94857143 0.356071429,8.55071429 0.356071429,10.52 C0.356071429,12.4892857 1.95821429,14.0914286 3.9275,14.0914286 C5.17571429,14.0914286 6.27464286,13.4467857 6.91321429,12.4739286 L13.0932143,16.225 C12.9396429,16.6271429 12.8560714,17.0567857 12.8560714,17.5 C12.8560714,18.4539286 13.2275,19.3510714 13.9021429,20.0253571 C14.5982143,20.7214286 15.5128571,21.0696429 16.4275,21.0696429 C17.3421429,21.0696429 18.2567857,20.7214286 18.9528571,20.0253571 C19.6275,19.3507143 19.9989286,18.4539286 19.9989286,17.5 C19.9989286,16.5460714 19.6275,15.6489286 18.9528571,14.9746429 C17.5603571,13.5817857 15.295,13.5817857 13.9025,14.9746429 Z M16.4278571,0.714285714 C18.0032143,0.714285714 19.285,1.99607143 19.285,3.57142857 C19.285,5.14678571 18.0032143,6.42857143 16.4278571,6.42857143 C14.8525,6.42857143 13.5707143,5.14678571 13.5707143,3.57142857 C13.5707143,1.99607143 14.8521429,0.714285714 16.4278571,0.714285714 Z M3.92785714,13.3771429 C2.3525,13.3771429 1.07071429,12.0953571 1.07071429,10.52 C1.07071429,8.94464286 2.3525,7.66285714 3.92785714,7.66285714 C5.50321429,7.66285714 6.785,8.94464286 6.785,10.52 C6.785,12.0953571 5.50321429,13.3771429 3.92785714,13.3771429 Z M18.4478571,19.5203571 C17.3339286,20.6342857 15.5214286,20.6342857 14.4075,19.5203571 C13.8678571,18.9807143 13.5707143,18.2628571 13.5707143,17.5 C13.5707143,16.7371429 13.8678571,16.0192857 14.4075,15.4796429 C14.9646429,14.9225 15.6960714,14.6442857 16.4278571,14.6442857 C17.1596429,14.6442857 17.8910714,14.9225 18.4482143,15.4796429 C18.9878571,16.0192857 19.285,16.7371429 19.285,17.5 C19.285,18.2628571 18.9878571,18.9807143 18.4478571,19.5203571 Z" id="Shape"></path>
        </g>
    </g>
</svg>