
<svg width="20px" height="20px" viewBox="0 0 20 20" version="1.1" xmlns="http://www.w3.org/2000/svg" xmlns:xlink="http://www.w3.org/1999/xlink">
    <!-- Generator: Sketch 43.1 (39012) - http://www.bohemiancoding.com/sketch -->
    <desc>Created with Sketch.</desc>
    <defs></defs>
    <g id="Page-1" stroke="none" stroke-width="1" fill="none" fill-rule="evenodd">
        <g id="smartphone" fill-rule="nonzero" fill="#666467">
            <path d="M9.66533333,16.3333333 C8.93,16.3333333 8.332,16.9313333 8.332,17.6666667 C8.332,18.402 8.93,19 9.66533333,19 C10.4006667,19 10.9986667,18.402 10.9986667,17.6666667 C10.9986667,16.9313333 10.4003333,16.3333333 9.66533333,16.3333333 Z M9.66533333,18.3333333 C9.29766667,18.3333333 8.99866667,18.0343333 8.99866667,17.6666667 C8.99866667,17.299 9.29766667,17 9.66533333,17 C10.033,17 10.332,17.299 10.332,17.6666667 C10.332,18.0343333 10.033,18.3333333 9.66533333,18.3333333 Z" id="Shape"></path>
            <path d="M8.66533333,1.66666667 L9.99866667,1.66666667 C10.1826667,1.66666667 10.332,1.51766667 10.332,1.33333333 C10.332,1.149 10.1826667,1 9.99866667,1 L8.66533333,1 C8.48133333,1 8.332,1.149 8.332,1.33333333 C8.332,1.51766667 8.481,1.66666667 8.66533333,1.66666667 Z" id="Shape"></path>
            <path d="M10.9986667,1.66666667 L11.332,1.66666667 C11.516,1.66666667 11.6653333,1.51766667 11.6653333,1.33333333 C11.6653333,1.149 11.516,1 11.332,1 L10.9986667,1 C10.8146667,1 10.6653333,1.149 10.6653333,1.33333333 C10.6653333,1.51766667 10.8143333,1.66666667 10.9986667,1.66666667 Z" id="Shape"></path>
            <path d="M1.39966667,4.44733333 L1.31533333,4.13266667 C1.26766667,3.955 1.08566667,3.84866667 0.907,3.897 C0.729333333,3.945 0.623666667,4.12733333 0.671333333,4.30533333 L0.755666667,4.62 C0.795666667,4.769 0.930333333,4.867 1.07733333,4.867 C1.10566667,4.867 1.135,4.86333333 1.164,4.85566667 C1.34166667,4.80766667 1.44733333,4.625 1.39966667,4.44733333 Z" id="Shape"></path>
            <path d="M0.702,3.28766667 C0.885333333,3.27 1.01966667,3.10733333 1.002,2.92433333 C0.999333333,2.89733333 0.998,2.871 0.998,2.844 C0.998,2.79333333 1.003,2.743 1.012,2.69433333 C1.04733333,2.51333333 0.928666667,2.339 0.748,2.304 C0.567666667,2.271 0.392666667,2.388 0.358,2.56866667 C0.340333333,2.66033333 0.331666667,2.75366667 0.331666667,2.84466667 C0.331666667,2.892 0.334,2.93966667 0.338666667,2.988 C0.355,3.16 0.5,3.28933333 0.67,3.28933333 C0.680666667,3.28933333 0.691333333,3.289 0.702,3.28766667 Z" id="Shape"></path>
            <path d="M2.243,7.596 L2.15866667,7.281 C2.111,7.10333333 1.92866667,6.99633333 1.75066667,7.04533333 C1.57266667,7.093 1.467,7.27533333 1.51466667,7.45366667 L1.599,7.76866667 C1.639,7.91733333 1.77333333,8.01566667 1.92066667,8.01566667 C1.949,8.01566667 1.978,8.012 2.007,8.00433333 C2.18533333,7.95666667 2.291,7.774 2.243,7.596 Z" id="Shape"></path>
            <path d="M3.93066667,13.8933333 L3.84633333,13.5786667 C3.79866667,13.4006667 3.61633333,13.294 3.438,13.343 C3.26033333,13.391 3.15466667,13.5733333 3.20233333,13.7513333 L3.28666667,14.066 C3.32666667,14.215 3.46133333,14.313 3.60833333,14.313 C3.63666667,14.313 3.666,14.3093333 3.695,14.3016667 C3.873,14.2536667 3.97833333,14.071 3.93066667,13.8933333 Z" id="Shape"></path>
            <path d="M1.82133333,6.02133333 L1.737,5.70666667 C1.68933333,5.52866667 1.507,5.422 1.32866667,5.471 C1.151,5.519 1.04533333,5.70133333 1.093,5.87933333 L1.17733333,6.194 C1.21733333,6.343 1.352,6.441 1.499,6.441 C1.52733333,6.441 1.55666667,6.43733333 1.58566667,6.42966667 C1.76366667,6.382 1.869,6.19933333 1.82133333,6.02133333 Z" id="Shape"></path>
            <path d="M1.53833333,2.07433333 C1.56666667,2.07433333 1.59566667,2.07066667 1.62466667,2.063 L1.93966667,1.97866667 C2.11733333,1.931 2.223,1.74866667 2.17533333,1.57033333 C2.12766667,1.39266667 1.94566667,1.285 1.767,1.33466667 L1.452,1.419 C1.27433333,1.46666667 1.16866667,1.649 1.21633333,1.82733333 C1.25633333,1.976 1.391,2.07433333 1.53833333,2.07433333 Z" id="Shape"></path>
            <path d="M3.11266667,1.652 C3.141,1.652 3.17,1.64833333 3.199,1.64066667 L3.51366667,1.55633333 C3.69133333,1.50866667 3.797,1.326 3.74933333,1.148 C3.70166667,0.97 3.52,0.863333333 3.34133333,0.912333333 L3.02666667,0.996666667 C2.849,1.04433333 2.74333333,1.227 2.791,1.405 C2.83066667,1.55366667 2.96533333,1.652 3.11266667,1.652 Z" id="Shape"></path>
            <path d="M3.50866667,12.319 L3.42433333,12.004 C3.37666667,11.8263333 3.194,11.7203333 3.016,11.7683333 C2.838,11.816 2.73266667,11.9986667 2.78033333,12.1766667 L2.86466667,12.4916667 C2.90466667,12.6406667 3.03933333,12.7386667 3.18633333,12.7386667 C3.21466667,12.7386667 3.244,12.735 3.27266667,12.7273333 C3.451,12.6796667 3.55633333,12.4966667 3.50866667,12.319 Z" id="Shape"></path>
            <path d="M2.665,9.17033333 L2.58066667,8.85566667 C2.533,8.67833333 2.35066667,8.57166667 2.17233333,8.62 C1.99466667,8.66766667 1.889,8.85033333 1.93666667,9.02833333 L2.021,9.343 C2.061,9.49166667 2.19533333,9.59 2.34266667,9.59 C2.371,9.59 2.4,9.58633333 2.429,9.57866667 C2.607,9.531 2.71266667,9.348 2.665,9.17033333 Z" id="Shape"></path>
            <path d="M3.087,10.7443333 L3.00266667,10.4296667 C2.955,10.252 2.77266667,10.1446667 2.59433333,10.194 C2.41666667,10.2416667 2.311,10.4243333 2.35866667,10.6023333 L2.443,10.917 C2.483,11.0656667 2.61733333,11.164 2.76466667,11.164 C2.793,11.164 2.822,11.1603333 2.851,11.1526667 C3.029,11.105 3.13466667,10.9223333 3.087,10.7443333 Z" id="Shape"></path>
            <path d="M18.6716667,5.47133333 C18.493,5.42266667 18.311,5.529 18.2633333,5.707 L18.179,6.02166667 C18.1313333,6.19933333 18.2366667,6.382 18.4146667,6.43 C18.4436667,6.43766667 18.4726667,6.44133333 18.5013333,6.44133333 C18.6483333,6.44133333 18.7833333,6.34333333 18.823,6.19433333 L18.9073333,5.87966667 C18.9546667,5.70166667 18.8493333,5.51933333 18.6716667,5.47133333 Z" id="Shape"></path>
            <path d="M19.093,3.89666667 C18.914,3.848 18.7323333,3.955 18.6846667,4.13233333 L18.6003333,4.447 C18.5526667,4.62466667 18.6583333,4.80766667 18.836,4.85533333 C18.865,4.863 18.894,4.86666667 18.9223333,4.86666667 C19.0696667,4.86666667 19.2043333,4.76833333 19.244,4.61966667 L19.3283333,4.305 C19.3763333,4.12733333 19.271,3.94433333 19.093,3.89666667 Z" id="Shape"></path>
            <path d="M19.642,2.569 C19.6076667,2.38866667 19.434,2.27166667 19.252,2.30433333 C19.0713333,2.339 18.9526667,2.51366667 18.9873333,2.69466667 C18.9966667,2.74333333 19.0016667,2.79366667 19.0013333,2.84466667 C19.0013333,2.87133333 19,2.89766667 18.9973333,2.92433333 C18.98,3.10766667 19.1143333,3.27033333 19.2973333,3.288 C19.308,3.28933333 19.3186667,3.28966667 19.3293333,3.28966667 C19.4993333,3.28966667 19.6443333,3.16033333 19.661,2.98833333 C19.6656667,2.94 19.668,2.89233333 19.668,2.84533333 C19.6683333,2.75366667 19.6596667,2.66066667 19.642,2.569 Z" id="Shape"></path>
            <path d="M16.4863333,1.55633333 L16.801,1.64066667 C16.83,1.64833333 16.859,1.652 16.8873333,1.652 C17.0346667,1.652 17.1693333,1.55366667 17.209,1.405 C17.2566667,1.22733333 17.151,1.04433333 16.9733333,0.996666667 L16.6586667,0.912333333 C16.4793333,0.863333333 16.298,0.970333333 16.2503333,1.148 C16.203,1.326 16.3086667,1.50866667 16.4863333,1.55633333 Z" id="Shape"></path>
            <path d="M18.0606667,1.97866667 L18.3756667,2.063 C18.4046667,2.07066667 18.4336667,2.07433333 18.462,2.07433333 C18.6093333,2.07433333 18.744,1.976 18.7836667,1.82733333 C18.8313333,1.64933333 18.7256667,1.46666667 18.548,1.419 L18.233,1.33466667 C18.0543333,1.28533333 17.872,1.39266667 17.8246667,1.57033333 C17.7773333,1.74833333 17.8826667,1.931 18.0606667,1.97866667 Z" id="Shape"></path>
            <path d="M18.2496667,7.04566667 C18.0713333,6.998 17.8886667,7.10366667 17.8413333,7.28133333 L17.757,7.596 C17.7093333,7.77366667 17.8146667,7.95633333 17.9926667,8.00433333 C18.0216667,8.012 18.0506667,8.01566667 18.0793333,8.01566667 C18.2263333,8.01566667 18.3613333,7.91766667 18.401,7.76866667 L18.4853333,7.454 C18.533,7.276 18.4273333,7.09333333 18.2496667,7.04566667 Z" id="Shape"></path>
            <path d="M16.1403333,14.917 C15.963,14.8696667 15.7796667,14.9746667 15.732,15.1526667 L15.6683333,15.39 L15.6683333,15.3326667 C15.6683333,15.327 15.6653333,15.3223333 15.665,15.3166667 L15.665,14.045 C15.6653333,14.0393333 15.6683333,14.0346667 15.6683333,14.029 L15.6683333,13.703 C15.6683333,13.6973333 15.6653333,13.6926667 15.665,13.687 L15.665,12.4153333 C15.6653333,12.4096667 15.6683333,12.405 15.6683333,12.3993333 L15.6683333,12.0733333 C15.6683333,12.0676667 15.6653333,12.063 15.665,12.0573333 L15.665,10.7856667 C15.6653333,10.78 15.6683333,10.7753333 15.6683333,10.7696667 L15.6683333,10.4436667 C15.6683333,10.438 15.6653333,10.4333333 15.665,10.4276667 L15.665,9.156 C15.6653333,9.15033333 15.6683333,9.14566667 15.6683333,9.14 L15.6683333,8.814 C15.6683333,8.80833333 15.6653333,8.80366667 15.665,8.798 L15.665,7.52633333 C15.6653333,7.52066667 15.6683333,7.516 15.6683333,7.51033333 L15.6683333,7.18333333 C15.6683333,7.17766667 15.6653333,7.173 15.665,7.16733333 L15.665,5.89566667 C15.6653333,5.89 15.6683333,5.88533333 15.6683333,5.87966667 L15.6683333,5.55333333 C15.6683333,5.54766667 15.6653333,5.543 15.665,5.53733333 L15.665,4.266 C15.6653333,4.26033333 15.6683333,4.25566667 15.6683333,4.25 L15.6683333,3.92366667 C15.6683333,3.918 15.6653333,3.91333333 15.665,3.90766667 L15.665,2.636 C15.6653333,2.63033333 15.6683333,2.62566667 15.6683333,2.62 L15.6683333,2.29366667 C15.6683333,2.288 15.6653333,2.28333333 15.665,2.27766667 L15.665,1.46833333 C15.6653333,0.659 15.0066667,0 14.1966667,0 L5.80033333,0 C4.99066667,0 4.332,0.659 4.332,1.46833333 L4.332,2.293 L4.332,2.29366667 L4.332,2.61966667 L4.332,2.62033333 L4.332,3.92266667 L4.332,3.92333333 L4.332,4.24933333 L4.332,4.25 L4.332,5.552 L4.332,5.55266667 L4.332,5.879 L4.332,5.87966667 L4.332,7.18166667 L4.332,7.18233333 L4.332,7.50866667 L4.332,7.50933333 L4.332,8.81133333 L4.332,8.812 L4.332,9.13833333 L4.332,9.139 L4.332,10.441 L4.332,10.4416667 L4.332,10.768 L4.332,10.7686667 L4.332,12.0706667 L4.332,12.0713333 L4.332,12.3976667 L4.332,12.3983333 L4.332,13.7003333 L4.332,13.701 L4.332,14.027 L4.332,14.0276667 L4.332,15.33 L4.332,15.3306667 L4.332,15.388 L4.26833333,15.1506667 C4.22066667,14.973 4.03833333,14.8656667 3.86,14.915 C3.68233333,14.9626667 3.57666667,15.1453333 3.62433333,15.3233333 L3.70866667,15.638 C3.75633333,15.8153333 3.938,15.9223333 4.117,15.8736667 C4.216,15.8473333 4.29166667,15.7786667 4.33233333,15.693 L4.33233333,16.484 C4.31566667,16.486 4.299,16.4846667 4.28233333,16.4893333 C4.10466667,16.537 3.999,16.7196667 4.04666667,16.8976667 L4.131,17.2123333 C4.15933333,17.3183333 4.23733333,17.3963333 4.33233333,17.4336667 L4.33233333,18.5296667 C4.33233333,19.3393333 4.991,19.998 5.80066667,19.998 L14.1966667,19.998 C15.0063333,19.998 15.665,19.339 15.665,18.5296667 L15.665,17.4353333 C15.7616667,17.3986667 15.841,17.3203333 15.8696667,17.2126667 L15.954,16.898 C16.0016667,16.7203333 15.896,16.5373333 15.7183333,16.4896667 C15.7003333,16.485 15.683,16.486 15.665,16.4843333 L15.665,15.6963333 C15.6653333,15.6946667 15.6663333,15.6933333 15.6663333,15.6913333 C15.7063333,15.7783333 15.7833333,15.8473333 15.883,15.874 C16.061,15.9216667 16.2436667,15.8163333 16.2913333,15.6383333 L16.3756667,15.3233333 C16.4236667,15.1473333 16.3183333,14.9646667 16.1403333,14.917 Z M4.99866667,2.66666667 L14.9986667,2.66666667 L14.9986667,15.3333333 L4.99866667,15.3333333 L4.99866667,2.66666667 L4.99866667,2.66666667 Z M5.80033333,0.666666667 L14.1966667,0.666666667 C14.6386667,0.666666667 14.9983333,1.02633333 14.9983333,1.46833333 L14.9983333,2 L4.99833333,2 L4.99833333,1.46833333 C4.99866667,1.02633333 5.35833333,0.666666667 5.80033333,0.666666667 Z M14.1966667,19.3333333 L5.80033333,19.3333333 C5.35833333,19.3333333 4.99866667,18.9736667 4.99866667,18.5316667 L4.99866667,16 L14.9986667,16 L14.9986667,18.5316667 C14.9986667,18.9736667 14.639,19.3333333 14.1966667,19.3333333 Z" id="Shape"></path>
            <path d="M16.984,11.7686667 C16.805,11.7196667 16.6233333,11.8266667 16.5756667,12.0043333 L16.4913333,12.319 C16.4436667,12.4966667 16.5493333,12.6796667 16.727,12.7273333 C16.756,12.735 16.785,12.7386667 16.8133333,12.7386667 C16.9606667,12.7386667 17.0953333,12.6403333 17.135,12.4916667 L17.2193333,12.177 C17.2673333,11.999 17.1616667,11.816 16.984,11.7686667 Z" id="Shape"></path>
            <path d="M16.5623333,13.3426667 C16.3833333,13.294 16.2016667,13.4003333 16.154,13.5783333 L16.0696667,13.893 C16.022,14.0706667 16.1273333,14.2533333 16.3053333,14.3013333 C16.3343333,14.309 16.3633333,14.3126667 16.392,14.3126667 C16.539,14.3126667 16.674,14.2146667 16.7136667,14.0656667 L16.798,13.751 C16.8456667,13.5733333 16.74,13.3906667 16.5623333,13.3426667 Z" id="Shape"></path>
            <path d="M17.4056667,10.194 C17.2276667,10.1446667 17.045,10.252 16.9976667,10.4296667 L16.9133333,10.7446667 C16.8656667,10.9226667 16.9713333,11.1053333 17.1493333,11.153 C17.178,11.1606667 17.207,11.1643333 17.2356667,11.1643333 C17.383,11.1643333 17.5176667,11.066 17.5573333,10.9173333 L17.6416667,10.6023333 C17.689,10.424 17.5833333,10.2416667 17.4056667,10.194 Z" id="Shape"></path>
            <path d="M17.8276667,8.61966667 C17.6486667,8.57133333 17.467,8.678 17.4193333,8.85533333 L17.335,9.17 C17.2873333,9.34766667 17.393,9.53066667 17.5706667,9.57833333 C17.5996667,9.586 17.6286667,9.58966667 17.657,9.58966667 C17.8043333,9.58966667 17.939,9.49133333 17.9786667,9.34266667 L18.063,9.028 C18.111,8.85033333 18.0053333,8.66733333 17.8276667,8.61966667 Z" id="Shape"></path>
        </g>
    </g>
</svg>