
<svg width="25px" height="25px" viewBox="0 0 25 25" version="1.1" xmlns="http://www.w3.org/2000/svg" xmlns:xlink="http://www.w3.org/1999/xlink">
    <!-- Generator: Sketch 43.1 (39012) - http://www.bohemiancoding.com/sketch -->
    <desc>Created with Sketch.</desc>
    <defs></defs>
    <g id="Page-1" stroke="none" stroke-width="1" fill="none" fill-rule="evenodd">
        <g id="twitter-circular-button" fill-rule="nonzero" fill="#FFFFFF">
            <path d="M17.8602533,10.0147876 C17.8602533,9.88864379 17.8579657,9.76364379 17.8522876,9.63978758 C18.3920752,9.2375 18.8602533,8.73410948 19.230719,8.15796569 C18.7352533,8.38071895 18.2034314,8.52957516 17.6443219,8.59203431 C18.2147876,8.24089052 18.6522876,7.67953431 18.8591095,7.0056781 C18.325,7.32953431 17.7341095,7.56135621 17.1056781,7.6818219 C16.6022876,7.10906863 15.8841095,6.7443219 15.0897467,6.7306781 C13.5647467,6.7056781 12.3283905,7.9943219 12.3283905,9.60906863 C12.3283905,9.83860294 12.3522467,10.0613562 12.3999592,10.2761029 C10.1033905,10.1283905 8.0681781,8.93292484 6.70678105,7.1306781 C6.46928105,7.5625 6.33292484,8.06703431 6.33292484,8.60796569 C6.33292484,9.63071895 6.82042484,10.5397876 7.56131536,11.0761438 C7.10792484,11.055719 6.68292484,10.918219 6.31021242,10.6931781 L6.31021242,10.7306781 C6.31021242,12.1602533 7.2625,13.3579657 8.52610294,13.6375 C8.29428105,13.7033905 8.04995915,13.7375 7.79881536,13.7363971 C7.62042484,13.7352533 7.44767157,13.7159314 7.27949346,13.6795343 C7.63063725,14.8511438 8.65110294,15.7068219 9.85902778,15.7352124 C8.91356209,16.519281 7.72267157,16.9874592 6.42949346,16.9840686 C6.2067402,16.9840686 5.98631536,16.9693219 5.77038399,16.9420343 C6.99313725,17.7806781 8.4442402,18.269281 10.0044526,18.269281 C15.0829248,18.2704657 17.8602533,13.85 17.8602533,10.0147876 Z" id="Shape"></path>
            <path d="M25,12.5 C25,5.59656863 19.4033905,0 12.5,0 C5.59656863,0 0,5.59656863 0,12.5 C0,19.4033905 5.59656863,25 12.5,25 C19.4033905,25 25,19.4033905 25,12.5 Z M1.13635621,12.5 C1.13635621,6.22385621 6.22385621,1.13635621 12.5,1.13635621 C18.7761438,1.13635621 23.8636438,6.22385621 23.8636438,12.5 C23.8636438,18.7761438 18.7761438,23.8636438 12.5,23.8636438 C6.22385621,23.8636438 1.13635621,18.7761438 1.13635621,12.5 Z" id="Shape"></path>
        </g>
    </g>
</svg>