
<svg width="18px" height="19px" viewBox="0 0 18 19" version="1.1" xmlns="http://www.w3.org/2000/svg" xmlns:xlink="http://www.w3.org/1999/xlink">
    <!-- Generator: Sketch 43.1 (39012) - http://www.bohemiancoding.com/sketch -->
    <desc>Created with Sketch.</desc>
    <defs></defs>
    <g id="Page-1" stroke="none" stroke-width="1" fill="none" fill-rule="evenodd">
        <g id="SOCIAL-ICONS-SKETCH" transform="translate(-783.000000, -207.000000)" fill="#24A9E6">
            <g id="Group" transform="translate(783.000000, 207.000000)">
                <path d="M9.00592405,18.1275949 C4.04772152,18.1275949 0.0136708861,14.0937722 0.0136708861,9.13556962 C0.0136708861,4.17713924 4.04772152,0.143316456 9.00592405,0.143316456 C13.9643544,0.143316456 17.9981772,4.17713924 17.9981772,9.13556962 C17.9981772,14.0937722 13.9643544,18.1275949 9.00592405,18.1275949 L9.00592405,18.1275949 Z M9.00592405,0.826860759 C4.42458228,0.826860759 0.69721519,4.554 0.69721519,9.13556962 C0.69721519,13.7169114 4.42458228,17.4440506 9.00592405,17.4440506 C13.5874937,17.4440506 17.3146329,13.7169114 17.3146329,9.13556962 C17.3146329,4.554 13.5874937,0.826860759 9.00592405,0.826860759 L9.00592405,0.826860759 Z" id="Twitter-Circle"></path>
                <path d="M12.9326582,5.66316456 C12.5940759,5.86868354 12.2199494,6.0181519 11.8200759,6.09812658 C11.5015443,5.74951899 11.0463038,5.5316962 10.5423038,5.5316962 C9.57622785,5.5316962 8.79220253,6.3355443 8.79220253,7.32691139 C8.79220253,7.46749367 8.80724051,7.60420253 8.83731646,7.73567089 C7.38227848,7.66070886 6.09243038,6.94686076 5.22843038,5.85934177 C5.07759494,6.12546835 4.99146835,6.43420253 4.99146835,6.76275949 C4.99146835,7.38546835 5.30043038,7.93503797 5.77048101,8.25698734 C5.4838481,8.24832911 5.21339241,8.16675949 4.97688608,8.03301266 L4.97688608,8.05511392 C4.97688608,8.92526582 5.5804557,9.65118987 6.38202532,9.81546835 C6.23529114,9.85762025 6.08035443,9.87858228 5.92063291,9.87858228 C5.8078481,9.87858228 5.69779747,9.86787342 5.59116456,9.84691139 C5.814,10.5598481 6.46017722,11.0791139 7.22643038,11.0927848 C6.62741772,11.5746835 5.87210127,11.8617722 5.05207595,11.8617722 C4.91081013,11.8617722 4.77113924,11.8535696 4.63443038,11.8371646 C5.40911392,12.3457215 6.3298481,12.6430633 7.31825316,12.6430633 C10.5388861,12.6430633 12.2994684,9.90797468 12.2994684,7.53539241 C12.2994684,7.45724051 12.2981013,7.37931646 12.2951392,7.30275949 C12.6371392,7.04939241 12.9342532,6.73359494 13.1680253,6.37359494 C12.8545063,6.51622785 12.5168354,6.61283544 12.1627595,6.65612658 C12.5243544,6.43420253 12.8018734,6.08217722 12.9326582,5.66316456" id="Twitter"></path>
            </g>
        </g>
    </g>
</svg>