
<svg width="16px" height="20px" viewBox="0 0 16 20" version="1.1" xmlns="http://www.w3.org/2000/svg" xmlns:xlink="http://www.w3.org/1999/xlink">
    <!-- Generator: Sketch 43.1 (39012) - http://www.bohemiancoding.com/sketch -->
    <desc>Created with Sketch.</desc>
    <defs></defs>
    <g id="Page-1" stroke="none" stroke-width="1" fill="none" fill-rule="evenodd">
        <g id="user" fill-rule="nonzero" fill="#666467">
            <path d="M13.6713333,14.2963333 L10.487,12.7043333 C10.1866667,12.554 10,12.252 10,11.916 L10,10.789 C10.0763333,10.6956667 10.1566667,10.5893333 10.2396667,10.472 C10.6526667,9.88866667 10.9836667,9.23933333 11.2243333,8.539 C11.6946667,8.32333333 12,7.85833333 12,7.33333333 L12,6 C12,5.679 11.88,5.368 11.6666667,5.125 L11.6666667,3.352 C11.6853333,3.16866667 11.7586667,2.07733333 10.9693333,1.177 C10.2846667,0.396 9.17366667,0 7.66666667,0 C6.15966667,0 5.04866667,0.396 4.364,1.17666667 C3.57466667,2.077 3.648,3.16866667 3.66666667,3.352 L3.66666667,5.125 C3.45333333,5.368 3.33333333,5.679 3.33333333,6 L3.33333333,7.33333333 C3.33333333,7.739 3.51766667,8.11733333 3.83233333,8.36966667 C4.13766667,9.57866667 4.77666667,10.4896667 5,10.782 L5,11.885 C5,12.2076667 4.824,12.5036667 4.541,12.6583333 L1.56733333,14.2803333 C0.600333333,14.808 0,15.8193333 0,16.9206667 L0,18 C0,19.582 5.015,20 7.66666667,20 C10.3183333,20 15.3333333,19.582 15.3333333,18 L15.3333333,16.9856667 C15.3333333,15.8396667 14.6963333,14.809 13.6713333,14.2963333 Z M14.6666667,18 C14.6666667,18.4523333 12.196,19.3333333 7.66666667,19.3333333 C3.13733333,19.3333333 0.666666667,18.4523333 0.666666667,18 L0.666666667,16.9206667 C0.666666667,16.0636667 1.134,15.276 1.88633333,14.866 L4.86,13.244 C5.35766667,12.9723333 5.66666667,12.4513333 5.66666667,11.885 L5.66666667,10.5453333 L5.589,10.4526667 C5.581,10.443 4.764,9.45466667 4.45233333,8.09766667 L4.422,7.96566667 L4.30833333,7.89233333 C4.11533333,7.76766667 4,7.55866667 4,7.33333333 L4,6 C4,5.813 4.07933333,5.63866667 4.22333333,5.50833333 L4.33333333,5.40933333 L4.33333333,3.33333333 L4.33033333,3.28966667 C4.32933333,3.28066667 4.216,2.35666667 4.86533333,1.616 C5.41766667,0.986 6.36033333,0.666666667 7.66666667,0.666666667 C8.96833333,0.666666667 9.909,0.983666667 10.462,1.60933333 C11.111,2.343 11.0036667,3.28166667 11.003,3.28966667 L11,5.40933333 L11.11,5.50866667 C11.254,5.63866667 11.3333333,5.813 11.3333333,6 L11.3333333,7.33333333 C11.3333333,7.62433333 11.1426667,7.879 10.8593333,7.96633333 L10.6933333,8.01733333 L10.64,8.18233333 C10.417,8.876 10.0993333,9.51666667 9.69533333,10.0866667 C9.59633333,10.227 9.5,10.3513333 9.41633333,10.4463333 L9.33333333,10.541 L9.33333333,11.916 C9.33333333,12.506 9.661,13.0363333 10.1886667,13.3003333 L13.373,14.8923333 C14.171,15.2913333 14.6666667,16.0933333 14.6666667,16.9856667 L14.6666667,18 Z" id="Shape"></path>
        </g>
    </g>
</svg>