
<svg width="3105px" height="700px" viewBox="0 0 3105 700" version="1.1" xmlns="http://www.w3.org/2000/svg" xmlns:xlink="http://www.w3.org/1999/xlink">
    <!-- Generator: Sketch 43.1 (39012) - http://www.bohemiancoding.com/sketch -->
    <desc>Created with Sketch.</desc>
    <defs></defs>
    <g id="Page-1" stroke="none" stroke-width="1" fill="none" fill-rule="evenodd">
        <g id="Group-2">
            <ellipse id="Oval" fill="#456EA8" cx="350" cy="350" rx="350" ry="350"></ellipse>
            <g id="Group" transform="translate(127.750000, 98.000000)" fill="#FFFFFF">
                <g id="Logo-without-circle-(1)">
                    <path d="M0.508341035,318.503546 C0.508341035,318.503546 33.9862292,356.08144 82.2060074,391.260745 C92.3728281,398.674566 103.04799,405.943017 114.231493,412.702677 C131.732948,423.314616 150.323706,432.836288 169.640665,440.177424 L163.322713,448.172721 L157.876201,455.07775 C157.876201,455.07775 135.509196,449.626411 108.784982,442.794067 C90.9930453,438.287627 71.3129852,433.127026 54.9734519,428.475217 C54.9734519,428.475217 47.4209566,415.392004 37.3993762,396.566715 C36.3100739,394.531548 35.1481516,392.423698 34.0588494,390.243162 C23.093207,369.673444 10.0942006,343.870441 0.508341035,318.503546 Z" id="XMLID_2_"></path>
                    <path d="M76.3963956,457.476339 C76.3963956,457.476339 84.7477126,459.58419 98.4729205,461.764725 C111.036206,463.799891 128.029321,465.907742 147.34628,466.634588 C147.34628,466.634588 141.827149,473.248878 129.481724,482.77055 C124.688794,486.47746 118.806562,490.620478 111.835028,494.981548 C111.835028,494.981548 105.226594,489.893632 97.3109982,482.334443 C90.1942237,475.429414 81.9155268,466.489219 76.3963956,457.476339 Z" id="XMLID_6_"></path>
                    <path d="M392.65714,502.104631 C392.65714,502.104631 384.886784,480.226592 358.235189,461.910094 C347.124307,454.205535 338.77299,449.626411 309.14397,439.377894 C309.14397,439.377894 310.886853,429.856223 313.791659,413.502207 C315.026201,406.597178 316.478604,398.456512 318.076248,389.370948 C319.38341,382.029812 320.763193,374.034515 322.288216,365.457742 C323.522759,358.480029 324.539441,350.993524 326.137084,343.36165 C328.82403,330.859913 330.494293,317.267909 333.108618,303.167113 C336.449145,285.432091 340.007532,266.316064 342.984958,245.964399 C356.564926,152.855535 375.518785,51.3879522 381.473637,0.654160637 C381.473637,0.654160637 356.056585,2.54395803 345.090943,23.5497829 C345.163563,23.0409913 339.426571,110.771201 317.422666,289.139001 C313.791659,318.430861 309.652311,337.982996 309.28921,336.165883 C308.345148,330.932598 310.305892,323.373408 311.032093,314.942004 C314.808341,272.348878 322.070356,197.556512 323.667999,125.671527 C324.32158,98.2694645 326.790665,76.5367945 325.338262,65.2706946 C325.338262,65.2706946 300.211691,120.583611 286.050762,140.20843 C286.050762,140.20843 289.028189,158.524928 289.82701,187.816787 C291.279413,238.695948 295.200901,305.202279 291.642514,374.325253 C291.134173,384.791823 292.005615,401.727315 289.246049,402.308792 C286.413863,402.890268 287.721026,392.132959 287.285305,375.706259 C285.905522,325.408575 280.822112,219.870658 271.889834,188.18021 C271.889834,188.18021 264.99092,233.608032 238.121465,297.570405 C238.121465,297.570405 272.470795,390.025109 281.039972,421.715557 C281.475693,423.459986 283.000716,429.4928 283.000716,429.4928 C283.000716,429.4928 283.000716,429.4928 283.000716,429.565485 C283.073336,429.783538 283.581677,431.74602 283.799538,432.400181 C283.944778,432.763603 284.96146,436.833936 285.978142,440.540847 C286.922204,443.81165 287.357925,446.500977 285.542421,447.082453 C282.201895,448.027352 282.274515,442.576013 277.989926,431.019175 C265.499261,397.29356 236.160721,333.694609 228.099884,328.097902 C228.099884,328.097902 228.245125,332.022865 224.541497,344.742656 C219.748567,361.169356 211.17939,385.445984 197.163701,420.697974 C197.163701,420.697974 242.333433,449.335673 262.158734,468.015593 C265.42664,471.141027 269.202888,473.612301 267.895726,475.720152 C267.314764,476.665051 265.789741,477.46458 260.05275,475.938205 C259.181308,475.720152 252.064533,473.321563 251.120471,472.95814 C240.88103,469.323915 213.503235,459.656874 186.924261,443.375543 C186.924261,443.375543 180.751548,463.727207 138.994963,494.981548 L361.212616,494.981548 C361.285236,494.981548 374.139002,494.472757 392.65714,502.104631 Z" id="XMLID_7_"></path>
                </g>
            </g>
        </g>
        <text id="fly-paradise" font-family="Bitter-Regular, Bitter" font-size="390" font-weight="normal" letter-spacing="30" fill="#000000">
            <tspan x="845" y="453">f</tspan>
            <tspan x="1046.6" y="453" letter-spacing="1">ly paradise</tspan>
        </text>
    </g>
</svg>