
<svg width="31px" height="25px" viewBox="0 0 31 25" version="1.1" xmlns="http://www.w3.org/2000/svg" xmlns:xlink="http://www.w3.org/1999/xlink">
    <!-- Generator: Sketch 43.1 (39012) - http://www.bohemiancoding.com/sketch -->
    <desc>Created with Sketch.</desc>
    <defs></defs>
    <g id="Page-1" stroke="none" stroke-width="1" fill="none" fill-rule="evenodd">
        <g id="travel" fill-rule="nonzero" fill="#000000">
            <path d="M10.2696281,6.89059917 L9.91683884,5.57045455 C9.1535124,5.77448347 8.39431818,6.02747934 7.66053719,6.32221074 L8.1697314,7.59018595 C8.85320248,7.31580579 9.55940083,7.08057851 10.2696281,6.89059917 Z" id="Shape"></path>
            <path d="M6.16880165,8.53729339 L5.51136364,7.33946281 C4.81890496,7.7197314 4.14183884,8.14628099 3.49876033,8.60743802 L4.29535124,9.71756198 C4.89421488,9.28832645 5.52438017,8.89121901 6.16880165,8.53729339 Z" id="Shape"></path>
            <path d="M0,11.8203512 L1.03863636,12.7080579 C1.51683884,12.1485537 2.03450413,11.6125 2.57665289,11.114876 L1.65278926,10.1083678 C1.07004132,10.6430785 0.513946281,11.218905 0,11.8203512 Z" id="Shape"></path>
            <path d="M29.4900826,11.2704545 L28.4839876,12.1947314 C28.9822314,12.7371901 29.4522727,13.3153926 29.8815083,13.9129132 L30.9917355,13.1163223 C30.5303719,12.4739669 30.0255165,11.8528926 29.4900826,11.2704545 Z" id="Shape"></path>
            <path d="M25.1219008,9.32365702 C25.7347107,9.73016529 26.3299587,10.1790289 26.8899793,10.6572314 L27.7771694,9.61818182 C27.1753099,9.10402893 26.5358471,8.62169421 25.8765496,8.18491736 L25.1219008,9.32365702 Z" id="Shape"></path>
            <path d="M23.8157025,6.99245868 C23.1097107,6.63966942 22.3737603,6.32592975 21.6270661,6.05971074 L21.1683884,7.34679752 C21.8632231,7.59431818 22.5481405,7.88626033 23.2049587,8.21466942 L23.8157025,6.99245868 Z" id="Shape"></path>
            <path d="M11.4581612,7.91353306 L12.3867769,7.91394628 L13.1608471,6.74008264 L14.651343,6.75030992 L13.7129132,9.98584711 L13.7129132,10.0623967 C13.7129132,10.4709711 14.0453512,10.8036157 14.4539256,10.8036157 L15.8002066,10.8036157 L17.9366736,6.84142562 L19.5879132,6.89607438 C20.442562,6.89607438 21.1380165,6.22541322 21.1380165,5.40154959 C21.1384298,4.99669421 20.9733471,4.61745868 20.6734504,4.3339876 C20.382438,4.0588843 19.997314,3.90702479 19.5716942,3.90702479 L19.5703512,3.90702479 L17.9225207,3.96208678 L15.8006198,0.0270661157 L14.4520661,0.0266528926 C14.0444215,0.0277892562 13.7129132,0.36053719 13.7129132,0.768078512 L13.7129132,0.844318182 L14.6438017,4.05402893 L13.1470041,4.06704545 L12.3863636,2.91632231 L11.4583678,2.91652893 C11.0771694,2.91652893 10.7672521,3.22644628 10.7672521,3.60743802 L10.7672521,7.22272727 C10.7672521,7.60382231 11.0768595,7.91353306 11.4581612,7.91353306 Z M11.8418388,4.04297521 L11.8422521,4.04297521 L12.572314,5.14741736 L16.0720041,5.11714876 L14.9072314,1.10196281 L15.1586777,1.10196281 L17.2926653,5.05909091 L19.5885331,4.98233471 C19.7208678,4.98233471 19.8438017,5.02975207 19.9349174,5.11559917 C20.017562,5.19369835 20.0629132,5.29504132 20.0629132,5.40134298 C20.0629132,5.63295455 19.8497934,5.82107438 19.6058884,5.82128099 L17.3068182,5.74524793 L15.1584711,9.7286157 L14.9070248,9.7286157 L16.0795455,5.68543388 L12.5847107,5.66105372 L11.8418388,6.78667355 L11.8418388,4.04297521 Z" id="Shape"></path>
            <path d="M17.6967975,13.183781 C16.8024793,12.9799587 15.8882231,12.8765496 14.9789256,12.8765496 C9.25971074,12.8765496 4.37634298,16.7769628 3.10402893,22.3614669 C2.90640496,23.2295455 2.80754132,24.1038223 2.8,24.9732438 L4.16652893,24.9732438 C4.17241736,24.4296488 4.21818182,23.883781 4.30702479,23.3391529 C5.07541322,23.536157 5.86694215,23.8521694 6.12128099,24.0597107 C6.10940083,24.1478306 6.09576446,24.2370868 6.08192149,24.3270661 C6.05113636,24.526343 6.01797521,24.7467975 6.00423554,24.9733471 L7.37510331,24.9733471 C7.38946281,24.8184917 7.41384298,24.6552686 7.4322314,24.5352273 C7.45754132,24.3705579 7.48254132,24.2066116 7.4982438,24.0481405 C7.58316116,23.1900826 6.61012397,22.5039256 4.60981405,22.0068182 C5.71012397,18.253719 8.68491736,15.4618802 12.3742769,14.5577479 C12.1709711,14.9508264 12.0072314,15.4371901 11.938843,16.0524793 C11.9055785,16.3540289 11.8622934,16.626343 11.8242769,16.8661157 C11.671281,17.8330579 11.5130165,18.8329545 12.8205579,19.4149793 C13.5538223,19.7424587 14.0668388,19.7966942 14.4788223,19.8396694 C14.6792355,19.8606405 14.8558884,19.8793388 15.043595,19.927376 C15.109814,20.1493802 15.076343,20.6918388 15.0629132,20.9086777 C15.0458678,21.1839876 15.0285124,21.4649793 15.1126033,21.6945248 C15.1961777,22.1636364 15.5429752,23.6494835 16.6936983,24.9728306 L18.75,24.9728306 C16.7733471,23.6823347 16.4584711,21.4761364 16.4454545,21.3791322 L16.4174587,21.1541322 C16.4201446,21.1008264 16.423657,21.042562 16.4267562,20.9926653 C16.4706612,20.2815083 16.552686,18.9570248 15.538843,18.647314 C15.1886364,18.5404959 14.8876033,18.5090909 14.6220041,18.481095 C14.241219,18.4410124 13.9126033,18.406405 13.3770661,18.167562 C13.0265496,18.0113636 13.0265496,18.0113636 13.1739669,17.0799587 C13.2142562,16.8251033 13.2600207,16.5359504 13.2966942,16.2025826 C13.4010331,15.2618802 13.7974174,14.6657025 14.1554752,14.2751033 C14.4275826,14.2548554 14.7019628,14.242562 14.9789256,14.242562 C15.786157,14.242562 16.5984504,14.3342975 17.3934917,14.5153926 C20.2129132,15.1577479 22.6136364,16.8592975 24.1527893,19.3065083 C25.1959711,20.9652893 25.7573347,22.8321281 25.8117769,24.7409091 C25.6981405,24.8153926 25.5567149,24.893905 25.4046488,24.9729339 L27.1788223,24.9729339 C27.1661157,22.7285124 26.5340909,20.5266529 25.3094008,18.5793388 C23.5757231,15.8235537 20.8722107,13.9072314 17.6967975,13.183781 Z" id="Shape"></path>
        </g>
    </g>
</svg>