
<svg width="70px" height="35px" viewBox="0 0 70 35" version="1.1" xmlns="http://www.w3.org/2000/svg" xmlns:xlink="http://www.w3.org/1999/xlink">
    <!-- Generator: Sketch 43.1 (39012) - http://www.bohemiancoding.com/sketch -->
    <desc>Created with Sketch.</desc>
    <defs></defs>
    <g id="Page-1" stroke="none" stroke-width="1" fill="none" fill-rule="evenodd">
        <g id="airplane" fill-rule="nonzero" fill="#000000">
            <path d="M69.3933789,15.3105859 C68.9968945,14.7762891 68.4511133,14.3907422 67.8137305,14.1953711 L60.1801758,11.8682813 L57.8431055,8.30101563 C56.6062109,6.41128906 54.4412695,5.36210938 52.190332,5.56294922 L44.5585547,6.243125 C43.9866602,6.29412109 43.5644727,6.79902344 43.615332,7.37091797 C43.6663281,7.9428125 44.1712305,8.365 44.743125,8.31400391 L52.3750391,7.63382813 C53.6271094,7.52267578 54.8365234,7.99832031 55.6747461,8.89669922 L51.1128516,10.1714648 C50.937168,10.2205469 50.7710547,10.3055859 50.6408984,10.433418 C50.3269922,10.7413086 50.2456445,11.1931641 50.403418,11.57625 C51.2774609,13.6989453 53.3177148,15.018418 55.5273633,15.018418 C55.9402539,15.018418 56.359707,14.972207 56.7779297,14.8766406 L60.2875,14.0745117 L67.2061523,16.1835352 C67.4146484,16.2473828 67.5936133,16.3738477 67.7236328,16.5492578 C67.852832,16.7231641 67.9210547,16.9304297 67.9210547,17.1482227 C67.9210547,17.6071875 67.610293,18.0076367 67.1648633,18.1223438 L64.8031836,18.7321094 C57.3258984,20.6612109 49.6403906,21.7154492 41.9268555,21.8777344 L42.5662891,21.4466602 C42.9102734,21.2147852 43.1117969,20.8069531 43.0449414,20.3974805 C42.9614063,19.8858789 42.5224023,19.5227539 42.0181836,19.5227539 L22.9683398,19.5227539 C22.6250391,19.5227539 22.30375,19.6922852 22.1100195,19.9758398 L20.793418,21.9026172 L9.15960938,21.9026172 C5.77910156,21.9026172 2.98566406,19.2582031 2.79972656,15.8824805 L2.13787109,3.82457031 L6.96910156,3.82457031 L9.59259766,10.6870313 C9.75871094,11.12125 10.1921094,11.3922266 10.6559961,11.3512109 L39.9211914,8.74330078 C40.4930859,8.69230469 40.9152734,8.18740234 40.8644141,7.61550781 C40.813418,7.04361328 40.3085156,6.62142578 39.7366211,6.67242188 L33.2222461,7.25292969 L22.8853516,0.284511719 C22.7137695,0.168710938 22.5114258,0.106914063 22.3042969,0.106914063 L13.9161914,0.106914063 C13.6074805,0.106914063 13.3046484,0.228867188 13.1027148,0.462519531 C12.7853906,0.829472656 12.7657031,1.3496875 13.0276562,1.73304688 L17.7419922,8.63242188 L11.2540039,9.21060547 L8.65552734,2.41363281 C8.50171875,2.01113281 8.11535156,1.74521484 7.68441406,1.74521484 L1.05123047,1.74521484 C0.9165625,1.74521484 0.781210938,1.76613281 0.656386719,1.81699219 C0.223671875,1.99376953 -0.0221484375,2.410625 0.001640625,2.84169922 L0.723789063,15.9962305 C0.97015625,20.474043 4.67564453,23.9814258 9.15960938,23.9814258 L19.3725,23.9814258 L18.8379297,24.7638672 C18.514043,25.2378711 18.6357227,25.8848242 19.1097266,26.2087109 C19.5837305,26.5325977 20.2306836,26.410918 20.5545703,25.9369141 L23.5169922,21.6015625 L38.6160742,21.6015625 L21.9860156,32.8127734 L15.8560938,32.8127734 L18.1688281,29.4284375 C18.4927148,28.9544336 18.3710352,28.3074805 17.8970313,27.983457 C17.4230273,27.6595703 16.7760742,27.78125 16.4521875,28.2552539 L13.0450195,33.2413867 C12.8708398,33.4963672 12.8008398,33.8154688 12.8801367,34.1140625 C13.0044141,34.5828711 13.4226367,34.8919922 13.8867969,34.8919922 L22.3041602,34.8919922 C22.5112891,34.8919922 22.7136328,34.8301953 22.8852148,34.7143945 L38.8059766,23.9812891 L39.8308203,23.9812891 C48.4219531,23.9812891 56.9985938,22.8924609 65.3225781,20.7448828 L67.6841211,20.1351172 C69.0476172,19.78375 70.0001367,18.5551953 70.0001367,17.1475391 C70,16.4810352 69.7901367,15.8457031 69.3933789,15.3105859 Z M56.3144531,12.8499219 C55.0599219,13.1363477 53.7977344,12.7126563 52.9744141,11.8101758 L56.9317383,10.7042578 L58.0738867,12.4476953 L56.3144531,12.8499219 Z M15.8556836,2.18654297 L21.9865625,2.18654297 L29.9368945,7.54619141 L20.1159766,8.42132813 L15.8556836,2.18654297 Z" id="Shape"></path>
            <path d="M20.2213867,11.9082031 C18.5591602,11.9082031 17.2066016,13.2607617 17.2066016,14.923125 C17.2066016,16.5854883 18.5590234,17.9380469 20.22125,17.9380469 C21.8834766,17.9380469 23.2358984,16.585625 23.2358984,14.923125 C23.2358984,13.260625 21.8836133,11.9082031 20.2213867,11.9082031 Z M20.22125,15.8586914 C19.7052734,15.8586914 19.2856836,15.4389648 19.2856836,14.9229883 C19.2856836,14.4070117 19.7052734,13.9872852 20.22125,13.9872852 C20.7372266,13.9872852 21.1568164,14.4071484 21.1568164,14.9229883 C21.1568164,15.4389648 20.7372266,15.8586914 20.22125,15.8586914 Z" id="Shape"></path>
            <path d="M28.8062305,11.6309375 C27.1440039,11.6309375 25.791582,12.9834961 25.791582,14.6458594 C25.791582,16.3082227 27.1440039,17.6605078 28.8062305,17.6605078 C30.468457,17.6605078 31.8208789,16.3082227 31.8208789,14.6458594 C31.8208789,12.9834961 30.468457,11.6309375 28.8062305,11.6309375 Z M28.8062305,15.5812891 C28.2902539,15.5812891 27.8706641,15.1615625 27.8706641,14.6457227 C27.8706641,14.1297461 28.2902539,13.7100195 28.8062305,13.7100195 C29.322207,13.7100195 29.7417969,14.1298828 29.7417969,14.6457227 C29.7417969,15.1615625 29.322207,15.5812891 28.8062305,15.5812891 Z" id="Shape"></path>
            <path d="M37.7462695,11.2153125 C36.084043,11.2153125 34.7314844,12.5675977 34.7314844,14.2299609 C34.7314844,15.8923242 36.0839062,17.2448828 37.7462695,17.2448828 C39.4084961,17.2448828 40.760918,15.8924609 40.760918,14.2299609 C40.760918,12.5675977 39.4084961,11.2153125 37.7462695,11.2153125 Z M37.7462695,15.1656641 C37.230293,15.1656641 36.8107031,14.7459375 36.8107031,14.2299609 C36.8107031,13.7141211 37.230293,13.2943945 37.7462695,13.2943945 C38.2622461,13.2943945 38.6818359,13.7141211 38.6818359,14.2299609 C38.6818359,14.7459375 38.2622461,15.1656641 37.7462695,15.1656641 Z" id="Shape"></path>
        </g>
    </g>
</svg>