
<svg width="48px" height="35px" viewBox="0 0 48 35" version="1.1" xmlns="http://www.w3.org/2000/svg" xmlns:xlink="http://www.w3.org/1999/xlink">
    <!-- Generator: Sketch 43.1 (39012) - http://www.bohemiancoding.com/sketch -->
    <desc>Created with Sketch.</desc>
    <defs></defs>
    <g id="Page-1" stroke="none" stroke-width="1" fill="none" fill-rule="evenodd">
        <g id="bus" fill-rule="nonzero" fill="#000000">
            <path d="M10.3262101,23.854641 C9.01240691,23.854641 7.94323138,24.9238165 7.94323138,26.2376197 C7.94323138,27.5514229 9.01240691,28.6205984 10.3262101,28.6205984 C11.6400133,28.6205984 12.7091888,27.5514229 12.7091888,26.2376197 C12.7091888,24.9238165 11.6400133,23.854641 10.3262101,23.854641 Z M10.3262101,27.0319149 C9.88852394,27.0319149 9.53191489,26.6753059 9.53191489,26.2376197 C9.53191489,25.7999335 9.88852394,25.4433245 10.3262101,25.4433245 C10.7638963,25.4433245 11.1205053,25.7999335 11.1205053,26.2376197 C11.1205984,26.6753059 10.7638963,27.0319149 10.3262101,27.0319149 Z" id="Shape"></path>
            <path d="M42.0993218,0.0248537234 L2.38297872,0.0248537234 C1.06917553,0.0248537234 0,1.09402926 0,2.40783245 L0,24.6489362 C0,25.9627394 1.06917553,27.0319149 2.38297872,27.0319149 C2.82140957,27.0319149 3.17727394,26.6760505 3.17727394,26.2376197 C3.17727394,25.7991888 2.82140957,25.4433245 2.38297872,25.4433245 C1.94529255,25.4433245 1.58868351,25.0867154 1.58868351,24.6490293 L1.58868351,22.2660505 L2.38297872,22.2660505 C2.82140957,22.2660505 3.17727394,21.9101862 3.17727394,21.4717553 C3.17727394,21.0333245 2.82140957,20.6774601 2.38297872,20.6774601 L1.58868351,20.6774601 L1.58868351,2.40783245 C1.58868351,1.97014628 1.94529255,1.61353723 2.38297872,1.61353723 L36.5389761,1.61353723 L36.5389761,3.20212766 L3.97166223,3.20212766 C3.53323138,3.20212766 3.17736702,3.55799202 3.17736702,3.99642287 C3.17736702,4.43485372 3.53323138,4.79071809 3.97166223,4.79071809 L4.76595745,4.79071809 L4.76595745,14.322633 L3.97166223,14.322633 C3.53323138,14.322633 3.17736702,14.6784973 3.17736702,15.1169282 C3.17736702,15.555359 3.53323138,15.9112234 3.97166223,15.9112234 L36.5390691,15.9112234 L36.5390691,19.0884973 C36.5390691,19.5269282 36.8949335,19.8827926 37.3333644,19.8827926 C37.7717952,19.8827926 38.1276596,19.5269282 38.1276596,19.0884973 L38.1276596,15.9112234 L46.070891,15.9112234 L46.070891,20.6771809 L45.2765957,20.6771809 C44.8381649,20.6771809 44.4823005,21.0330452 44.4823005,21.4714761 C44.4823005,21.9099069 44.8381649,22.2657713 45.2765957,22.2657713 L46.070891,22.2657713 L46.070891,24.64875 C46.070891,25.0864362 45.7142819,25.4430452 45.2765957,25.4430452 L42.8300399,25.4430452 C42.4431782,22.7526995 40.1293617,20.6770878 37.3332713,20.6770878 C34.267141,20.6770878 31.7730186,23.1713032 31.7730186,26.2373404 C31.7730186,29.3034707 34.267234,31.7975931 37.3332713,31.7975931 C40.1292686,31.7975931 42.4431782,29.7219814 42.8300399,27.0316356 L45.2765957,27.0316356 C46.5903989,27.0316356 47.6595745,25.9624601 47.6595745,24.6486569 L47.6595745,5.58510638 C47.6595745,2.46740691 45.2170213,0.0248537234 42.0993218,0.0248537234 Z M12.7091888,14.3227261 L6.35464096,14.3227261 L6.35464096,4.79081117 L12.7092819,4.79081117 L12.7092819,14.3227261 L12.7091888,14.3227261 Z M20.6525133,14.3227261 L14.2978723,14.3227261 L14.2978723,4.79081117 L20.6525133,4.79081117 L20.6525133,14.3227261 Z M28.5957447,14.3227261 L22.2411037,14.3227261 L22.2411037,4.79081117 L28.5957447,4.79081117 L28.5957447,14.3227261 Z M36.5389761,14.3227261 L30.1843351,14.3227261 L30.1843351,4.79081117 L36.5389761,4.79081117 L36.5389761,14.3227261 Z M37.3333644,30.2091888 C35.1434441,30.2091888 33.3617021,28.4275399 33.3617021,26.2375266 C33.3617021,24.0476064 35.1433511,22.2658644 37.3333644,22.2658644 C39.5232846,22.2658644 41.3050266,24.0475133 41.3050266,26.2375266 C41.3049335,28.4275399 39.5232846,30.2091888 37.3333644,30.2091888 Z M46.070891,14.3227261 L43.3844548,14.3227261 L44.3988032,12.2947739 C44.5950266,11.9024202 44.4353856,11.4258245 44.0429388,11.2296011 C43.6497473,11.0317952 43.1731516,11.1922739 42.9769282,11.5846277 L41.6082979,14.322633 L38.1276596,14.322633 L38.1276596,1.61344415 L42.0993218,1.61344415 C44.3639894,1.61344415 46.070984,3.32043883 46.070984,5.58510638 L46.070984,14.3227261 L46.070891,14.3227261 Z" id="Shape"></path>
            <path d="M30.1844282,26.2376197 C30.1844282,25.7991888 29.8285638,25.4433245 29.390133,25.4433245 L15.8229787,25.4433245 C15.436117,22.7529787 13.1223005,20.677367 10.3262101,20.677367 C7.26007979,20.677367 4.76595745,23.1715824 4.76595745,26.2376197 C4.76595745,29.30375 7.26017287,31.7978723 10.3262101,31.7978723 C13.1222074,31.7978723 15.436117,29.7222606 15.8229787,27.0319149 L29.3900399,27.0319149 C29.8285638,27.0319149 30.1844282,26.6760505 30.1844282,26.2376197 Z M10.3262101,30.2091888 C8.13628989,30.2091888 6.35454787,28.4275399 6.35454787,26.2375266 C6.35454787,24.0476064 8.13619681,22.2658644 10.3262101,22.2658644 C12.5161303,22.2658644 14.2978723,24.0475133 14.2978723,26.2375266 C14.2978723,28.4275399 12.5162234,30.2091888 10.3262101,30.2091888 Z" id="Shape"></path>
            <path d="M37.3333644,23.854641 C36.0195612,23.854641 34.9503856,24.9238165 34.9503856,26.2376197 C34.9503856,27.5514229 36.0195612,28.6205984 37.3333644,28.6205984 C38.6471676,28.6205984 39.7163431,27.5514229 39.7163431,26.2376197 C39.7163431,24.9238165 38.6471676,23.854641 37.3333644,23.854641 Z M37.3333644,27.0319149 C36.8956782,27.0319149 36.5390691,26.6753059 36.5390691,26.2376197 C36.5390691,25.7999335 36.8956782,25.4433245 37.3333644,25.4433245 C37.7710505,25.4433245 38.1276596,25.7999335 38.1276596,26.2376197 C38.1276596,26.6753059 37.7710505,27.0319149 37.3333644,27.0319149 Z" id="Shape"></path>
            <path d="M11.9148936,33.3865559 L0.794295213,33.3865559 C0.355864362,33.3865559 0,33.7424202 0,34.1808511 C0,34.6192819 0.355864362,34.9751463 0.794295213,34.9751463 L11.9148936,34.9751463 C12.3533245,34.9751463 12.7091888,34.6192819 12.7091888,34.1808511 C12.7091888,33.7424202 12.3533245,33.3865559 11.9148936,33.3865559 Z" id="Shape"></path>
            <path d="M30.9787234,33.3865559 L29.3900399,33.3865559 C28.951609,33.3865559 28.5957447,33.7424202 28.5957447,34.1808511 C28.5957447,34.6192819 28.951609,34.9751463 29.3900399,34.9751463 L30.9787234,34.9751463 C31.4171543,34.9751463 31.7730186,34.6192819 31.7730186,34.1808511 C31.7730186,33.7424202 31.4171543,33.3865559 30.9787234,33.3865559 Z" id="Shape"></path>
            <path d="M46.8652793,33.3865559 L34.1559973,33.3865559 C33.7175665,33.3865559 33.3617021,33.7424202 33.3617021,34.1808511 C33.3617021,34.6192819 33.7175665,34.9751463 34.1559973,34.9751463 L46.8651862,34.9751463 C47.303617,34.9751463 47.6594814,34.6192819 47.6594814,34.1808511 C47.6594814,33.7424202 47.3037101,33.3865559 46.8652793,33.3865559 Z" id="Shape"></path>
            <path d="M24.6240824,33.3865559 L16.6808511,33.3865559 C16.2424202,33.3865559 15.8865559,33.7424202 15.8865559,34.1808511 C15.8865559,34.6192819 16.2424202,34.9751463 16.6808511,34.9751463 L24.6240824,34.9751463 C25.0625133,34.9751463 25.4183777,34.6192819 25.4183777,34.1808511 C25.4183777,33.7424202 25.0626064,33.3865559 24.6240824,33.3865559 Z" id="Shape"></path>
            <path d="M30.9787234,22.2659574 C31.4171543,22.2659574 31.7730186,21.9100931 31.7730186,21.4716622 C31.7730186,21.0332314 31.4171543,20.677367 30.9787234,20.677367 L16.6808511,20.677367 C16.2424202,20.677367 15.8865559,21.0332314 15.8865559,21.4716622 C15.8865559,21.9100931 16.2424202,22.2659574 16.6808511,22.2659574 L30.9787234,22.2659574 Z" id="Shape"></path>
        </g>
    </g>
</svg>