
<svg width="28px" height="13px" viewBox="0 0 28 13" version="1.1" xmlns="http://www.w3.org/2000/svg" xmlns:xlink="http://www.w3.org/1999/xlink">
    <!-- Generator: Sketch 43.1 (39012) - http://www.bohemiancoding.com/sketch -->
    <desc>Created with Sketch.</desc>
    <defs></defs>
    <g id="Page-1" stroke="none" stroke-width="1" fill="none" fill-rule="evenodd">
        <g id="houseboat" fill-rule="nonzero" fill="#000000">
            <path d="M10.6514226,5.81386611 L8.95267782,5.81386611 C8.75861088,5.81386611 8.60121339,5.9712636 8.60121339,6.16533054 L8.60121339,8.09838494 C8.60121339,8.29245188 8.75861088,8.44984937 8.95267782,8.44984937 L10.6514226,8.44984937 C10.8454895,8.44984937 11.002887,8.29245188 11.002887,8.09838494 L11.002887,6.16533054 C11.002887,5.97120502 10.8454895,5.81386611 10.6514226,5.81386611 Z M10.2999582,7.7469205 L9.30414226,7.7469205 L9.30414226,6.51679498 L10.2999582,6.51679498 L10.2999582,7.7469205 Z" id="Shape"></path>
            <path d="M13.7853138,8.44984937 L15.4840586,8.44984937 C15.6781255,8.44984937 15.835523,8.29245188 15.835523,8.09838494 L15.835523,6.16533054 C15.835523,5.9712636 15.6781255,5.81386611 15.4840586,5.81386611 L13.7853138,5.81386611 C13.5912469,5.81386611 13.4338494,5.9712636 13.4338494,6.16533054 L13.4338494,8.09838494 C13.4338494,8.29245188 13.5911883,8.44984937 13.7853138,8.44984937 Z M14.1367782,6.51679498 L15.1325941,6.51679498 L15.1325941,7.7469205 L14.1367782,7.7469205 L14.1367782,6.51679498 L14.1367782,6.51679498 Z" id="Shape"></path>
            <path d="M20.4924268,5.81386611 L18.793682,5.81386611 C18.5996151,5.81386611 18.4422176,5.9712636 18.4422176,6.16533054 L18.4422176,8.09838494 C18.4422176,8.29245188 18.5996151,8.44984937 18.793682,8.44984937 L20.4924268,8.44984937 C20.6864937,8.44984937 20.8438912,8.29245188 20.8438912,8.09838494 L20.8438912,6.16533054 C20.8438912,5.97120502 20.6864937,5.81386611 20.4924268,5.81386611 Z M20.1409623,7.7469205 L19.1451464,7.7469205 L19.1451464,6.51679498 L20.1409623,6.51679498 L20.1409623,7.7469205 Z" id="Shape"></path>
            <path d="M27.9322259,11.9268285 C27.8253222,11.7648619 27.6074728,11.7201088 27.445272,11.8270711 C27.3943096,11.8606946 27.3414728,11.8900418 27.2874059,11.9158159 L27.2874059,1.7134477 C27.2874059,1.51938075 27.1300084,1.36198326 26.9359414,1.36198326 L25.0614644,1.36198326 L25.0614644,0.659054393 C25.0614644,0.464987448 24.9040669,0.307589958 24.71,0.307589958 L22.9474059,0.307589958 C22.9194644,0.141464435 22.7753054,0.0147029289 22.6012134,0.0147029289 C22.4271213,0.0147029289 22.2829623,0.141464435 22.2550209,0.307589958 L20.0478243,0.307589958 C20.0198828,0.141464435 19.8757238,0.0147029289 19.7016318,0.0147029289 C19.5275397,0.0147029289 19.3833808,0.141464435 19.3554393,0.307589958 L17.1482427,0.307589958 C17.1203013,0.141464435 16.9761423,0.0147029289 16.8020502,0.0147029289 C16.6279582,0.0147029289 16.4837992,0.141464435 16.4558577,0.307589958 L14.2486611,0.307589958 C14.2207197,0.141464435 14.0765607,0.0147029289 13.9024686,0.0147029289 C13.7283766,0.0147029289 13.5842176,0.141464435 13.5562762,0.307589958 L11.3490795,0.307589958 C11.3211381,0.141464435 11.1769791,0.0147029289 11.002887,0.0147029289 C10.828795,0.0147029289 10.684636,0.141464435 10.6566946,0.307589958 L9.06983264,0.307589958 C8.87576569,0.307589958 8.7183682,0.464987448 8.7183682,0.659054393 L8.7183682,1.36198326 L7.13677824,1.36198326 C6.97492887,1.36198326 6.83405021,1.47246025 6.7954477,1.62962343 L5.97536402,4.96853556 C5.94964854,5.07338912 5.97348954,5.18427615 6.04009205,5.26921339 C6.10669456,5.35415063 6.2087364,5.40382427 6.31669456,5.40382427 L6.96104603,5.40382427 L6.96104603,8.684159 L3.10079498,8.684159 C3.02224268,8.684159 2.94691213,8.65586611 2.88728033,8.60332218 C2.82864435,8.5521841 2.7909205,8.48153975 2.7805523,8.40099582 C2.77885356,8.38887029 2.77803347,8.37586611 2.77803347,8.36139749 C2.77803347,8.18408368 2.92283682,8.03980753 3.10079498,8.03980753 C3.31993305,8.03980753 3.5248954,7.95440167 3.67450209,7.80268619 C3.82955649,7.64968201 3.91502092,7.44471967 3.91502092,7.22558159 C3.91502092,6.92519665 3.79821757,6.64390795 3.588159,6.43560669 C3.37780753,6.22355649 3.09651883,6.10675314 2.79613389,6.10675314 C2.15682008,6.10675314 1.55517155,6.35582427 1.10172385,6.80851046 C0.649389121,7.26154812 0.400317992,7.86319665 0.400317992,8.50256904 C0.400317992,9.76303766 0.793899582,10.9932218 1.51545607,12.016569 C1.18595816,12.0824686 0.836953975,12.0197322 0.545121339,11.8270711 C0.382979079,11.7201674 0.165188285,11.7648033 0.058167364,11.9267699 C-0.0487364017,12.088795 -0.00410041841,12.3067615 0.157866109,12.4137238 C0.827991632,12.8561004 1.69411715,12.8561004 2.36424268,12.4137238 C2.79923849,12.1266946 3.3612887,12.1266946 3.79616736,12.4137238 C4.1312887,12.6349121 4.5152636,12.7455063 4.89935565,12.7454477 C5.28338912,12.7454477 5.66748117,12.6348536 6.00248536,12.4137238 C6.43753975,12.1266946 6.99958996,12.1266946 7.43441004,12.4137238 C8.1047113,12.8561004 8.97083682,12.8561004 9.64078661,12.4137238 C10.0757238,12.1266946 10.6378326,12.1266946 11.0727699,12.4137238 C11.7428954,12.8561004 12.6090795,12.8561004 13.2790879,12.4137238 C13.7139665,12.1267531 14.2760167,12.126636 14.7110711,12.4137238 C15.3811381,12.8559833 16.247205,12.856159 16.9173891,12.4137238 C17.3523264,12.1267531 17.9143766,12.126636 18.3493724,12.4137238 C19.0194393,12.8559833 19.8855063,12.8561004 20.5556904,12.4137238 C20.990569,12.1267531 21.5526192,12.126636 21.9876736,12.4137238 C22.6577406,12.8559833 23.5238075,12.856159 24.1939916,12.4137238 C24.6289289,12.1267531 25.1910377,12.126636 25.6259163,12.4137238 C26.2960418,12.8559833 27.1621674,12.8561004 27.8322929,12.4137238 C27.9944351,12.3068787 28.0391297,12.088795 27.9322259,11.9268285 Z M16.7239079,5.40382427 L16.7239079,8.684159 L12.5454059,8.684159 L12.5454059,5.40382427 L16.7239079,5.40382427 L16.7239079,5.40382427 Z M17.4268368,5.40382427 L21.6053975,5.40382427 L21.6053975,8.684159 L17.4268368,8.684159 L17.4268368,5.40382427 Z M23.9484937,6.28248536 L24.9443096,6.28248536 L24.9443096,6.98541423 L23.9484937,6.98541423 L23.9484937,6.28248536 Z M23.5970293,7.6883431 L25.2957741,7.6883431 C25.489841,7.6883431 25.6472385,7.53094561 25.6472385,7.33687866 L25.6472385,6.28248536 L26.584477,6.28248536 L26.584477,8.684159 L22.3083264,8.684159 L22.3083264,6.28248536 L23.2455649,6.28248536 L23.2455649,7.33687866 C23.2455649,7.53094561 23.4029038,7.6883431 23.5970293,7.6883431 Z M26.584477,5.57955649 L22.3083264,5.57955649 L22.3083264,4.34943096 L26.584477,4.34943096 L26.584477,5.05235983 L26.584477,5.57955649 Z M9.42129707,1.01051883 L10.6514226,1.01051883 L10.6514226,1.42056067 C10.6514226,1.61462762 10.8088201,1.7720251 11.002887,1.7720251 C11.196954,1.7720251 11.3543515,1.61462762 11.3543515,1.42056067 L11.3543515,1.01051883 L13.5510042,1.01051883 L13.5510042,1.42056067 C13.5510042,1.61462762 13.7084017,1.7720251 13.9024686,1.7720251 C14.0965356,1.7720251 14.2539331,1.61462762 14.2539331,1.42056067 L14.2539331,1.01051883 L16.4505858,1.01051883 L16.4505858,1.42056067 C16.4505858,1.61462762 16.6079833,1.7720251 16.8020502,1.7720251 C16.9961172,1.7720251 17.1535146,1.61462762 17.1535146,1.42056067 L17.1535146,1.01051883 L19.3501674,1.01051883 L19.3501674,1.42056067 C19.3501674,1.61462762 19.5075649,1.7720251 19.7016318,1.7720251 C19.8956987,1.7720251 20.0530962,1.61462762 20.0530962,1.42056067 L20.0530962,1.01051883 L22.249749,1.01051883 L22.249749,1.42056067 C22.249749,1.61462762 22.4071464,1.7720251 22.6012134,1.7720251 C22.7952803,1.7720251 22.9526778,1.61462762 22.9526778,1.42056067 L22.9526778,1.01051883 L24.3585356,1.01051883 L24.3585356,2.35779916 L9.42129707,2.35779916 L9.42129707,1.01051883 L9.42129707,1.01051883 Z M7.41238494,2.06491213 L8.7183682,2.06491213 L8.7183682,2.7092636 C8.7183682,2.90333054 8.87576569,3.06072803 9.06983264,3.06072803 L24.71,3.06072803 C24.9040669,3.06072803 25.0614644,2.90333054 25.0614644,2.7092636 L25.0614644,2.06491213 L26.584477,2.06491213 L26.584477,3.64650209 L21.9568619,3.64650209 C21.762795,3.64650209 21.6053975,3.80389958 21.6053975,3.99796653 L21.6053975,4.7008954 L6.76492887,4.7008954 L7.41238494,2.06491213 Z M7.6639749,5.40382427 L11.842477,5.40382427 L11.842477,8.684159 L7.6639749,8.684159 L7.6639749,5.40382427 Z M23.8069707,11.8270711 C23.3719749,12.114159 22.8099247,12.1141004 22.3749874,11.8270711 C21.7049205,11.3847531 20.838795,11.3849289 20.1686109,11.8270711 C19.7337322,12.114159 19.1716234,12.1141004 18.7366862,11.8270711 C18.0666192,11.3847531 17.2004351,11.3849289 16.5303682,11.8270711 C16.0953724,12.114159 15.5333222,12.1141004 15.0983849,11.8270711 C14.428318,11.3847531 13.5621925,11.3849289 12.8920084,11.8270711 C12.4571297,12.1142176 11.8950209,12.1141004 11.4600837,11.8270711 C10.7900167,11.3847531 9.92389121,11.3847531 9.25370711,11.8270711 C8.81882845,12.1142176 8.25671967,12.1141004 7.82178243,11.8270711 C7.15171548,11.3847531 6.28558996,11.3847531 5.61540586,11.8270711 C5.1805272,12.1142176 4.61847699,12.1141004 4.18353975,11.8270711 C3.57497908,11.4254059 2.80533054,11.3897908 2.16712971,11.7176485 C1.479841,10.7920084 1.10342259,9.66193305 1.10342259,8.50256904 C1.10342259,8.05076151 1.27956485,7.62548954 1.59892887,7.30553975 C1.9192887,6.98576569 2.34450209,6.80962343 2.79625105,6.80962343 C2.90778243,6.80962343 3.0118159,6.85256067 3.09118828,6.93263598 C3.16921339,7.01001674 3.21215063,7.11405021 3.21215063,7.22558159 C3.21215063,7.2654728 3.1925272,7.29071967 3.1774728,7.30559833 C3.16599163,7.31725523 3.14074477,7.33682008 3.10079498,7.33682008 C2.53523013,7.33682008 2.0751046,7.79641841 2.0751046,8.36133891 C2.0751046,8.40779079 2.07820921,8.45359833 2.08377406,8.49419247 C2.11575732,8.74191632 2.23695397,8.96872803 2.42375732,9.13174895 C2.61050209,9.29641004 2.85096234,9.38702929 3.10079498,9.38702929 L26.584477,9.38702929 L26.584477,12.0333808 C26.3845523,12.0109456 26.1885523,11.9427029 26.0132887,11.8270126 C25.3431046,11.3847531 24.4769791,11.3849289 23.8069707,11.8270711 Z" id="Shape"></path>
        </g>
    </g>
</svg>