
<svg width="31px" height="25px" viewBox="0 0 31 25" version="1.1" xmlns="http://www.w3.org/2000/svg" xmlns:xlink="http://www.w3.org/1999/xlink">
    <!-- Generator: Sketch 43.1 (39012) - http://www.bohemiancoding.com/sketch -->
    <desc>Created with Sketch.</desc>
    <defs></defs>
    <g id="Page-1" stroke="none" stroke-width="1" fill="none" fill-rule="evenodd">
        <g id="bell-covering-hot-dish" fill-rule="nonzero" fill="#000000">
            <path d="M21.6244118,9.81617647 C21.7194118,9.96308824 21.8789706,10.0430882 22.0417647,10.0430882 C22.1341176,10.0430882 22.2275,10.0173529 22.3107353,9.96352941 C22.5407353,9.81470588 22.6069118,9.5075 22.4580882,9.27720588 C22.4427941,9.25367647 20.9147059,6.82941176 22.2111765,5.17661765 C22.9277941,4.26308824 23.0529412,3.11235294 22.5733824,1.84882353 C22.2308824,0.946470588 21.6945588,0.299558824 21.6719118,0.2725 C21.4961765,0.0622058824 21.1830882,0.0342647059 20.9727941,0.210147059 C20.7625,0.385882353 20.7347059,0.698382353 20.9098529,0.908676471 C20.9339706,0.937941176 22.6347059,3.02808824 21.43,4.56397059 C19.6952941,6.77588235 21.5448529,9.69308824 21.6244118,9.81617647 Z" id="Shape"></path>
            <path d="M24.9557353,9.81617647 C25.0507353,9.96308824 25.2101471,10.0430882 25.3729412,10.0430882 C25.4652941,10.0430882 25.5586765,10.0173529 25.6420588,9.96352941 C25.8722059,9.81470588 25.9382353,9.5075 25.7894118,9.27720588 C25.7742647,9.25367647 24.2460294,6.82941176 25.5425,5.17661765 C26.2591176,4.26308824 26.3842647,3.11235294 25.9047059,1.84882353 C25.5620588,0.946470588 25.0257353,0.299558824 25.0030882,0.2725 C24.8275,0.0622058824 24.5142647,0.0342647059 24.3039706,0.210147059 C24.0939706,0.385735294 24.0658824,0.698235294 24.2410294,0.908529412 C24.2583824,0.929558824 25.9683824,3.025 24.7611765,4.56397059 C23.0264706,6.77588235 24.8761765,9.69308824 24.9557353,9.81617647 Z" id="Shape"></path>
            <path d="M4.11514706,10.0461765 C4.21014706,10.1930882 4.36955882,10.2730882 4.53235294,10.2730882 C4.62470588,10.2730882 4.71808824,10.2473529 4.80132353,10.1935294 C5.03147059,10.0447059 5.0975,9.73735294 4.94852941,9.50720588 C4.93338235,9.48367647 3.40514706,7.05941176 4.70176471,5.40661765 C5.41838235,4.49308824 5.54352941,3.34235294 5.06397059,2.07882353 C4.72132353,1.17647059 4.18514706,0.529558824 4.1625,0.5025 C3.98676471,0.292205882 3.67382353,0.264264706 3.46338235,0.440147059 C3.25338235,0.615735294 3.22529412,0.928235294 3.40044118,1.13852941 C3.41794118,1.15955882 5.12779412,3.255 3.92073529,4.79397059 C2.18573529,7.00588235 4.03544118,9.92294118 4.11514706,10.0461765 Z" id="Shape"></path>
            <path d="M7.44632353,10.0461765 C7.54132353,10.1930882 7.70073529,10.2730882 7.86352941,10.2730882 C7.95588235,10.2730882 8.04926471,10.2473529 8.13264706,10.1935294 C8.36279412,10.0447059 8.42882353,9.73735294 8.27985294,9.50720588 C8.26470588,9.48367647 6.73661765,7.05941176 8.03308824,5.40661765 C8.74970588,4.49308824 8.87485294,3.34235294 8.39544118,2.07882353 C8.05294118,1.17647059 7.51661765,0.529558824 7.49397059,0.5025 C7.31823529,0.292205882 7.00529412,0.264264706 6.79485294,0.440147059 C6.58485294,0.615735294 6.55676471,0.928235294 6.73191176,1.13852941 C6.74941176,1.15955882 8.45926471,3.255 7.25205882,4.79397059 C5.51705882,7.00588235 7.36676471,9.92294118 7.44632353,10.0461765 Z" id="Shape"></path>
            <path d="M28.3652941,21.0019118 L27.3125,21.0019118 C27.0652941,14.8102941 22.2166176,9.78279412 16.1007353,9.25191176 L16.1007353,8.74647059 C16.7217647,8.375 17.1073529,7.70911765 17.1073529,6.96882353 C17.1073529,5.82294118 16.1748529,4.89058824 15.0289706,4.89058824 L14.9841176,4.89058824 C13.8380882,4.89058824 12.9057353,5.82294118 12.9057353,6.96882353 C12.9057353,7.70911765 13.2914706,8.37514706 13.9122059,8.74647059 L13.9122059,9.25191176 C7.79632353,9.78279412 2.94764706,14.8102941 2.70044118,21.0019118 L1.64764706,21.0019118 C0.739117647,21.0019118 0,21.7410294 0,22.6494118 L0,23.27 C0,24.1791176 0.739117647,24.9185294 1.6475,24.9185294 L28.3654412,24.9185294 C29.2739706,24.9185294 30.0129412,24.1791176 30.0129412,23.27 L30.0129412,22.6494118 C30.0127941,21.7410294 29.2736765,21.0019118 28.3652941,21.0019118 Z M13.8980882,6.96882353 C13.8980882,6.37029412 14.3851471,5.88323529 14.9838235,5.88323529 L15.0286765,5.88323529 C15.6273529,5.88323529 16.1144118,6.37029412 16.1144118,6.96882353 C16.1144118,7.41632353 15.8429412,7.81220588 15.4227941,7.97705882 C15.2327941,8.05161765 15.1079412,8.235 15.1079412,8.43911765 L15.1079412,9.20544118 L14.9045588,9.20544118 L14.9045588,8.43911765 C14.9045588,8.235 14.7795588,8.05176471 14.5897059,7.97705882 C14.1695588,7.81205882 13.8980882,7.41632353 13.8980882,6.96882353 Z M29.0201471,23.2698529 C29.0201471,23.6314706 28.7263235,23.9257353 28.3652941,23.9257353 L1.64735294,23.9257353 C1.28617647,23.9257353 0.9925,23.6314706 0.9925,23.2698529 L0.9925,22.6492647 C0.9925,22.2882353 1.28632353,21.9945588 1.64735294,21.9945588 L2.46338235,21.9945588 C2.46794118,21.9947059 2.47220588,21.9952941 2.47676471,21.9952941 L20.3004412,21.9952941 C20.5744118,21.9952941 20.7967647,21.7730882 20.7967647,21.4989706 C20.7967647,21.225 20.5744118,21.0026471 20.3004412,21.0026471 L3.69441176,21.0026471 C3.95411765,15.0155882 8.89382353,10.2220588 14.9380882,10.1979412 L15.0745588,10.1979412 C21.1191176,10.2220588 26.0583824,15.0155882 26.3182353,21.0026471 L23.5105882,21.0026471 C23.2364706,21.0026471 23.0142647,21.225 23.0142647,21.4989706 C23.0142647,21.7730882 23.2364706,21.9952941 23.5105882,21.9952941 L27.3433824,21.9945588 L28.3651471,21.9945588 C28.7263235,21.9945588 29.02,22.2882353 29.02,22.6492647 L29.02,23.2698529 L29.0201471,23.2698529 Z" id="Shape"></path>
        </g>
    </g>
</svg>