
<svg width="30px" height="30px" viewBox="0 0 30 30" version="1.1" xmlns="http://www.w3.org/2000/svg" xmlns:xlink="http://www.w3.org/1999/xlink">
    <!-- Generator: Sketch 43.1 (39012) - http://www.bohemiancoding.com/sketch -->
    <desc>Created with Sketch.</desc>
    <defs></defs>
    <g id="Page-1" stroke="none" stroke-width="1" fill="none" fill-rule="evenodd">
        <g id="meals" fill-rule="nonzero">
            <g id="Group" transform="translate(0.585938, 0.527344)" fill="#8CCEEA">
                <path d="M12.5146289,2.28544922 L12.5146289,1.95802734 C12.5146289,0.908964844 13.3650586,0.0585351563 14.4141211,0.0585351563 C15.4631836,0.0585351563 16.3136133,0.908964844 16.3136133,1.95802734 L16.3136133,2.28544922 L12.5146289,2.28544922 Z" id="Shape"></path>
                <path d="M23.2818164,15.7617188 L28.8280664,15.7617188 L28.8280664,15.7617188 C28.8280664,17.5091602 27.4114453,18.9257812 25.6640039,18.9257812 L3.16423828,18.9257812 C1.41679687,18.9257812 0.00017578125,17.5091602 0.00017578125,15.7617188 L0.00017578125,15.7617188 L3.16423828,15.7617188 L23.2818164,15.7617188 Z" id="Shape"></path>
            </g>
            <path d="M26.9305078,19.9704492 L26.9305078,19.9704492 C26.4841992,19.5860742 25.8306445,19.5638086 25.3591992,19.9168945 L22.2769336,22.2251953 C21.0833789,23.119043 19.6108008,23.5591406 18.1225781,23.4668555 L17.6194336,23.4356836 L17.6013867,23.4343945 C17.6274023,23.3919727 17.6519531,23.3483789 17.6738086,23.3026172 C18.0356836,22.5448242 17.673457,21.6395508 16.8887695,21.3404883 L12.7014258,19.7446875 C11.6830078,19.3565625 10.5556641,19.3669922 9.54457031,19.7738672 L5.09794922,21.5633789 L7.05416016,26.0915039 L17.3671289,28.4321484 C18.5736328,28.5213281 19.7656641,28.1239453 20.6772656,27.3285937 L22.3767773,25.8457617 L25.2285937,23.3575781 L26.9368945,21.8670703 C27.5122852,21.3648633 27.5094141,20.4690234 26.9305078,19.9704492 Z" id="Shape" fill="#FCCDAC"></path>
            <rect id="Rectangle-path" fill="#657FC9" transform="translate(4.217176, 24.668441) rotate(-25.842454) translate(-4.217176, -24.668441) " x="2.28357351" y="20.3325134" width="3.86720453" height="8.67185461"></rect>
            <path d="M1.87517578,16.2890625 C1.87517578,9.04037109 7.75136719,3.16417969 15.0000586,3.16417969 L15.0000586,3.16417969 C22.24875,3.16417969 28.1249414,9.04037109 28.1249414,16.2890625 L1.87517578,16.2890625 Z" id="Shape" fill="#D0E6EF"></path>
            <path d="M16.0994531,8.7609375 C15.6664453,8.7609375 15.275918,8.94978516 15.0000586,9.25242188 C14.7241992,8.94978516 14.3337305,8.7609375 13.9006641,8.7609375 C13.0648242,8.7609375 12.3873047,9.46435547 12.3873047,10.3321289 C12.3873047,11.7948633 15.0000586,13.5352148 15.0000586,13.5352148 C15.0000586,13.5352148 17.6128125,11.7948633 17.6128125,10.3321289 C17.6128125,9.46441406 16.9352344,8.7609375 16.0994531,8.7609375 Z" id="Shape" fill="#F25353"></path>
            <path d="M23.7328125,24.0830859 C23.5787109,24.0830859 23.4275391,24.1452539 23.3185547,24.2541797 C23.2095703,24.36375 23.146875,24.5149219 23.146875,24.6690234 C23.146875,24.823125 23.2095117,24.9742969 23.3185547,25.0832812 C23.4275977,25.1922656 23.5787109,25.2549609 23.7328125,25.2549609 C23.8869141,25.2549609 24.0380859,25.1923242 24.1470117,25.0832812 C24.2559961,24.9742969 24.31875,24.823125 24.31875,24.6690234 C24.31875,24.5149219 24.2560547,24.36375 24.1470117,24.2541797 C24.0380859,24.1451953 23.8869141,24.0830859 23.7328125,24.0830859 Z" id="Shape" fill="#000000"></path>
            <path d="M4.39529297,27.1310742 C4.54939453,27.1310742 4.69998047,27.0683789 4.80955078,26.9593359 C4.91847656,26.8498242 4.98123047,26.6992383 4.98123047,26.5451367 C4.98123047,26.3903906 4.91853516,26.2398633 4.80955078,26.130293 C4.70056641,26.0213086 4.54939453,25.9591992 4.39529297,25.9591992 C4.24119141,25.9591992 4.09001953,26.0213086 3.98103516,26.130293 C3.87210938,26.2398633 3.80935547,26.3903906 3.80935547,26.5451367 C3.80935547,26.6992383 3.87205078,26.8498242 3.98103516,26.9593359 C4.09001953,27.0683789 4.24119141,27.1310742 4.39529297,27.1310742 Z" id="Shape" fill="#000000"></path>
            <path d="M24.9778711,10.4278711 C23.54625,7.91830078 21.1344141,6.03849609 18.3607031,5.27039062 C18.04875,5.18414062 17.7260742,5.36683594 17.6395898,5.67873047 C17.5532227,5.99056641 17.7360352,6.31341797 18.0479297,6.39984375 C20.5256836,7.08597656 22.6804688,8.76585937 23.9599805,11.0085937 C24.0680859,11.1980859 24.2658984,11.3043164 24.4693945,11.3043164 C24.567832,11.3043164 24.6676172,11.2794727 24.7591992,11.227207 C25.0403906,11.0667773 25.1382422,10.7089453 24.9778711,10.4278711 Z" id="Shape" fill="#000000"></path>
            <path d="M15.4192383,6.04423828 L15.4751367,6.04441406 L15.4785937,6.04441406 C15.800625,6.04441406 16.0625977,5.78431641 16.0644727,5.461875 C16.0663477,5.13832031 15.8055469,4.87447266 15.4819336,4.87253906 L15.4192969,4.87236328 C15.0957422,4.87236328 14.8333594,5.13474609 14.8333594,5.45830078 C14.8333594,5.78185547 15.0956836,6.04423828 15.4192383,6.04423828 Z" id="Shape" fill="#000000"></path>
            <path d="M29.9999414,16.2890625 C29.9999414,15.9655078 29.7375586,15.703125 29.4140039,15.703125 L28.6978125,15.703125 C28.5540234,12.2608008 27.1461328,9.04511719 24.6950977,6.59408203 C22.7013867,4.6003125 20.201543,3.29712891 17.4854883,2.80259766 L17.4854883,2.48542969 C17.4854883,1.11492188 16.3705664,0 15.0000586,0 C13.6295508,0 12.5146289,1.11492188 12.5146289,2.48542969 L12.5146289,2.80259766 C9.79857422,3.2971875 7.29873047,4.60037109 5.30501953,6.59408203 C2.85398438,9.04511719 1.44609375,12.2608008 1.30230469,15.703125 L0.586113281,15.703125 C0.262558594,15.703125 0.00017578125,15.9655078 0.00017578125,16.2890625 C0.00017578125,18.0141211 1.17134766,19.4699414 2.76011719,19.9054102 L0.330703125,21.0821484 C0.0394335937,21.2232422 -0.082265625,21.5736914 0.0587695312,21.8649023 C0.199921875,22.1562891 0.550546875,22.2777539 0.841523437,22.1368359 L3.79453125,20.7064453 L7.06400391,27.4562695 L4.11099609,28.8866016 C3.81972656,29.0276367 3.69802734,29.3781445 3.8390625,29.6693555 C3.9403125,29.8783008 4.14925781,30 4.36681641,30 C4.45253906,30 4.53955078,29.9811328 4.621875,29.9412891 L8.10222656,28.2554883 C8.24208984,28.1877539 8.34931641,28.0672266 8.40029297,27.9203906 C8.45126953,27.7736133 8.44189453,27.6125391 8.37416016,27.4726758 L8.09748047,26.9015039 L16.5005273,28.6099219 C16.8936328,28.6898437 17.2913086,28.7289258 17.6876953,28.7289258 C19.1341992,28.7289258 20.5607812,28.2076172 21.6639258,27.2450977 L22.7617383,26.287207 C23.0056055,26.0744531 23.0308008,25.7043164 22.8180469,25.4605078 C22.6052344,25.216582 22.2351562,25.1914453 21.9913477,25.4041992 L20.8935352,26.3620898 C19.7613281,27.3498633 18.2063086,27.7608398 16.7340234,27.461543 L7.455,25.5750586 L5.70029297,21.9524414 L9.76318359,20.3173242 C10.6400391,19.9644141 11.6094141,19.9553906 12.4925977,20.2920117 L16.68,21.8878125 C16.9047656,21.9734766 17.0777344,22.1436328 17.1670898,22.3669336 C17.2564453,22.5903516 17.2485937,22.8328711 17.1449414,23.0499023 C16.9639453,23.4288281 16.5402539,23.6182031 16.1371875,23.4997852 L12.7502344,22.5058594 C12.4399219,22.4150977 12.1141406,22.5925195 12.0229688,22.9030664 C11.9318555,23.2136133 12.1096875,23.5391602 12.4201758,23.630332 L15.8071289,24.6243164 C15.9987305,24.6805078 16.1920898,24.7075195 16.3826367,24.7074609 C16.9542187,24.7074609 17.4985547,24.4644141 17.8802344,24.0387891 L18.0863086,24.0515625 C18.2277539,24.0603516 18.3689062,24.0647461 18.51,24.0647461 C19.9899023,24.0646875 21.4381055,23.5852734 22.6280273,22.6940625 L25.7104102,20.3857617 C25.9597266,20.1989648 26.3120508,20.2110938 26.5480664,20.4143555 C26.6973633,20.5428516 26.7799219,20.7221484 26.780625,20.9191406 C26.7812695,21.1161328 26.6998242,21.2960156 26.5514062,21.4255664 L24.8431055,22.9160742 C24.5992969,23.1288281 24.574043,23.4989648 24.7867969,23.7427734 C24.9995508,23.9866406 25.3696289,24.0117773 25.6134961,23.799082 L27.3217969,22.3085742 C27.7243359,21.9573047 27.9541992,21.4494727 27.9524414,20.9152734 C27.9511523,20.5073438 27.8144531,20.1159375 27.5698242,19.798418 C28.9882031,19.2633398 29.9999414,17.8924219 29.9999414,16.2890625 Z M13.6865039,2.48542969 C13.6865039,1.76115234 14.2757812,1.171875 15.0000586,1.171875 C15.7243359,1.171875 16.3136133,1.76115234 16.3136133,2.48542969 L16.3136133,2.64046875 C15.879668,2.59951172 15.4415039,2.57824219 15.0000586,2.57824219 C14.5586133,2.57824219 14.1204492,2.59945313 13.6865039,2.64046875 L13.6865039,2.48542969 L13.6865039,2.48542969 Z M15.0000586,3.75011719 C21.7175977,3.75011719 27.2177344,9.06011719 27.5248828,15.7030664 L2.47523438,15.7030664 C2.78238281,9.06017578 8.28251953,3.75011719 15.0000586,3.75011719 Z M4.77339844,20.0390039 L7.31607422,20.0390039 L5.18818359,20.8953516 L4.77339844,20.0390039 Z M21.9256055,21.7562109 C20.9058984,22.5197461 19.6579687,22.9184766 18.3880078,22.8911719 C18.4212305,22.5682031 18.3776367,22.2382617 18.255,21.9317578 C18.0457031,21.4086328 17.6237109,20.9935547 17.0971875,20.7928711 L15.1190039,20.0390039 L24.2185547,20.0390039 L21.9256055,21.7562109 Z M26.25,18.8671289 L3.75017578,18.8671289 C2.53007813,18.8671289 1.50521484,18.0152344 1.23919922,16.8749414 L28.7608594,16.8749414 C28.4949609,18.015293 27.4700391,18.8671289 26.25,18.8671289 Z" id="Shape" fill="#000000"></path>
            <path d="M16.0994531,8.175 C15.7093359,8.175 15.3281836,8.28826172 15.0000586,8.49503906 C14.6719336,8.28826172 14.2908398,8.175 13.9006641,8.175 C12.7430859,8.175 11.8013672,9.14267578 11.8013672,10.3320703 C11.8013672,12.0587109 14.3810742,13.8268945 14.6752148,14.0227734 C14.7735938,14.0882812 14.8867969,14.1210937 15.0000586,14.1210937 C15.1133203,14.1210937 15.2265234,14.0882812 15.3249023,14.0227734 C15.619043,13.8268359 18.19875,12.0586523 18.19875,10.3320703 C18.19875,9.14267578 17.2570313,8.175 16.0994531,8.175 Z M15.0008789,12.8176758 C14.1836719,12.2072461 12.9733008,11.0908594 12.9733008,10.3320703 C12.9733008,9.78884766 13.389375,9.346875 13.9007227,9.346875 C14.1539063,9.346875 14.3905664,9.45345703 14.5670508,9.64710937 C14.6780859,9.76892578 14.835293,9.83835937 15.0001172,9.83835937 C15.1649414,9.83835937 15.3221484,9.76892578 15.4331836,9.64710937 C15.609668,9.45345703 15.8463281,9.346875 16.0995117,9.346875 C16.610918,9.346875 17.0269336,9.78884766 17.0269336,10.3320703 C17.026875,11.0371289 15.9306445,12.1279102 15.0008789,12.8176758 Z" id="Shape" fill="#000000"></path>
        </g>
    </g>
</svg>