
<svg width="24px" height="25px" viewBox="0 0 24 25" version="1.1" xmlns="http://www.w3.org/2000/svg" xmlns:xlink="http://www.w3.org/1999/xlink">
    <!-- Generator: Sketch 43.1 (39012) - http://www.bohemiancoding.com/sketch -->
    <desc>Created with Sketch.</desc>
    <defs></defs>
    <g id="Page-1" stroke="none" stroke-width="1" fill="none" fill-rule="evenodd">
        <g id="present" fill-rule="nonzero" fill="#000000">
            <path d="M0.936937901,14.8536403 L1.91970021,14.8536403 L1.91970021,24.1038009 C1.91970021,24.618576 2.29405782,24.9929336 2.80883298,24.9929336 L20.6852248,24.9929336 C21.2,24.9929336 21.5743576,24.618576 21.5743576,24.1038009 L21.5743576,14.8536403 L22.5570664,14.8536403 C23.0718415,14.8536403 23.4461991,14.4948608 23.4461991,13.9645075 L23.4461991,7.50658458 C23.4461991,6.99180942 23.0718415,6.58624197 22.5570664,6.58624197 L18.1581906,6.58624197 C20.2172377,5.49432548 21.2623662,4.49598501 21.4183619,3.34164882 C21.5119379,2.63972163 21.293576,1.62574946 19.7804604,0.705406852 C18.1737687,-0.261670236 16.8478587,-0.0588865096 16.0055139,0.284261242 C14.6328158,0.845824411 13.4161135,2.21852248 12.417773,4.37119914 C12.2617773,4.69876874 12.1369914,5.01076017 12.0122056,5.30711991 C11.8874197,5.01076017 11.7626338,4.69876874 11.6066381,4.37119914 C10.5927195,2.21852248 9.39159529,0.845824411 8.01889722,0.284261242 C7.17655246,-0.0588865096 5.8506424,-0.261670236 4.24395075,0.705460385 C2.71525696,1.625803 2.51247323,2.65529979 2.60604925,3.35728051 C2.74641328,4.49598501 3.79154176,5.49432548 5.8506424,6.58624197 L0.936937901,6.58624197 C0.422162741,6.58624197 0.0478051392,6.99180942 0.0478051392,7.50658458 L0.0478051392,13.964561 C0.0478051392,14.4949143 0.422216274,14.8536403 0.936937901,14.8536403 Z M3.79154176,14.8536403 L10.8110814,14.8536403 L10.8110814,23.1210921 L3.79154176,23.1210921 L3.79154176,14.8536403 Z M19.7024625,23.1210921 L12.6829764,23.1210921 L12.6829764,14.8536403 L19.7025161,14.8536403 L19.7025161,23.1210921 L19.7024625,23.1210921 Z M21.5743576,12.9817987 L20.6852248,12.9817987 L12.6829764,12.9817987 L12.6829764,8.45813704 L13.1977516,8.45813704 L13.1977516,8.45813704 L13.1977516,8.45813704 L21.5743576,8.45813704 L21.5743576,12.9817987 Z M14.1180407,5.1511242 C14.8979657,3.46643469 15.8027302,2.3745182 16.7230728,2.0001606 C16.9570664,1.90658458 17.19106,1.85979657 17.4406317,1.85979657 C17.877409,1.85979657 18.3297645,2.0001606 18.8133298,2.29657388 C19.2968951,2.59293362 19.5932548,2.90492505 19.5776767,3.09213062 C19.468469,3.93447537 16.738651,5.43195931 13.5876874,6.41472163 C13.7281049,6.04025696 13.8996788,5.60347966 14.1180407,5.1511242 Z M4.44673448,3.09207709 C4.41552463,2.90487152 4.7119379,2.59293362 5.21108137,2.29652034 C5.69464668,2.0001606 6.14700214,1.85974304 6.58377944,1.85974304 C6.83335118,1.85974304 7.06734475,1.90653105 7.30133833,2.00010707 C8.75203426,2.59288009 9.84395075,4.79229122 10.4523019,6.41461456 C7.28570664,5.43190578 4.55588865,3.93442184 4.44673448,3.09207709 Z M1.91970021,8.45808351 L10.8110814,8.45808351 L10.8110814,12.9817987 L2.80883298,12.9817987 L1.91970021,12.9817987 L1.91970021,8.45808351 Z" id="Shape"></path>
        </g>
    </g>
</svg>