
<svg width="30px" height="30px" viewBox="0 0 30 30" version="1.1" xmlns="http://www.w3.org/2000/svg" xmlns:xlink="http://www.w3.org/1999/xlink">
    <!-- Generator: Sketch 43.1 (39012) - http://www.bohemiancoding.com/sketch -->
    <desc>Created with Sketch.</desc>
    <defs></defs>
    <g id="Page-1" stroke="none" stroke-width="1" fill="none" fill-rule="evenodd">
        <g id="more" fill-rule="nonzero">
            <path d="M15.1064062,19.0554492 L7.87289063,11.8219922 L0.149941406,28.1379492 C0.142910156,28.1533008 -0.263085938,29.1541992 0.291386719,29.7086719 C0.847851562,30.2651367 1.85460937,29.8535742 1.86240234,29.85 L18.1780078,22.1272266 L16.1850586,20.1341602" id="Shape" fill="#FC3842"></path>
            <path d="M12.1081641,16.057207 C9.78339844,18.9552539 8.55808594,22.6525781 8.82363281,26.5550391 L18.1780664,22.1272852 C15.7528711,19.7019141 16.5628125,20.5118555 12.1081641,16.057207 Z" id="Shape" fill="#FC5162"></path>
            <path d="M1.37302734,29.9777344 C1.47421875,29.3195508 7.30558594,17.3372461 9.22623047,13.1753906 L7.87289062,11.8219922 L0.149941406,28.1379492 C0.0971484375,28.2533789 -0.254121094,29.2513477 0.347695313,29.760293 C0.746308594,30.0995508 1.31466797,29.9777344 1.37302734,29.9777344 Z" id="Shape" fill="#EF2235"></path>
            <ellipse id="Oval" fill="#FFCA54" cx="11.3283984" cy="5.81537109" rx="1" ry="1"></ellipse>
            <circle id="Oval" fill="#00CDB3" cx="24.7920703" cy="9.37224609" r="1"></circle>
            <path d="M18.178125,22.1272266 L20.0851172,21.2405859 C20.0266406,21.1821094 8.85345703,10.0089258 8.76140625,9.916875 L7.87289062,11.8219336" id="Shape" fill="#FFCA54"></path>
            <path d="M12.1081641,16.057207 L18.178125,22.1272852 L20.0851172,21.2406445 C19.9008984,21.0564258 13.5570703,14.7126563 13.4426367,14.5982227 C12.9667383,15.054668 12.5211914,15.5422852 12.1081641,16.057207 Z" id="Shape" fill="#FCD27C"></path>
            <path d="M6.67857422,14.3450977 L4.39804688,19.1631445 C5.37234375,19.5843164 6.54638672,19.3975781 7.3425,18.6014063 C8.61603516,17.3278125 8.28691406,15.1742578 6.67857422,14.3450977 Z" id="Shape" fill="#FFCA54"></path>
            <path d="M6.67857422,14.3450977 C5.54583984,16.7383008 4.46847656,19.0144336 4.39804688,19.1631445 C5.02212891,19.4329102 5.72777344,19.4518945 6.36404297,19.2224414 L7.97138672,15.826582 C7.74457031,15.1836914 7.27798828,14.6541211 6.67857422,14.3450977 Z" id="Shape" fill="#F9B24B"></path>
            <path d="M10.8788086,23.5908398 L10.8766992,23.589668 C10.0395703,22.6606641 9.01177734,22.7187891 9.01177734,22.7187891 L9.01195312,22.7198438 C6.53748047,22.6204688 5.26125,25.6882617 7.11720703,27.3626953 L11.5679297,25.2560742 C11.5382227,24.6314648 11.2907813,24.0438281 10.8788086,23.5908398 Z" id="Shape" fill="#FFCA54"></path>
            <path d="M2.91246094,22.3017773 L1.86714844,24.5099414 C2.38224609,25.0996289 3.27398438,25.1143945 3.81246094,24.575918 C4.63839844,23.7500391 4.07326172,22.3388086 2.91246094,22.3017773 Z" id="Shape" fill="#F9B24B"></path>
            <circle id="Oval" fill="#FFCA54" cx="10.9321289" cy="19.0677539" r="1.13964844"></circle>
            <path d="M9.22623047,13.175332 L10.1008008,11.3001562 C10.0904883,11.276543 10.0812305,11.2525195 10.0728516,11.2283203 C9.67962891,10.8352148 9.94523437,11.1006445 8.76146484,9.916875 L8.7515625,9.93820312 L8.7515625,9.93820312 L7.87300781,11.8219922 L9.22623047,13.175332 Z" id="Shape" fill="#F9B24B"></path>
            <path d="M17.505293,12.230918 C17.4243164,11.9781445 17.5635938,11.7075586 17.8164258,11.6266406 C18.5572852,11.3893359 20.2946484,10.6228125 20.4267187,8.63496094 C20.5049414,7.45576172 20.9371289,6.52107422 21.7112109,5.85691406 C23.1182227,4.64970703 25.1371289,4.80931641 25.2224414,4.81669922 C25.4868164,4.83960938 25.6826367,5.07251953 25.6597266,5.33701172 C25.636875,5.60115234 25.4047266,5.79685547 25.1405273,5.77447266 L25.1405273,5.77447266 C25.1235938,5.77306641 23.4287695,5.64580078 22.3327734,6.59027344 C21.7647656,7.07970703 21.44625,7.78910156 21.3857813,8.69865234 C21.2652539,10.5130078 20.0711719,11.9138086 18.1095117,12.5421094 C17.8577344,12.6228516 17.5864453,12.4845117 17.505293,12.230918 Z" id="Shape" fill="#F9B732"></path>
            <g id="Group" transform="translate(14.589844, 0.468750)" fill="#FF4B4E">
                <ellipse id="Oval" cx="3.78873047" cy="7.95462891" rx="1" ry="1"></ellipse>
                <circle id="Oval" cx="0.67828125" cy="0.626191406" r="1"></circle>
            </g>
            <g id="Group" transform="translate(12.656250, 2.226562)" fill="#00CDB3">
                <path d="M9.14912109,15.8081836 C9.14074219,15.5428711 9.34904297,15.3210352 9.61441406,15.3127148 L10.5718945,15.2825977 C10.8373242,15.2725781 11.0589844,15.4825195 11.0673047,15.7478906 C11.0756836,16.0132031 10.8673828,16.2350391 10.6019531,16.2433594 L9.64453125,16.2734766 C9.38167969,16.2821484 9.15744141,16.0753711 9.14912109,15.8081836 Z" id="Shape"></path>
                <path d="M0.472617188,1.93623047 C0.207363281,1.92791016 -0.0009375,1.70607422 0.00732421875,1.44076172 L0.0374414063,0.483339844 C0.0458203125,0.218027344 0.2671875,0.00861328125 0.53296875,0.018046875 C0.79828125,0.0263671875 1.00658203,0.248203125 0.998261719,0.513574219 L0.968144531,1.47099609 C0.959648438,1.74152344 0.730722656,1.94607422 0.472617188,1.93623047 Z" id="Shape"></path>
            </g>
            <path d="M18.0966211,4.91285156 C18.0883008,4.64753906 18.296543,4.42570313 18.5619141,4.41732422 L19.5192773,4.38720703 C19.7844141,4.37800781 20.0064258,4.58712891 20.0147461,4.8525 C20.023125,5.1178125 19.8148242,5.33964844 19.5494531,5.34796875 L18.5920313,5.37808594 C18.3329883,5.38804688 18.1050586,5.18238281 18.0966211,4.91285156 Z" id="Shape" fill="#57BAE5"></path>
            <g id="Group" transform="translate(13.769531, 0.000000)" fill="#F9B732">
                <path d="M15.8334375,11.2401563 C13.4428711,10.8179297 12.6858398,12.3869531 12.1331836,13.5326953 C11.5832812,14.6724023 11.2804102,15.3004102 9.86970703,14.7041602 C8.56048828,14.1509766 7.46841797,14.0837695 6.6234375,14.5043555 C5.94966797,14.8397461 5.70228516,15.3667383 5.67621094,15.4256836 C5.53582031,15.744375 5.77089844,16.1002148 6.11578125,16.1002148 C6.30046875,16.1002148 6.47666016,15.9931641 6.55587891,15.8133398 C6.56132813,15.8009766 7.12775391,14.5892578 9.49558594,15.5895703 C11.6810156,16.5131836 12.4042383,15.1829297 12.9989063,13.9503516 C13.5539648,12.7998047 13.9922461,11.890957 15.6662109,12.1867969 C15.9277734,12.2332617 16.1769727,12.0585352 16.2231445,11.7970898 C16.2692578,11.5357031 16.0947656,11.2863867 15.8334375,11.2401563 Z" id="Shape"></path>
                <path d="M4.43349609,0.00755859375 C4.17210937,0.0537304688 3.99761719,0.303105469 4.04384766,0.564492188 C4.51669922,3.24164063 1.74205078,2.87138672 0.67828125,4.34460937 C0.233730469,4.96042969 0.221542969,5.74236328 0.641015625,6.73511719 C1.61179688,9.03251953 0.485214844,9.64060547 0.4125,9.67693359 C0.360058594,9.69978516 -0.116542969,9.91904297 0.0475195313,10.2850781 C0.279667969,10.8029883 0.804960938,10.5544336 0.804960938,10.5544336 C1.34806641,10.3150781 2.70685547,9.1546875 1.52642578,6.3609375 C0.930292969,4.95029297 1.52103516,4.66529297 2.69783203,4.09751953 C3.84357422,3.54480469 5.41265625,2.78777344 4.99037109,0.397265625 C4.94425781,0.135878906 4.695,-0.0382617187 4.43349609,0.00755859375 Z" id="Shape"></path>
            </g>
            <path d="M21.1559766,19.6460156 C20.1197461,18.6097852 11.4072656,9.89771484 10.3541602,8.84419922 C9.9684375,8.45853516 9.34306641,8.45853516 8.95728516,8.84419922 C8.5715625,9.22992188 8.5715625,9.85529297 8.95728516,10.2410742 L19.7591602,21.0428906 C20.1448828,21.4285547 20.7701953,21.4285547 21.1560352,21.0428906 C21.5416406,20.657168 21.5416406,20.0317383 21.1559766,19.6460156 Z" id="Shape" fill="#57BAE5"></path>
            <path d="M19.7591016,21.0427734 C20.1448242,21.4284375 20.7701367,21.4284375 21.1559766,21.0427734 C21.5416406,20.657168 21.5416406,20.0317383 21.1559766,19.6458984 L14.8860938,13.3761328 C14.355293,13.7715234 13.8517383,14.2013672 13.3777734,14.6615039 L19.7591016,21.0427734 Z" id="Shape" fill="#70D1F2"></path>
            <path d="M8.75144531,9.93820312 L8.75144531,9.93820312 C8.8490625,10.1616211 8.84759766,10.1313867 10.0740234,11.3576953 L10.1008008,11.3002148 C9.78791016,10.5844922 10.3893164,9.8071875 11.1613477,9.93029297 L11.1608203,9.92929688 C11.1608203,9.92929688 11.4707812,9.96128906 11.2520508,9.74238281 L10.3542187,8.84419922 C9.94611328,8.43615234 9.27041016,8.46070313 8.89611328,8.91205078 C8.66003906,9.19464844 8.60150391,9.59613281 8.75144531,9.93820312 Z" id="Shape" fill="#34A9D1"></path>
        </g>
    </g>
</svg>