
<svg width="41px" height="40px" viewBox="0 0 41 40" version="1.1" xmlns="http://www.w3.org/2000/svg" xmlns:xlink="http://www.w3.org/1999/xlink">
    <!-- Generator: Sketch 43.1 (39012) - http://www.bohemiancoding.com/sketch -->
    <desc>Created with Sketch.</desc>
    <defs></defs>
    <g id="Page-1" stroke="none" stroke-width="1" fill="none" fill-rule="evenodd">
        <g id="placeholder" fill-rule="nonzero" fill="#000000">
            <path d="M21.5693333,17.3333333 C24.1426667,17.3333333 26.236,15.2393333 26.236,12.6666667 C26.236,10.094 24.1426667,8 21.5693333,8 C18.996,8 16.9026667,10.094 16.9026667,12.6666667 C16.9026667,15.2393333 18.996,17.3333333 21.5693333,17.3333333 Z M21.5693333,9.33333333 C23.4073333,9.33333333 24.9026667,10.8286667 24.9026667,12.6666667 C24.9026667,14.5046667 23.4073333,16 21.5693333,16 C19.7313333,16 18.236,14.5046667 18.236,12.6666667 C18.236,10.8286667 19.7313333,9.33333333 21.5693333,9.33333333 Z" id="Shape"></path>
            <path d="M21.4513333,36.5046667 L31.6786667,21.7333333 C35.5146667,16.6186667 34.9593333,8.21333333 30.4913333,3.74533333 C28.0766667,1.33 24.866,0 21.4513333,0 C18.0366667,0 14.826,1.33 12.4113333,3.74466667 C7.94266667,8.21266667 7.38733333,16.6193333 11.2086667,21.7126667 L21.4513333,36.5046667 Z M13.354,4.68733333 C15.5166667,2.52466667 18.3926667,1.33333333 21.4513333,1.33333333 C24.51,1.33333333 27.3853333,2.52466667 29.5486667,4.68733333 C33.5813333,8.72 34.078,16.312 30.5973333,20.9533333 L21.4513333,34.162 L12.2906667,20.9333333 C8.824,16.312 9.32066667,8.72 13.354,4.68733333 Z" id="Shape"></path>
            <path d="M1.33333333,38.3906667 L0.862,38.862 C0.601333333,39.1226667 0.601333333,39.544 0.862,39.8046667 C0.992,39.9346667 1.16266667,40 1.33333333,40 C1.504,40 1.67466667,39.9346667 1.80466667,39.8046667 L2.276,39.3333333 C2.53666667,39.0726667 2.53666667,38.6513333 2.276,38.3906667 C2.01533333,38.13 1.594,38.13 1.33333333,38.3906667 Z" id="Shape"></path>
            <path d="M6.41066667,34.6666667 C6.04266667,34.6666667 5.744,34.9646667 5.744,35.3333333 C5.744,35.702 6.04266667,36 6.41066667,36 L7.624,36 C7.992,36 8.29066667,35.702 8.29066667,35.3333333 C8.29066667,34.9646667 7.992,34.6666667 7.624,34.6666667 L6.41066667,34.6666667 Z" id="Shape"></path>
            <path d="M4.85,35.8166667 C4.58933333,35.556 4.168,35.556 3.90733333,35.8166667 L3.04933333,36.6746667 C2.78866667,36.9353333 2.78866667,37.3566667 3.04933333,37.6173333 C3.17933333,37.7473333 3.35,37.8126667 3.52066667,37.8126667 C3.69133333,37.8126667 3.862,37.7473333 3.992,37.6173333 L4.85,36.7593333 C5.11066667,36.4986667 5.11066667,36.0766667 4.85,35.8166667 Z" id="Shape"></path>
            <path d="M13.6926667,34.6666667 C13.3246667,34.6666667 13.026,34.9646667 13.026,35.3333333 C13.026,35.702 13.3246667,36 13.6926667,36 L14.906,36 C15.274,36 15.5726667,35.702 15.5726667,35.3333333 C15.5726667,34.9646667 15.274,34.6666667 14.906,34.6666667 L13.6926667,34.6666667 Z" id="Shape"></path>
            <path d="M10.0513333,34.6666667 C9.68333333,34.6666667 9.38466667,34.9646667 9.38466667,35.3333333 C9.38466667,35.702 9.68333333,36 10.0513333,36 L11.2653333,36 C11.6333333,36 11.932,35.702 11.932,35.3333333 C11.932,34.9646667 11.6333333,34.6666667 11.2653333,34.6666667 L10.0513333,34.6666667 Z" id="Shape"></path>
            <path d="M17.3333333,34.6666667 C16.9653333,34.6666667 16.6666667,34.9646667 16.6666667,35.3333333 C16.6666667,35.702 16.9653333,36 17.3333333,36 L18,36 C18.368,36 18.6666667,35.702 18.6666667,35.3333333 C18.6666667,34.9646667 18.368,34.6666667 18,34.6666667 L17.3333333,34.6666667 Z" id="Shape"></path>
            <path d="M1.33333333,35.8386667 C1.504,35.8386667 1.67466667,35.7733333 1.80466667,35.6433333 L4.38866667,33.0593333 C4.452,32.996 4.52133333,32.9393333 4.62133333,32.878 L4.75,32.8086667 C4.77333333,32.7946667 4.796,32.7806667 4.82066667,32.77 L5.07,32.6933333 C5.15733333,32.6766667 5.24533333,32.6666667 5.33333333,32.6666667 L15.3333333,32.6666667 C15.7013333,32.6666667 16,32.3686667 16,32 C16,31.6313333 15.7013333,31.3333333 15.3333333,31.3333333 L5.33333333,31.3333333 C5.16266667,31.3333333 4.98733333,31.3506667 4.806,31.386 C4.742,31.4 4.68066667,31.4186667 4.62,31.4386667 L4.53266667,31.4646667 C4.458,31.4846667 4.38333333,31.5073333 4.31533333,31.5353333 C4.236,31.568 4.16133333,31.608 4.08733333,31.6506667 L4.024,31.6853333 C3.96733333,31.714 3.91133333,31.7433333 3.85266667,31.7826667 C3.70533333,31.8806667 3.56866667,31.9933333 3.44533333,32.1166667 L0.861333333,34.7006667 C0.600666667,34.9613333 0.600666667,35.3826667 0.861333333,35.6433333 C0.992,35.7733333 1.16266667,35.8386667 1.33333333,35.8386667 Z" id="Shape"></path>
            <path d="M39.5286667,32.4713333 C39.6993333,32.4713333 39.87,32.406 40,32.276 L40.4713333,31.8046667 C40.732,31.544 40.732,31.1226667 40.4713333,30.862 C40.2106667,30.6013333 39.7893333,30.6013333 39.5286667,30.862 L39.0573333,31.3333333 C38.7966667,31.594 38.7966667,32.0153333 39.0573333,32.276 C39.1873333,32.406 39.358,32.4713333 39.5286667,32.4713333 Z" id="Shape"></path>
            <path d="M37.044,33.3466667 L36.0373333,34.3533333 C35.7766667,34.614 35.7766667,35.0353333 36.0373333,35.296 C36.1673333,35.426 36.338,35.4913333 36.5086667,35.4913333 C36.6793333,35.4913333 36.85,35.426 36.98,35.296 L37.9866667,34.2893333 C38.2473333,34.0286667 38.2473333,33.6073333 37.9866667,33.3466667 C37.726,33.086 37.3046667,33.086 37.044,33.3466667 Z" id="Shape"></path>
            <path d="M32.45,34.6666667 C32.0813333,34.6666667 31.7833333,34.9646667 31.7833333,35.3333333 C31.7833333,35.702 32.0813333,36 32.45,36 L33.8733333,36 C34.242,36 34.54,35.702 34.54,35.3333333 C34.54,34.9646667 34.242,34.6666667 33.8733333,34.6666667 L32.45,34.6666667 Z" id="Shape"></path>
            <path d="M28.18,34.6666667 C27.812,34.6666667 27.5133333,34.9646667 27.5133333,35.3333333 C27.5133333,35.702 27.812,36 28.18,36 L29.6033333,36 C29.9713333,36 30.27,35.702 30.27,35.3333333 C30.27,34.9646667 29.9713333,34.6666667 29.6033333,34.6666667 L28.18,34.6666667 Z" id="Shape"></path>
            <path d="M24.6666667,34.6666667 C24.2986667,34.6666667 24,34.9646667 24,35.3333333 C24,35.702 24.2986667,36 24.6666667,36 L25.3333333,36 C25.7013333,36 26,35.702 26,35.3333333 C26,34.9646667 25.7013333,34.6666667 25.3333333,34.6666667 L24.6666667,34.6666667 Z" id="Shape"></path>
            <path d="M39.5286667,35.0233333 L36.9446667,37.6073333 C36.882,37.67 36.8133333,37.726 36.7133333,37.788 L36.588,37.856 C36.5613333,37.8706667 36.5353333,37.8873333 36.5086667,37.898 C36.488,37.9066667 36.466,37.9113333 36.444,37.9173333 L36.2586667,37.9733333 C36.174,37.9906667 36.0873333,38 36,38 L5.92666667,38 L4.91533333,38.814 C4.62866667,39.0453333 4.58266667,39.4653333 4.814,39.7513333 C4.94533333,39.9146667 5.13866667,40 5.33333333,40 C5.48,40 5.628,39.952 5.75066667,39.8526667 L6.39666667,39.3333333 L36,39.3333333 C36.1733333,39.3333333 36.3493333,39.316 36.5193333,39.2813333 C36.5873333,39.268 36.6513333,39.2486667 36.716,39.2273333 L36.7993333,39.2026667 C36.874,39.182 36.948,39.16 37.0226667,39.1286667 C37.1006667,39.096 37.174,39.0566667 37.2473333,39.0146667 L37.3133333,38.9786667 C37.3706667,38.95 37.4266667,38.92 37.478,38.8853333 C37.6253333,38.7873333 37.7633333,38.6746667 37.8873333,38.55 L40.4713333,35.966 C40.732,35.7053333 40.732,35.284 40.4713333,35.0233333 C40.2106667,34.7626667 39.7893333,34.7633333 39.5286667,35.0233333 Z" id="Shape"></path>
            <path d="M26.6666667,32 C26.6666667,32.3686667 26.9653333,32.6666667 27.3333333,32.6666667 L35.448,32.6666667 L37.6433333,30.4713333 C37.904,30.2106667 37.904,29.7893333 37.6433333,29.5286667 C37.3826667,29.268 36.9613333,29.268 36.7006667,29.5286667 L34.896,31.3333333 L27.3333333,31.3333333 C26.9653333,31.3333333 26.6666667,31.6313333 26.6666667,32 Z" id="Shape"></path>
        </g>
    </g>
</svg>