
<svg width="32px" height="30px" viewBox="0 0 32 30" version="1.1" xmlns="http://www.w3.org/2000/svg" xmlns:xlink="http://www.w3.org/1999/xlink">
    <!-- Generator: Sketch 43.1 (39012) - http://www.bohemiancoding.com/sketch -->
    <desc>Created with Sketch.</desc>
    <defs></defs>
    <g id="Page-1" stroke="none" stroke-width="1" fill="none" fill-rule="evenodd">
        <g id="stars" fill-rule="nonzero" fill="#ED8A19">
            <path d="M17.1423913,0.969130435 L20.6686957,8.11434783 C20.913913,8.61130435 21.3880435,8.95565217 21.9365217,9.03521739 L29.8219565,10.181087 C31.2032609,10.3819565 31.7543478,12.078913 30.7552174,13.0526087 L25.0493478,18.6143478 C24.6528261,19.001087 24.4715217,19.5586957 24.5654348,20.1045652 L25.9121739,27.9580435 C26.1482609,29.3334783 24.7043478,30.3821739 23.4691304,29.7332609 L16.4165217,26.0256522 C15.926087,25.7680435 15.3397826,25.7680435 14.8493478,26.0256522 L7.79673913,29.7332609 C6.56152174,30.3828261 5.1176087,29.3334783 5.35369565,27.9580435 L6.70043478,20.1045652 C6.79434783,19.5586957 6.61304348,19.001087 6.21652174,18.6143478 L0.510652174,13.0526087 C-0.488478261,12.0782609 0.0626086957,10.3813043 1.44391304,10.181087 L9.32934783,9.03521739 C9.87782609,8.95565217 10.3519565,8.61130435 10.5971739,8.11434783 L14.1234783,0.969130435 C14.7404348,-0.282391304 16.5247826,-0.282391304 17.1423913,0.969130435 Z" id="Shape"></path>
        </g>
    </g>
</svg>