
<svg width="24px" height="25px" viewBox="0 0 24 25" version="1.1" xmlns="http://www.w3.org/2000/svg" xmlns:xlink="http://www.w3.org/1999/xlink">
    <!-- Generator: Sketch 43.1 (39012) - http://www.bohemiancoding.com/sketch -->
    <desc>Created with Sketch.</desc>
    <defs></defs>
    <g id="Page-1" stroke="none" stroke-width="1" fill="none" fill-rule="evenodd">
        <g id="hotel" fill-rule="nonzero" fill="#000000">
            <path d="M13.0385,2.45444444 L13.9199444,1.22494444 C14.0033889,1.1085 14.1378889,1.03944444 14.2811667,1.03944444 C14.4244444,1.03944444 14.5588889,1.1085 14.6423333,1.22488889 L15.4378889,2.3345 L16.7391111,2.74827778 C16.8756111,2.79172222 16.9828333,2.89827778 17.0271111,3.0345 C17.0713889,3.17072222 17.0472778,3.31994444 16.9623333,3.43533333 L16.1528889,4.53488889 L16.1614444,5.90016667 C16.1623333,6.04344444 16.0941667,6.17833333 15.9782222,6.2625 C15.9013333,6.31838889 15.8096667,6.34738889 15.7169444,6.34738889 C15.6699444,6.34738889 15.6227222,6.33994444 15.5769444,6.32477778 L14.7926111,6.06444444 C14.5596111,5.98711111 14.4334444,5.73561111 14.5107778,5.50261111 C14.5881111,5.26966667 14.8396111,5.14333333 15.0726111,5.22077778 L15.2686667,5.28583333 L15.2630556,4.39294444 C15.2624444,4.29716667 15.2928333,4.20377778 15.3496111,4.12666667 L15.8790556,3.4075 L15.028,3.13688889 C14.9367222,3.10788889 14.8572778,3.05011111 14.8015,2.97233333 L14.2812222,2.24661111 L13.761,2.97227778 C13.6179444,3.17177778 13.3403333,3.2175 13.1408333,3.07455556 C12.9412778,2.93161111 12.8955,2.65394444 13.0385,2.45444444 Z M17.9903333,10.4005556 C17.9903333,10.646 17.7913333,10.845 17.5458889,10.845 L15.4407222,10.845 C15.1952778,10.845 14.9962778,10.646 14.9962778,10.4005556 L14.9962778,7.52355556 C14.9962778,7.27811111 15.1952778,7.07911111 15.4407222,7.07911111 L17.5458889,7.07911111 C17.7913333,7.07911111 17.9903333,7.27811111 17.9903333,7.52355556 L17.9903333,10.4005556 Z M17.1014444,7.968 L15.8851667,7.968 L15.8851667,9.95611111 L17.1014444,9.95611111 L17.1014444,7.968 Z M17.9903333,12.1411111 L17.9903333,15.0181667 C17.9903333,15.2636111 17.7913333,15.4626111 17.5458889,15.4626111 L15.4407222,15.4626111 C15.1952778,15.4626111 14.9962778,15.2636111 14.9962778,15.0181667 L14.9962778,12.1411111 C14.9962778,11.8956667 15.1952778,11.6966667 15.4407222,11.6966667 L17.5458889,11.6966667 C17.7913889,11.6966667 17.9903333,11.8956111 17.9903333,12.1411111 Z M17.1014444,12.5855556 L15.8851667,12.5855556 L15.8851667,14.5737222 L17.1014444,14.5737222 L17.1014444,12.5855556 Z M14.3389444,4.62316667 L13.5295,5.72272222 L13.5381111,7.08805556 C13.539,7.23133333 13.4708333,7.36622222 13.3548889,7.45038889 C13.278,7.50627778 13.1863333,7.53527778 13.0936111,7.53527778 C13.0466111,7.53527778 12.9993889,7.52783333 12.9536111,7.51266667 L11.6577778,7.08261111 L10.362,7.51266667 C10.2260556,7.55772222 10.0766667,7.53466667 9.96077778,7.45038889 C9.84488889,7.36616667 9.77666667,7.23127778 9.77755556,7.08805556 L9.78611111,5.72272222 L8.97666667,4.62316667 C8.89172222,4.50777778 8.86761111,4.35855556 8.91188889,4.22233333 C8.95616667,4.08605556 9.06338889,3.97955556 9.19988889,3.93611111 L10.5010556,3.52238889 L11.2966111,2.41277778 C11.3800556,2.29633333 11.5145556,2.22727778 11.6577778,2.22727778 C11.801,2.22727778 11.9355,2.29633333 12.0189444,2.41272222 L12.8145556,3.52233333 L14.1156667,3.93611111 C14.2522222,3.9795 14.3593889,4.08605556 14.4036667,4.22227778 C14.4479444,4.3585 14.4238889,4.50783333 14.3389444,4.62316667 Z M13.2556667,4.59538889 L12.4047222,4.32477778 C12.3134444,4.29577778 12.234,4.23805556 12.1782222,4.16022222 L11.6578889,3.4345 L11.1375556,4.16022222 C11.0817778,4.23805556 11.0022778,4.29577778 10.9110556,4.32483333 L10.0600556,4.59544444 L10.5894444,5.31461111 C10.6462222,5.39172222 10.6765556,5.48511111 10.676,5.58083333 L10.6703889,6.47383333 L11.5178333,6.19255556 C11.5632778,6.1775 11.6105556,6.16994444 11.6578333,6.16994444 C11.7051111,6.16994444 11.7523889,6.1775 11.7978333,6.19255556 L12.6453333,6.47383333 L12.6396667,5.58088889 C12.6390556,5.48511111 12.6694444,5.39172222 12.7262222,5.31461111 L13.2556667,4.59538889 Z M11.0921667,1.64722222 L11.6578333,1.07605556 L12.2235556,1.64722222 C12.3104444,1.735 12.4248889,1.77894444 12.5393333,1.77894444 C12.6523889,1.77894444 12.7654444,1.73611111 12.8520556,1.65027778 C13.0264444,1.47755556 13.0278333,1.19616667 12.8551111,1.02177778 L11.9735556,0.131722222 C11.8901111,0.0474444444 11.7764444,0 11.6577778,0 C11.5391111,0 11.4254444,0.0474444444 11.342,0.131722222 L10.4605556,1.02177778 C10.2878333,1.19622222 10.2892222,1.47761111 10.4636111,1.65033333 C10.6380556,1.823 10.9194444,1.82172222 11.0921667,1.64722222 Z M8.31927778,10.4005556 C8.31927778,10.646 8.12027778,10.845 7.87483333,10.845 L5.76966667,10.845 C5.52422222,10.845 5.32522222,10.646 5.32522222,10.4005556 L5.32522222,7.52355556 C5.32522222,7.27811111 5.52422222,7.07911111 5.76966667,7.07911111 L7.87483333,7.07911111 C8.12027778,7.07911111 8.31927778,7.27811111 8.31927778,7.52355556 L8.31927778,10.4005556 Z M7.43038889,7.968 L6.21411111,7.968 L6.21411111,9.95611111 L7.43038889,9.95611111 L7.43038889,7.968 Z M8.31927778,12.1411111 L8.31927778,15.0181667 C8.31927778,15.2636111 8.12027778,15.4626111 7.87483333,15.4626111 L5.76966667,15.4626111 C5.52422222,15.4626111 5.32522222,15.2636111 5.32522222,15.0181667 L5.32522222,12.1411111 C5.32522222,11.8956667 5.52422222,11.6966667 5.76966667,11.6966667 L7.87483333,11.6966667 C8.12033333,11.6966667 8.31927778,11.8956111 8.31927778,12.1411111 Z M7.43038889,12.5855556 L6.21411111,12.5855556 L6.21411111,14.5737222 L7.43038889,14.5737222 L7.43038889,12.5855556 Z M23.3128889,22.8381111 L23.3128889,24.5378333 C23.3128889,24.7832778 23.1138889,24.9822778 22.8684444,24.9822778 L0.447111111,24.9822778 C0.201666667,24.9822778 0.00266666667,24.7832778 0.00266666667,24.5378333 L0.00266666667,22.8381111 C0.00266666667,22.5926667 0.201666667,22.3936667 0.447111111,22.3936667 L1.25316667,22.3936667 L1.25316667,12.3284444 C1.25316667,12.083 1.45216667,11.884 1.69761111,11.884 L3.07366667,11.884 L3.07366667,4.81033333 C3.07366667,4.56488889 3.27266667,4.36588889 3.51811111,4.36588889 L6.09011111,4.36588889 C6.33555556,4.36588889 6.53455556,4.56488889 6.53455556,4.81033333 C6.53455556,5.05577778 6.33555556,5.25477778 6.09011111,5.25477778 L3.96261111,5.25477778 L3.96261111,22.3936667 L5.32527778,22.3936667 L5.32527778,18.6506667 C5.32527778,17.9673333 5.88122222,17.4114444 6.56455556,17.4114444 L6.63833333,17.4114444 C7.32166667,17.4114444 7.87761111,17.9673333 7.87761111,18.6506667 L7.87761111,22.3936667 L9.10827778,22.3936667 L9.10827778,17.8558333 C9.10827778,17.0263333 9.78305556,16.3515 10.6125556,16.3515 L12.7032222,16.3515 C13.5326667,16.3515 14.2075,17.0263333 14.2075,17.8558333 L14.2075,22.3936667 L15.4381111,22.3936667 L15.4381111,18.6506667 C15.4381111,17.9673333 15.994,17.4114444 16.6773333,17.4114444 L16.7511667,17.4114444 C17.4345,17.4114444 17.9903889,17.9673333 17.9903889,18.6506667 L17.9903889,22.3936667 L19.3530556,22.3936667 L19.3530556,5.25477778 L17.2255556,5.25477778 C16.9801111,5.25477778 16.7811111,5.05577778 16.7811111,4.81033333 C16.7811111,4.56488889 16.9801111,4.36588889 17.2255556,4.36588889 L19.7975,4.36588889 C20.0429444,4.36588889 20.2419444,4.56488889 20.2419444,4.81033333 L20.2419444,11.884 L21.6179444,11.884 C21.8633889,11.884 22.0623889,12.083 22.0623889,12.3284444 L22.0623889,22.3936667 L22.8685,22.3936667 C23.1139444,22.3936667 23.3128889,22.5926111 23.3128889,22.8381111 Z M20.2418889,22.3936667 L21.1734444,22.3936667 L21.1734444,12.7728889 L20.2418889,12.7728889 L20.2418889,22.3936667 L20.2418889,22.3936667 Z M16.3269444,22.3936667 L17.1014444,22.3936667 L17.1014444,18.6506667 C17.1014444,18.4575 16.9442778,18.3003333 16.7511111,18.3003333 L16.6772778,18.3003333 C16.4841111,18.3003333 16.3269444,18.4575 16.3269444,18.6506667 L16.3269444,22.3936667 Z M9.99716667,22.3936667 L13.3185556,22.3936667 L13.3185556,17.8558333 C13.3185556,17.5165 13.0425,17.2403889 12.7031667,17.2403889 L10.6125,17.2403889 C10.2732222,17.2403889 9.99711111,17.5164444 9.99711111,17.8558333 L9.99711111,22.3936667 L9.99716667,22.3936667 Z M6.21411111,22.3936667 L6.98866667,22.3936667 L6.98866667,18.6506667 C6.98866667,18.4575 6.83144444,18.3003333 6.63827778,18.3003333 L6.5645,18.3003333 C6.37127778,18.3003333 6.21411111,18.4575 6.21411111,18.6506667 L6.21411111,22.3936667 Z M2.14211111,22.3936667 L3.07372222,22.3936667 L3.07372222,12.7728889 L2.14211111,12.7728889 L2.14211111,22.3936667 Z M22.424,23.2825556 L0.891555556,23.2825556 L0.891555556,24.0933889 L22.424,24.0933889 L22.424,23.2825556 Z M13.1548333,12.1411111 L13.1548333,15.0181667 C13.1548333,15.2636111 12.9558333,15.4626111 12.7103889,15.4626111 L10.6051667,15.4626111 C10.3597222,15.4626111 10.1607222,15.2636111 10.1607222,15.0181667 L10.1607222,12.1411111 C10.1607222,11.8956667 10.3597222,11.6966667 10.6051667,11.6966667 L12.7103889,11.6966667 C12.9558889,11.6966667 13.1548333,11.8956111 13.1548333,12.1411111 Z M12.2659444,12.5855556 L11.0496111,12.5855556 L11.0496111,14.5737222 L12.2659444,14.5737222 L12.2659444,12.5855556 Z M13.1548333,8.80894444 C13.1548333,8.5635 12.9558333,8.3645 12.7103889,8.3645 C12.4649444,8.3645 12.2659444,8.5635 12.2659444,8.80894444 L12.2659444,9.95622222 L11.0496111,9.95622222 L11.0496111,8.80894444 C11.0496111,8.5635 10.8506111,8.3645 10.6051667,8.3645 C10.3597222,8.3645 10.1607222,8.5635 10.1607222,8.80894444 L10.1607222,10.4006667 C10.1607222,10.6461111 10.3597222,10.8451111 10.6051667,10.8451111 L12.7103889,10.8451111 C12.9558333,10.8451111 13.1548333,10.6461111 13.1548333,10.4006667 L13.1548333,8.80894444 Z M7.16277778,4.53494444 L7.15416667,5.90022222 C7.15327778,6.04344444 7.22144444,6.17838889 7.33733333,6.26255556 C7.41427778,6.31844444 7.50594444,6.34744444 7.59861111,6.34744444 C7.64561111,6.34744444 7.69283333,6.34 7.73855556,6.32483333 L8.523,6.0645 C8.75594444,5.98716667 8.88216667,5.73566667 8.80483333,5.50272222 C8.7275,5.26972222 8.47583333,5.14361111 8.24305556,5.22088889 L8.04694444,5.28594444 L8.05261111,4.39305556 C8.05322222,4.29727778 8.02283333,4.20388889 7.96605556,4.12677778 L7.43661111,3.40761111 L8.28766667,3.137 C8.37894444,3.108 8.45838889,3.05022222 8.51422222,2.97238889 L9.0345,2.24666667 L9.55483333,2.97238889 C9.69783333,3.17183333 9.97544444,3.21761111 10.175,3.07461111 C10.3745,2.93161111 10.4202778,2.65394444 10.2772222,2.45444444 L9.39566667,1.22494444 C9.31222222,1.1085 9.17772222,1.0395 9.0345,1.0395 C8.89127778,1.0395 8.75672222,1.10855556 8.67327778,1.225 L7.87777778,2.33461111 L6.57655556,2.74838889 C6.44,2.79183333 6.33283333,2.89838889 6.28855556,3.03461111 C6.24427778,3.17083333 6.26838889,3.32005556 6.35333333,3.43544444 L7.16277778,4.53494444 Z" id="XMLID_265_"></path>
        </g>
    </g>
</svg>