
<svg width="28px" height="20px" viewBox="0 0 28 20" version="1.1" xmlns="http://www.w3.org/2000/svg" xmlns:xlink="http://www.w3.org/1999/xlink">
    <!-- Generator: Sketch 43.1 (39012) - http://www.bohemiancoding.com/sketch -->
    <desc>Created with Sketch.</desc>
    <defs></defs>
    <g id="Page-1" stroke="none" stroke-width="1" fill="none" fill-rule="evenodd">
        <g id="tent" fill-rule="nonzero" fill="#000000">
            <path d="M27.7170109,17.5146739 C27.5365217,17.3792935 27.2805435,17.4159239 27.1452174,17.5963587 L26.2347826,18.8102717 L17.9494022,2.23923913 L19.4838043,0.704836957 C19.6433152,0.545326087 19.6433152,0.28673913 19.4838043,0.127282609 C19.3242391,-0.0322282609 19.0657065,-0.0322282609 18.9061957,0.127282609 L17.4524457,1.58097826 L15.99875,0.127282609 C15.8391848,-0.0322282609 15.5806522,-0.0322282609 15.4211413,0.127282609 C15.2616304,0.286793478 15.2616304,0.545380435 15.4211413,0.704836957 L16.4664674,1.75016304 L11.2991304,1.75016304 L12.1159239,0.661086957 C12.25125,0.480652174 12.2146739,0.224619565 12.0342391,0.0892934783 C11.8538043,-0.0459782609 11.5977717,-0.00945652174 11.4624457,0.170978261 L10.4380435,1.53679348 L9.02847826,0.127228261 C8.86896739,-0.0322826087 8.61038043,-0.0322826087 8.45092391,0.127228261 C8.29141304,0.28673913 8.29141304,0.545326087 8.45092391,0.704782609 L9.98532609,2.23918478 L1.6998913,18.8102174 L0.789456522,17.5963043 C0.654130435,17.4158696 0.398152174,17.3792935 0.217663043,17.5146196 C0.0372826087,17.6499457 0.000652173913,17.9059783 0.135978261,18.086413 L1.44288043,19.8289674 C1.51929348,19.9304348 1.64336957,19.992337 1.77027174,19.992337 L22.6618478,19.992337 C22.8874457,19.992337 23.0702717,19.8094565 23.0702717,19.583913 C23.0702717,19.3583696 22.8874457,19.1754891 22.6618478,19.1754891 L19.447337,19.1754891 L13.9296196,8.14005435 C13.82875,7.93831522 13.5835326,7.85652174 13.3816848,7.9573913 C13.1799457,8.05826087 13.0981522,8.30353261 13.1990217,8.50532609 L18.5341848,19.1754891 L10.8907065,19.1754891 L10.8907065,3.8886413 L12.5311413,7.16951087 C12.6320109,7.37130435 12.8772283,7.45309783 13.0790761,7.35217391 C13.2808152,7.25130435 13.3626087,7.00603261 13.2617391,6.80423913 L11.1431522,2.56701087 L17.2000543,2.56701087 L25.5042935,19.1754891 L24.4044565,19.1754891 C24.1788587,19.1754891 23.9960326,19.3583696 23.9960326,19.583913 C23.9960326,19.8094565 24.1788587,19.992337 24.4044565,19.992337 L26.1642935,19.992337 C26.2916304,19.992337 26.4153804,19.9309783 26.4918478,19.8289674 L27.79875,18.086413 C27.9340761,17.9060326 27.8975,17.65 27.7170109,17.5146739 Z M10.073913,19.1754891 L6.33842391,19.1754891 L10.073913,11.3648913 L10.073913,19.1754891 Z M5.57097826,18.8869565 L4.49336957,17.8094022 L8.53423913,12.6909783 L5.57097826,18.8869565 Z M10.073913,9.42255435 L3.62728261,17.5883152 C3.49896739,17.7508696 3.5126087,17.98375 3.65902174,18.130163 L4.70440217,19.1754891 L2.43048913,19.1754891 L10.073913,3.8886413 L10.073913,9.42255435 Z" id="Shape"></path>
            <path d="M19.5602174,10.6886413 L17.817663,7.20358696 C17.7485326,7.06521739 17.6070652,6.97782609 17.4523913,6.97782609 L15.709837,6.97782609 C15.4119565,6.97782609 15.2109783,7.30195652 15.3445652,7.5688587 L17.0871196,11.053913 C17.1563043,11.1922826 17.2977174,11.2796739 17.4523913,11.2796739 L19.1949457,11.2796739 C19.4928261,11.2796739 19.6938043,10.9555435 19.5602174,10.6886413 Z M17.7048913,10.4628261 L16.3707609,7.79456522 L17.2000543,7.79456522 L18.5341848,10.4628261 L17.7048913,10.4628261 Z" id="Shape"></path>
        </g>
    </g>
</svg>