
<svg width="35px" height="35px" viewBox="0 0 35 35" version="1.1" xmlns="http://www.w3.org/2000/svg" xmlns:xlink="http://www.w3.org/1999/xlink">
    <!-- Generator: Sketch 43.1 (39012) - http://www.bohemiancoding.com/sketch -->
    <desc>Created with Sketch.</desc>
    <defs></defs>
    <g id="Page-1" stroke="none" stroke-width="1" fill="none" fill-rule="evenodd">
        <g id="train" fill-rule="nonzero" fill="#000000">
            <path d="M34.8373047,34.108457 L27.5971582,27.0433105 C27.7916406,26.5780566 27.8994434,26.0678906 27.8994434,25.5329102 L27.8994434,8.65197266 C27.8994434,6.48149414 26.1400098,4.72206055 23.9695313,4.72206055 L17.9619727,4.72206055 L17.9619727,3.74452148 C18.6876758,3.61388672 19.2401563,2.97807617 19.2401563,2.21532227 L19.2401563,1.03926758 L20.1746973,1.03926758 C21.0829199,1.03926758 21.8192188,1.77556641 21.8192188,2.68378906 L21.8192188,2.93651367 C21.8192188,3.22109375 22.0384473,3.46916992 22.3228223,3.47771484 C22.617041,3.48660156 22.8584863,3.250625 22.8584863,2.95832031 L22.8584863,2.6837207 C22.8584863,1.20155273 21.6568652,0 20.1746973,0 L18.7204199,0 L15.9900781,0 L14.5359375,0 C13.0537695,0 11.8521484,1.20162109 11.8521484,2.68378906 L11.8521484,2.93651367 C11.8521484,3.22109375 12.071377,3.46916992 12.355752,3.47771484 C12.6499707,3.48660156 12.891416,3.250625 12.891416,2.95832031 L12.891416,2.6837207 C12.891416,1.77549805 13.6277148,1.03919922 14.5359375,1.03919922 L15.4705469,1.03919922 L15.4705469,2.21532227 C15.4705469,3.0380957 16.113125,3.71307617 16.9226367,3.76591797 L16.9226367,4.72219727 L15.664209,4.72219727 C15.3772363,4.72219727 15.1446094,4.95482422 15.1446094,5.24179687 C15.1446094,5.52876953 15.3772363,5.76139648 15.664209,5.76139648 L23.9695312,5.76139648 C25.5660645,5.76139648 26.8601758,7.05564453 26.8601758,8.65204102 L26.8601758,25.5329102 C26.8601758,27.129375 25.5659277,28.4235547 23.9695312,28.4235547 L21.1484766,28.4235547 L21.1484766,27.6158203 C21.1484766,26.5083984 20.2507129,25.6107031 19.1433594,25.6107031 L15.5674805,25.6107031 C14.4600586,25.6107031 13.5623633,26.5084668 13.5623633,27.6158203 L13.5623633,28.4235547 L10.7412402,28.4235547 C9.14470703,28.4235547 7.8505957,27.1293066 7.8505957,25.5329102 L7.8505957,8.65197266 C7.8505957,7.05543945 9.14484375,5.76132813 10.7412402,5.76132813 L13.2393652,5.76132813 C13.5263379,5.76132813 13.7589648,5.52870117 13.7589648,5.24172852 C13.7589648,4.95475586 13.5263379,4.72212891 13.2393652,4.72212891 L10.7412402,4.72212891 C8.57076172,4.72212891 6.81132812,6.4815625 6.81132812,8.65204102 L6.81132812,25.5329102 C6.81132812,26.1066504 6.93587891,26.6514746 7.15791016,27.1433887 L0.162558594,33.9698926 C-0.0427929688,34.1703223 -0.0468261719,34.4993359 0.153603516,34.7046875 C0.255458984,34.8090039 0.390400391,34.8614355 0.525546875,34.8614355 C0.656386719,34.8614355 0.787363281,34.8122852 0.888466797,34.7137109 L7.72173828,28.0451855 C7.9774707,28.3520508 8.27927734,28.6187207 8.61594727,28.8361035 L4.7465332,34.0313477 C4.57515625,34.2615137 4.62273437,34.587041 4.85290039,34.7584863 C4.94607422,34.8279395 5.0549707,34.8613672 5.1628418,34.8613672 C5.32143555,34.8613672 5.47797852,34.789043 5.5799707,34.6520508 L6.58635742,33.3007227 L28.3092578,33.3007227 L29.4190039,34.7906152 C29.5210645,34.9276074 29.6775391,34.9999316 29.8361328,34.9999316 C29.9543945,34.9999316 30.07375,34.9597363 30.1724609,34.8760645 C30.3838281,34.6968945 30.4074121,34.3778613 30.2419141,34.155625 L26.2180078,28.7530469 C26.533418,28.5321777 26.8147168,28.2662598 27.0531543,27.9645898 L34.1113965,34.852207 C34.2124316,34.9507812 34.3434082,34.9999316 34.474248,34.9999316 C34.6093262,34.9999316 34.7444043,34.9475684 34.8461914,34.8431836 C35.0467578,34.637832 35.042793,34.3088184 34.8373047,34.108457 Z M17.0246973,2.73041016 C16.7407324,2.7303418 16.5097461,2.49935547 16.5097461,2.21539062 L16.5097461,1.03926758 L18.2008203,1.03926758 L18.2008203,2.21539062 C18.2008203,2.49935547 17.969834,2.73041016 17.6858008,2.73041016 L17.0246973,2.73041016 Z M14.6014941,27.6158203 C14.6014941,27.0831641 15.0348242,26.6499023 15.5674121,26.6499023 L19.143291,26.6499023 C19.6759473,26.6499023 20.109209,27.0832324 20.109209,27.6158203 L20.109209,28.4235547 L14.6015625,28.4235547 L14.6015625,27.6158203 L14.6014941,27.6158203 Z M27.5353613,32.2615918 L7.36045898,32.2615918 L9.57619141,29.2865918 C9.94444336,29.4010254 10.3356641,29.4628223 10.7410352,29.4628223 L14.0817578,29.4628223 L20.6287402,29.4628223 L23.9694629,29.4628223 C24.4297949,29.4628223 24.8714648,29.3825684 25.2823047,29.2365527 L27.5353613,32.2615918 Z" id="Shape"></path>
            <path d="M25.253457,9.2950293 L19.9010547,9.2950293 C19.6596094,8.11070313 18.6099512,7.21676758 17.3553516,7.21676758 C16.100752,7.21676758 15.0510937,8.11063477 14.8096484,9.2950293 L9.45758789,9.2950293 C9.17061523,9.2950293 8.93798828,9.52765625 8.93798828,9.81462891 L8.93798828,19.7914746 C8.93798828,20.0784473 9.17061523,20.3110742 9.45758789,20.3110742 L19.5440137,20.3110742 C19.8309863,20.3110742 20.0636133,20.0784473 20.0636133,19.7914746 C20.0636133,19.504502 19.8309863,19.271875 19.5440137,19.271875 L9.97711914,19.271875 L9.97711914,10.3342969 L14.8095117,10.3342969 C15.0508203,11.5187598 16.1006152,12.4129004 17.3552832,12.4129004 C18.6099512,12.4129004 19.6597461,11.5188281 19.9010547,10.3342969 L24.7337891,10.3342969 L24.7337891,19.271875 L21.9688574,19.271875 C21.6818848,19.271875 21.4492578,19.504502 21.4492578,19.7914746 C21.4492578,20.0784473 21.6818848,20.3110742 21.9688574,20.3110742 L25.2533887,20.3110742 C25.5403613,20.3110742 25.7729883,20.0784473 25.7729883,19.7914746 L25.7729883,9.81462891 L25.7730566,9.81462891 C25.773125,9.52765625 25.5404297,9.2950293 25.253457,9.2950293 Z M17.3552832,11.3735645 C16.4957324,11.3735645 15.7964844,10.6743164 15.7964844,9.81476562 C15.7964844,8.95521484 16.4957324,8.2559668 17.3552832,8.2559668 C18.214834,8.2559668 18.914082,8.95521484 18.914082,9.81476562 C18.914082,10.6743164 18.214834,11.3735645 17.3552832,11.3735645 Z" id="Shape"></path>
            <path d="M13.5262695,21.2117773 L9.45751953,21.2117773 C9.17054688,21.2117773 8.93791992,21.4444043 8.93791992,21.731377 L8.93791992,23.809502 C8.93791992,24.0964746 9.17054688,24.3291016 9.45751953,24.3291016 L13.5262695,24.3291016 C13.8132422,24.3291016 14.0458691,24.0964746 14.0458691,23.809502 L14.0458691,21.731377 C14.0458691,21.4444727 13.8132422,21.2117773 13.5262695,21.2117773 Z M13.0066016,23.2899023 L9.97711914,23.2899023 L9.97711914,22.2510449 L13.0066016,22.2510449 L13.0066016,23.2899023 Z" id="Shape"></path>
            <path d="M25.253457,21.2117773 L21.1846387,21.2117773 C20.897666,21.2117773 20.6650391,21.4444043 20.6650391,21.731377 L20.6650391,23.809502 C20.6650391,24.0964746 20.897666,24.3291016 21.1846387,24.3291016 L25.253457,24.3291016 C25.5404297,24.3291016 25.7730566,24.0964746 25.7730566,23.809502 L25.7730566,21.731377 C25.773125,21.4444727 25.5404297,21.2117773 25.253457,21.2117773 Z M24.7338574,23.2899023 L21.7043066,23.2899023 L21.7043066,22.2510449 L24.7338574,22.2510449 L24.7338574,23.2899023 Z" id="Shape"></path>
        </g>
    </g>
</svg>