
<svg width="40px" height="20px" viewBox="0 0 40 20" version="1.1" xmlns="http://www.w3.org/2000/svg" xmlns:xlink="http://www.w3.org/1999/xlink">
    <!-- Generator: Sketch 43.1 (39012) - http://www.bohemiancoding.com/sketch -->
    <desc>Created with Sketch.</desc>
    <defs></defs>
    <g id="Page-1" stroke="none" stroke-width="1" fill="none" fill-rule="evenodd">
        <g id="transfer" fill-rule="nonzero" fill="#000000">
            <g id="Group" transform="translate(7.556561, 11.312217)">
                <path d="M19.969457,4.64819005 L7.03846154,4.64819005 C6.72624435,4.64819005 6.47285068,4.39479638 6.47285068,4.08257918 C6.47285068,3.77036199 6.72624435,3.51696832 7.03846154,3.51696832 L19.969457,3.51696832 C20.2816742,3.51696832 20.5350678,3.77036199 20.5350678,4.08257918 C20.5350678,4.39479638 20.2816742,4.64819005 19.969457,4.64819005 Z" id="Shape"></path>
                <path d="M3.96266968,7.72511315 C1.95361991,7.72511315 0.319004523,6.09162896 0.319004523,4.08144796 C0.319004523,2.07126697 1.95248868,0.437782805 3.96266968,0.437782805 C5.97058824,0.437782805 7.60520362,2.07126697 7.60520362,4.08144796 C7.60520362,6.09162896 5.97058824,7.72511315 3.96266968,7.72511315 Z M3.96266968,1.57013575 C2.57692308,1.57013575 1.45022625,2.69683258 1.45022625,4.08257918 C1.45022625,5.46832579 2.57692308,6.59502262 3.96266968,6.59502262 C5.34728507,6.59502262 6.4739819,5.46832579 6.4739819,4.08257918 C6.4739819,2.69683258 5.34615385,1.57013575 3.96266968,1.57013575 Z" id="Shape"></path>
                <path d="M23.0475113,7.72511315 C21.0384615,7.72511315 19.4038462,6.09162896 19.4038462,4.08144796 C19.4038462,2.07126697 21.0373303,0.437782805 23.0475113,0.437782805 C25.0576923,0.437782805 26.6911765,2.07126697 26.6911765,4.08144796 C26.6911765,6.09162896 25.0565611,7.72511315 23.0475113,7.72511315 Z M23.0475113,1.57013575 C21.6617647,1.57013575 20.5350678,2.69683258 20.5350678,4.08257918 C20.5350678,5.46832579 21.6617647,6.59502262 23.0475113,6.59502262 C24.4332579,6.59502262 25.5599548,5.46832579 25.5599548,4.08257918 C25.5599548,2.69683258 24.4321267,1.57013575 23.0475113,1.57013575 Z" id="Shape"></path>
            </g>
            <path d="M27.530543,15.9604072 L14.5972851,15.9604072 C14.2850678,15.9604072 14.0316742,15.7070135 14.0316742,15.3947964 C14.0316742,15.0825792 14.2850678,14.8291855 14.5972851,14.8291855 L27.530543,14.8291855 C27.8427602,14.8291855 28.0961538,15.0825792 28.0961538,15.3947964 C28.0961538,15.7070135 27.8427602,15.9604072 27.530543,15.9604072 Z" id="Shape"></path>
            <path d="M36.3970588,15.9604072 L33.678733,15.9604072 C33.3665158,15.9604072 33.1131222,15.7070135 33.1131222,15.3947964 C33.1131222,15.0825792 33.3665158,14.8291855 33.678733,14.8291855 L36.3970588,14.8291855 C37.0972851,14.8291855 37.6843892,14.3269231 37.7918552,13.6346154 L38.3947964,9.77375569 C38.4366516,9.50339369 38.3699095,9.23416292 38.2036199,9.01583708 C38.0384615,8.79864254 37.7997738,8.66063346 37.5271493,8.62669685 L29.9920815,7.70814477 C29.8834842,7.69457015 29.780543,7.65045249 29.6968326,7.58031674 L22.8857466,1.85520362 C22.4366516,1.47737557 21.8653846,1.26923077 21.2771493,1.26923077 L10.6221719,1.26923077 C10.0961538,1.26923077 9.61312215,1.53393665 9.32918554,1.97737557 L6.14479638,6.96040724 C6.07352942,7.07466063 5.96153846,7.15837104 5.83257918,7.19683258 L1.98642534,8.35633485 C1.41515837,8.52828054 1.05542986,9.10180992 1.14705882,9.69230769 L1.68552036,13.1414027 C1.83823529,14.1176471 2.66628959,14.8269231 3.65497738,14.8269231 L8.438914,14.8269231 C8.75113123,14.8269231 9.00452492,15.0803168 9.00452492,15.3925339 C9.00452492,15.7047512 8.75113123,15.9581448 8.438914,15.9581448 L3.65271493,15.9581448 C2.10294118,15.9581448 0.803167423,14.8472851 0.56561086,13.3156108 L0.0271493212,9.86651585 C-0.150452488,8.72171946 0.549773755,7.60746606 1.65723982,7.27375565 L5.30429865,6.17420815 L8.37669685,1.36651584 C8.86877831,0.598416289 9.70814477,0.139140272 10.6221719,0.139140272 L21.2794118,0.139140272 C22.1323529,0.139140272 22.9615385,0.441176471 23.6142534,0.989819008 L30.2963801,6.60633484 L37.6651584,7.50452488 C38.2443439,7.57579185 38.7556561,7.86877831 39.1063348,8.33371038 C39.4581448,8.79751131 39.6018099,9.37104069 39.5124435,9.94796377 L38.9095022,13.8088235 C38.7160634,15.0554298 37.6583711,15.9604072 36.3970588,15.9604072 Z" id="Shape"></path>
            <path d="M23.9366516,8.14932123 L10.9638009,8.14932123 C10.6515837,8.14932123 10.3981901,7.89592762 10.3981901,7.58371041 C10.3981901,7.27149322 10.6515837,7.01809955 10.9638009,7.01809955 L23.9366516,7.01809955 C24.2488688,7.01809955 24.5022625,7.27149322 24.5022625,7.58371041 C24.5022625,7.89592762 24.2488688,8.14932123 23.9366516,8.14932123 Z" id="Shape"></path>
        </g>
    </g>
</svg>