
<svg width="45px" height="20px" viewBox="0 0 45 20" version="1.1" xmlns="http://www.w3.org/2000/svg" xmlns:xlink="http://www.w3.org/1999/xlink">
    <!-- Generator: Sketch 43.1 (39012) - http://www.bohemiancoding.com/sketch -->
    <desc>Created with Sketch.</desc>
    <defs></defs>
    <g id="Page-1" stroke="none" stroke-width="1" fill="none" fill-rule="evenodd">
        <g id="view" fill-rule="nonzero" fill="#000000">
            <path d="M22.6243796,19.969708 C17.3615329,19.969708 13.0769343,15.4953285 13.0769343,9.99890512 C13.0769343,8.7362044 13.310511,7.46605839 13.770365,6.22518248 C13.8433577,6.03540146 14.0550365,5.93321168 14.2448175,6.00620438 C14.4345986,6.07919708 14.5367883,6.29087591 14.4637956,6.48065694 C14.0331387,7.64124087 13.8141606,8.82372264 13.8141606,9.99890512 C13.8141606,15.0865694 17.7630657,19.2251825 22.6244526,19.2251825 C27.4857664,19.2251825 31.4346715,15.0865694 31.4346715,9.99890512 C31.4346715,4.91131387 27.4856934,0.77270073 22.6244526,0.77270073 C22.420073,0.77270073 22.2521168,0.604817518 22.2521168,0.400437956 C22.2521168,0.196058394 22.420073,0.0281751825 22.6244526,0.0281751825 C27.8872262,0.0281751825 32.1718978,4.50262774 32.1718978,9.99897808 C32.1791241,15.4954014 27.8944526,19.969708 22.6243796,19.969708 Z" id="Shape"></path>
            <path d="M44.2959124,10.3711679 C44.1937226,10.3711679 44.0914598,10.3273722 44.0184671,10.2471533 C43.9746715,10.1961314 39.7557664,5.45883212 33.1717518,2.75810219 C32.9819708,2.67781022 32.8943796,2.46613138 32.9673722,2.27635037 C33.0476642,2.08656934 33.259343,1.9989781 33.4491241,2.0719708 C40.2009489,4.83839416 44.5294161,9.70700728 44.5732117,9.75810216 C44.7045986,9.91138688 44.69,10.1448905 44.5367154,10.2763504 C44.4710949,10.3421168 44.3835037,10.3711679 44.2959124,10.3711679 Z" id="Shape"></path>
            <path d="M22.6243796,19.969708 C14.6316788,19.969708 8.93087592,17.3274453 5.55138686,15.1083942 C1.88715329,12.699635 0.142627738,10.3128467 0.0696350365,10.2178832 C-0.0471532846,10.050073 -0.0106569343,9.8237956 0.149927007,9.69963504 C0.317810219,9.58284672 0.544087591,9.61934304 0.668175182,9.77992704 L0.668175182,9.77992704 C0.682773722,9.8018248 2.42729927,12.1740876 5.99664234,14.509854 C9.28131384,16.6631387 14.8360584,19.2324087 22.6316788,19.2324087 C30.529489,19.2324087 35.9163504,16.670365 39.040511,14.5170803 C42.4346715,12.1886131 43.9748175,9.8236496 43.9894161,9.80175184 C44.0989051,9.62656936 44.3251825,9.58277376 44.500365,9.6922628 C44.6754745,9.80175184 44.719343,10.0280292 44.609854,10.2032117 C44.5441606,10.3054014 42.9894161,12.6922628 39.4857664,15.1082482 C36.2740146,17.320219 30.7338686,19.969708 22.6243796,19.969708 Z" id="Shape"></path>
            <path d="M0.36890511,10.3711679 C0.266715329,10.3711679 0.171824818,10.3346715 0.0988321168,10.2543796 C-0.0398540146,10.1010949 -0.0325547446,9.86759128 0.120729927,9.72883208 C0.149927007,9.70693432 2.79956204,7.27627738 6.86525547,4.88211679 C10.6316788,2.67043796 16.42,0.0281021898 22.6316788,0.0281021898 C22.8361314,0.0281021898 23.0040146,0.195985402 23.0040146,0.400364963 C23.0040146,0.604744526 22.8361314,0.772627738 22.6316788,0.772627738 C16.5951825,0.772627738 10.9382482,3.34927007 7.25941606,5.50985402 C3.25211679,7.86021898 0.653576642,10.2470803 0.624379562,10.2690511 C0.544087591,10.3346715 0.456423358,10.3711679 0.36890511,10.3711679 Z" id="Shape"></path>
        </g>
    </g>
</svg>