
<svg width="56px" height="30px" viewBox="0 0 56 30" version="1.1" xmlns="http://www.w3.org/2000/svg" xmlns:xlink="http://www.w3.org/1999/xlink">
    <!-- Generator: Sketch 43.1 (39012) - http://www.bohemiancoding.com/sketch -->
    <desc>Created with Sketch.</desc>
    <defs></defs>
    <g id="Page-1" stroke="none" stroke-width="1" fill="none" fill-rule="evenodd">
        <g id="view" fill-rule="nonzero">
            <circle id="Oval" fill="#CEE8FA" cx="13.4255435" cy="16.5471739" r="5.33771739"></circle>
            <path d="M13.4252174,23.3770652 C9.65913043,23.3770652 6.5951087,20.3131522 6.5951087,16.5469565 C6.5951087,12.7807609 9.65902174,9.71684783 13.4252174,9.71684783 C17.191413,9.71684783 20.2553261,12.7807609 20.2553261,16.5469565 C20.2553261,20.3131522 17.1913043,23.3770652 13.4252174,23.3770652 Z M13.4252174,12.7018478 C11.305,12.7018478 9.5798913,14.4269565 9.5798913,16.5471739 C9.5798913,18.6673913 11.305,20.3925 13.4252174,20.3925 C15.5454348,20.3925 17.2705435,18.6673913 17.2705435,16.5471739 C17.2705435,14.4269565 15.5455435,12.7018478 13.4252174,12.7018478 Z" id="Shape" fill="#2D527C"></path>
            <g id="Group" transform="translate(19.347826, 6.195652)" fill="#CEE8FA">
                <path d="M6.01032609,10.351413 C6.01032609,11.9398913 5.6973913,13.4545652 5.13380435,14.8406522 L11.8227174,14.8406522 C11.2593478,13.4545652 10.9461957,11.9398913 10.9461957,10.351413 C10.9461957,5.94913043 13.3317391,2.10652174 16.8790217,0.0382608696 L0.0773913043,0.0382608696 C3.62467391,2.10652174 6.01032609,5.94923913 6.01032609,10.351413 Z" id="Shape"></path>
                <ellipse id="Oval" cx="22.8793478" cy="10.3515217" rx="5.33771739" ry="5.33771739"></ellipse>
            </g>
            <g id="Group" fill="#2D527C">
                <path d="M42.2269565,23.3770652 C38.4608696,23.3770652 35.3968478,20.3131522 35.3968478,16.5469565 C35.3968478,12.7807609 38.4607609,9.71684783 42.2269565,9.71684783 C45.9931522,9.71684783 49.0570652,12.7807609 49.0570652,16.5469565 C49.0570652,20.3131522 45.9931522,23.3770652 42.2269565,23.3770652 Z M42.2269565,12.7018478 C40.1067391,12.7018478 38.3816304,14.4269565 38.3816304,16.5471739 C38.3816304,18.6673913 40.1066304,20.3925 42.2269565,20.3925 C44.3472826,20.3925 46.0722826,18.6673913 46.0722826,16.5471739 C46.0721739,14.4269565 44.3471739,12.7018478 42.2269565,12.7018478 Z" id="Shape"></path>
                <path d="M54.1597826,15.0546739 C53.3355435,15.0546739 52.6673913,15.7228261 52.6673913,16.5470652 C52.6673913,22.303913 47.9838043,26.9875 42.2269565,26.9875 C37.7927174,26.9875 33.9980435,24.2076087 32.4871739,20.3002174 C32.4568478,20.2218478 32.4263043,20.1436957 32.3980435,20.0648913 C32.37,19.9867391 32.3441304,19.9076087 32.3179348,19.8286957 C32.2907609,19.7470652 32.2632609,19.6655435 32.2382609,19.5834783 C32.2131522,19.5009783 32.1903261,19.4173913 32.1671739,19.333913 C32.1452174,19.255 32.1227174,19.1761957 32.1027174,19.0967391 C32.0798913,19.0061957 32.0598913,18.9145652 32.0394565,18.8230435 C32.0230435,18.7495652 32.0057609,18.6765217 31.9907609,18.6026087 C31.9708696,18.5032609 31.9540217,18.4028261 31.9370652,18.3025 C31.9255435,18.2348913 31.9127174,18.1673913 31.9026087,18.0995652 C31.8865217,17.9918478 31.873913,17.8828261 31.861087,17.7740217 C31.8538043,17.7120652 31.8447826,17.6503261 31.8386957,17.5882609 C31.8269565,17.4693478 31.8191304,17.3493478 31.811413,17.2293478 C31.8079348,17.176087 31.8026087,17.1230435 31.7998913,17.0696739 C31.791413,16.896413 31.7866304,16.7222826 31.7866304,16.5468478 C31.7866304,16.3907609 31.7915217,16.2359783 31.7983696,16.0815217 C31.8004348,16.035 31.8027174,15.988587 31.8054348,15.9421739 C31.8127174,15.8140217 31.8226087,15.686413 31.8346739,15.5595652 C31.8426087,15.4771739 31.8521739,15.3951087 31.8621739,15.3131522 C31.8701087,15.2466304 31.8784783,15.18 31.8875,15.113913 C32.1663043,13.123913 33.0178261,11.2608696 34.3126087,9.74945652 C34.3402174,9.7173913 34.3678261,9.6851087 34.3958696,9.65336957 C34.451087,9.59043478 34.5069565,9.52782609 34.563587,9.46619565 C34.6484783,9.37445652 34.7343478,9.28347826 34.8223913,9.19478261 C34.8528261,9.16402174 34.8844565,9.13423913 34.9153261,9.10369565 C34.9972826,9.02326087 35.0801087,8.94369565 35.1645652,8.86597826 C35.1905435,8.84195652 35.2165217,8.81793478 35.2427174,8.79423913 C35.4756522,8.58423913 35.7177174,8.38413043 35.968913,8.19554348 C35.978587,8.18826087 35.9882609,8.18086957 35.9978261,8.17380435 C36.2563043,7.98097826 36.523913,7.8 36.8,7.63130435 C36.8127174,7.62358696 36.8252174,7.61597826 36.8379348,7.60836957 C38.4120652,6.65576087 40.256413,6.10663043 42.2268478,6.10663043 C45.0156522,6.10663043 47.6375,7.1926087 49.6092391,9.16456522 C50.1921739,9.7475 51.1371739,9.7475 51.7197826,9.16456522 C52.3026087,8.58173913 52.3027174,7.63684783 51.7197826,7.05402174 C49.1842391,4.51826087 45.8127174,3.12184783 42.2266304,3.12184783 C39.9156522,3.12184783 37.7391304,3.70880435 35.8384783,4.74152174 L29.3182609,4.74152174 L29.3182609,1.52032609 C29.3182609,0.696086957 28.6501087,0.0279347826 27.8258696,0.0279347826 C27.0016304,0.0279347826 26.3334783,0.696086957 26.3334783,1.52032609 L26.3334783,4.74184783 L19.8132609,4.74184783 C17.9125,3.70913043 15.736087,3.12217391 13.4251087,3.12217391 C6.0225,3.12195652 0,9.14445652 0,16.5470652 C0,23.9497826 6.0225,29.9722826 13.4252174,29.9722826 C18.6797826,29.9722826 23.2381522,26.9373913 25.4416304,22.5286957 L30.2104348,22.5286957 C32.413913,26.9373913 36.9722826,29.9722826 42.2268478,29.9722826 C49.6295652,29.9722826 55.6520652,23.9497826 55.6520652,16.5470652 C55.6521739,15.7227174 54.9840217,15.0546739 54.1597826,15.0546739 Z M13.4252174,26.9875 C7.66836957,26.9875 2.98478261,22.3041304 2.98478261,16.5470652 C2.98478261,10.7902174 7.66836957,6.10663043 13.4252174,6.10663043 C15.3956522,6.10663043 17.2398913,6.65565217 18.8141304,7.60836957 C18.8268478,7.61597826 18.8394565,7.62358696 18.8520652,7.63130435 C19.1281522,7.7998913 19.3957609,7.98097826 19.6542391,8.17380435 C19.663913,8.18097826 19.673587,8.18826087 19.6831522,8.19554348 C19.9343478,8.38413043 20.176413,8.58434783 20.4093478,8.79423913 C20.4356522,8.81793478 20.4616304,8.84195652 20.4875,8.86597826 C20.5719565,8.94369565 20.6547826,9.02315217 20.7367391,9.10369565 C20.7676087,9.13413043 20.7992391,9.16402174 20.8296739,9.19478261 C20.9177174,9.28347826 21.003587,9.37445652 21.0884783,9.46619565 C21.1453261,9.52782609 21.2009783,9.59032609 21.2561957,9.65336957 C21.2842391,9.6851087 21.3118478,9.7173913 21.3394565,9.74945652 C22.6342391,11.2607609 23.4857609,13.123913 23.7645652,15.1138043 C23.7736957,15.1801087 23.7820652,15.2465217 23.7898913,15.3130435 C23.7997826,15.3951087 23.8092391,15.4770652 23.8173913,15.5594565 C23.8293478,15.6863043 23.8391304,15.813913 23.8466304,15.9420652 C23.8493478,15.9884783 23.8515217,16.035 23.8536957,16.081413 C23.8605435,16.2358696 23.8654348,16.3906522 23.8654348,16.5467391 C23.8654348,16.7220652 23.8607609,16.8963043 23.8521739,17.0695652 C23.8494565,17.1230435 23.8441304,17.1759783 23.8406522,17.2292391 C23.8329348,17.3492391 23.8251087,17.4692391 23.8133696,17.5881522 C23.8072826,17.6504348 23.7982609,17.7120652 23.7909783,17.773913 C23.7781522,17.8827174 23.7656522,17.9916304 23.7494565,18.0994565 C23.7393478,18.1673913 23.7265217,18.2347826 23.715,18.3023913 C23.6979348,18.4027174 23.681087,18.5031522 23.6613043,18.6025 C23.6465217,18.6761957 23.6290217,18.7494565 23.6126087,18.8229348 C23.5921739,18.9144565 23.5721739,19.006087 23.5493478,19.0966304 C23.5293478,19.1759783 23.5068478,19.2547826 23.4848913,19.3338043 C23.4617391,19.4172826 23.4390217,19.5007609 23.4138043,19.5833696 C23.3886957,19.6654348 23.3613043,19.7470652 23.3341304,19.828587 C23.3078261,19.9075 23.2820652,19.9867391 23.2540217,20.0647826 C23.2258696,20.143587 23.1951087,20.2217391 23.1648913,20.3001087 C21.6541304,24.2076087 17.8594565,26.9875 13.4252174,26.9875 Z M29.138913,19.543913 L26.5131522,19.543913 C26.5202174,19.5130435 26.526087,19.4819565 26.5330435,19.451087 C26.5505435,19.3718478 26.5679348,19.2927174 26.5841304,19.2130435 C26.5942391,19.1631522 26.6033696,19.1133696 26.6129348,19.0633696 C26.6254348,18.9972826 26.6380435,18.9313043 26.6496739,18.8648913 C26.6592391,18.8102174 26.6680435,18.7555435 26.6769565,18.7008696 C26.6870652,18.6384783 26.6969565,18.5759783 26.7061957,18.5131522 C26.7145652,18.4566304 26.7225,18.3998913 26.7301087,18.3433696 C26.7384783,18.2816304 26.7461957,18.2197826 26.7536957,18.1577174 C26.7605435,18.1006522 26.7671739,18.0436957 26.7732609,17.9865217 C26.78,17.9233696 26.786087,17.8601087 26.7919565,17.7967391 C26.7971739,17.741087 26.8023913,17.6855435 26.8068478,17.6297826 C26.8121739,17.5622826 26.8167391,17.4945652 26.8209783,17.4268478 C26.8244565,17.3751087 26.8281522,17.3232609 26.8308696,17.2713043 C26.835,17.1938043 26.8379348,17.116087 26.8405435,17.0381522 C26.8420652,16.9956522 26.8442391,16.9530435 26.8454348,16.9105435 C26.8486957,16.7897826 26.8505435,16.668587 26.8505435,16.5471739 C26.8505435,16.3509783 26.8454348,16.1558696 26.8369565,15.9617391 C26.836413,15.9484783 26.836087,15.935 26.8354348,15.9216304 C26.691087,12.7929348 25.4711957,9.94054348 23.5373913,7.72641304 L32.1147826,7.72641304 C30.1809783,9.94054348 28.961087,12.7929348 28.8167391,15.9216304 C28.8161957,15.9348913 28.8158696,15.9483696 28.8152174,15.9617391 C28.8068478,16.156087 28.8016304,16.3509783 28.8016304,16.5471739 C28.8016304,16.6686957 28.8033696,16.7898913 28.8067391,16.9105435 C28.8079348,16.9532609 28.81,16.9956522 28.8116304,17.0381522 C28.8144565,17.1158696 28.8172826,17.1938043 28.8213043,17.2713043 C28.8240217,17.3232609 28.8278261,17.3748913 28.8311957,17.4268478 C28.8355435,17.4945652 28.84,17.5623913 28.8453261,17.6297826 C28.8497826,17.6854348 28.855,17.741087 28.8602174,17.7967391 C28.866087,17.8602174 28.8721739,17.9234783 28.878913,17.9865217 C28.885,18.0436957 28.8917391,18.1006522 28.8984783,18.1577174 C28.9059783,18.2196739 28.9136957,18.2816304 28.9220652,18.3433696 C28.9296739,18.4001087 28.9376087,18.4567391 28.9459783,18.5131522 C28.9552174,18.5758696 28.9651087,18.6383696 28.9752174,18.7008696 C28.9840217,18.7556522 28.9929348,18.8102174 29.0025,18.8648913 C29.0141304,18.9313043 29.0266304,18.9973913 29.0392391,19.0633696 C29.0488043,19.1132609 29.0579348,19.1632609 29.0680435,19.2130435 C29.0841304,19.2927174 29.1015217,19.3719565 29.1191304,19.451087 C29.1259783,19.4819565 29.1319565,19.5131522 29.138913,19.543913 Z" id="Shape"></path>
            </g>
        </g>
    </g>
</svg>