
<svg width="46px" height="35px" viewBox="0 0 46 35" version="1.1" xmlns="http://www.w3.org/2000/svg" xmlns:xlink="http://www.w3.org/1999/xlink">
    <!-- Generator: Sketch 43.1 (39012) - http://www.bohemiancoding.com/sketch -->
    <desc>Created with Sketch.</desc>
    <defs></defs>
    <g id="Page-1" stroke="none" stroke-width="1" fill="none" fill-rule="evenodd">
        <g id="yacht" fill-rule="nonzero" fill="#000000">
            <path d="M44.408078,27.2980501 L33.1025905,27.2980501 L34.9221031,23.6779387 C35.0380223,23.4472702 35.0236908,23.1725348 34.8844708,22.9551253 C34.7451532,22.7377159 34.5014206,22.6102925 34.2435515,22.6187744 L18.6211699,23.1575209 L18.6211699,21.6847911 L37.4468802,20.1787187 C37.7425766,20.1550279 37.9946936,19.9550696 38.0850696,19.6725348 C38.1753482,19.39 38.0860446,19.0808496 37.8588858,18.8900557 L18.6211699,2.73029248 L18.6211699,0.731197772 C18.6211699,0.327381616 18.2937883,0 17.8899721,0 C17.486156,0 17.1587744,0.327381616 17.1587744,0.731197772 L17.1587744,7.60611421 L11.7542479,20.7314067 C11.6683565,20.9400418 11.6835655,21.1766574 11.7954875,21.3726184 C11.9074095,21.5684819 12.1035655,21.7017549 12.326922,21.7337326 L17.1587744,22.4239833 L17.1587744,23.2080223 L11.6252646,23.3988162 C11.410585,23.4062256 11.2100418,23.5076184 11.0768663,23.6761838 C10.9436908,23.8447493 10.891337,24.0633287 10.933649,24.2739136 L11.5422981,27.2981476 L0.731197772,27.2981476 C0.327381616,27.2981476 0,27.6255292 0,28.0293454 C0,28.4331616 0.327381616,28.7605432 0.731197772,28.7605432 L44.408078,28.7605432 C44.8118942,28.7605432 45.1392758,28.4331616 45.1392758,28.0293454 C45.1392758,27.6255292 44.8118942,27.2980501 44.408078,27.2980501 Z M35.553273,18.8631476 L18.6211699,20.2177159 L18.6211699,7.74786908 L18.6211699,7.74133705 L18.6211699,4.64008357 L35.553273,18.8631476 Z M13.4643733,20.418844 L17.1587744,11.4468524 L17.1587744,20.9465738 L13.4643733,20.418844 Z M12.5374095,24.8305989 L33.0618384,24.1227994 L31.4658774,27.2980501 L13.0339415,27.2980501 L12.5374095,24.8305989 Z" id="Shape"></path>
            <path d="M30.3690808,30.4178273 L16.3300836,30.4178273 C15.9262674,30.4178273 15.5988858,30.7452089 15.5988858,31.1490251 C15.5988858,31.5528412 15.9262674,31.8802228 16.3300836,31.8802228 L30.3690808,31.8802228 C30.7728969,31.8802228 31.1002786,31.5528412 31.1002786,31.1490251 C31.1002786,30.7452089 30.7728969,30.4178273 30.3690808,30.4178273 Z" id="Shape"></path>
            <path d="M13.2103064,30.4178273 L6.97075209,30.4178273 C6.56693593,30.4178273 6.23955432,30.7452089 6.23955432,31.1490251 C6.23955432,31.5528412 6.56693593,31.8802228 6.97075209,31.8802228 L13.2103064,31.8802228 C13.6141226,31.8802228 13.9415042,31.5528412 13.9415042,31.1490251 C13.9415042,30.7452089 13.6142201,30.4178273 13.2103064,30.4178273 Z" id="Shape"></path>
            <path d="M35.0487465,30.4178273 L33.4888579,30.4178273 C33.0850418,30.4178273 32.7576602,30.7452089 32.7576602,31.1490251 C32.7576602,31.5528412 33.0850418,31.8802228 33.4888579,31.8802228 L35.0487465,31.8802228 C35.4525627,31.8802228 35.7799443,31.5528412 35.7799443,31.1490251 C35.7799443,30.7452089 35.4525627,30.4178273 35.0487465,30.4178273 Z" id="Shape"></path>
            <path d="M28.8091922,33.5376045 L21.0098468,33.5376045 C20.6060306,33.5376045 20.278649,33.8649861 20.278649,34.2688022 C20.278649,34.6726184 20.6060306,35 21.0098468,35 L28.8091922,35 C29.2130084,35 29.54039,34.6726184 29.54039,34.2688022 C29.54039,33.8649861 29.2130084,33.5376045 28.8091922,33.5376045 Z" id="Shape"></path>
            <path d="M17.8900696,33.5376045 L16.3300836,33.5376045 C15.9262674,33.5376045 15.5988858,33.8649861 15.5988858,34.2688022 C15.5988858,34.6726184 15.9262674,35 16.3300836,35 L17.8900696,35 C18.2938858,35 18.6212674,34.6726184 18.6212674,34.2688022 C18.6212674,33.8649861 18.2938858,33.5376045 17.8900696,33.5376045 Z" id="Shape"></path>
        </g>
    </g>
</svg>