
<svg width="37px" height="37px" viewBox="0 0 37 37" version="1.1" xmlns="http://www.w3.org/2000/svg" xmlns:xlink="http://www.w3.org/1999/xlink">
    <!-- Generator: Sketch 43.1 (39012) - http://www.bohemiancoding.com/sketch -->
    <desc>Created with Sketch.</desc>
    <defs></defs>
    <g id="Page-1" stroke="none" stroke-width="1" fill="none" fill-rule="evenodd">
        <g id="Group" transform="translate(1.000000, 1.000000)">
            <g id="aeroplane" transform="translate(18.000000, 17.500000) scale(1, -1) translate(-18.000000, -17.500000) translate(8.000000, 8.000000)" fill-rule="nonzero" fill="#000000">
                <path d="M18.8777901,0.258962963 C18.5575267,0.0587983539 18.1972305,-0.0212674897 17.7568683,0.0187654321 C16.9962428,0.138864198 16.355716,0.41909465 15.7552222,0.85945679 C15.2347942,1.25978601 14.6343004,1.74018107 13.9537407,2.30064198 C13.6334774,2.58087243 13.313214,2.86110288 12.9929506,3.14133333 C12.792786,3.34149794 12.5926214,3.50162963 12.3924568,3.70179424 C12.1922922,3.86192593 12.0321605,3.94199177 11.791963,3.90195885 C11.6718642,3.86192593 11.5117325,3.821893 11.3516008,3.78186008 L3.86544444,0.979555556 C3.62524691,0.899489712 3.38504938,0.819423868 3.10481893,0.739358025 C2.54435802,0.579226337 2.14402881,0.739358025 1.90383128,0.939522634 C1.46346914,1.25978601 1.10317284,1.66011523 0.862975309,2.10047737 C0.582744856,2.54083951 0.6628107,3.02123457 1.06313992,3.38153086 C1.2232716,3.54166255 1.38340329,3.66176132 1.50350206,3.74182716 C2.8646214,4.70261728 4.26577366,5.62337449 5.626893,6.58416461 C6.14732099,6.94446091 6.62771605,7.26472428 6.98801235,7.70508642 C7.06807819,7.82518519 7.14814403,7.90525103 7.22820988,8.02534979 L4.62606996,10.5073909 C4.34583951,10.7876214 4.06560905,11.0278189 3.7853786,11.3080494 C3.74534568,11.3080494 3.70531276,11.2680165 3.66527984,11.2680165 L3.2249177,11.0678519 C2.8646214,10.9077202 2.54435802,10.7075556 2.18406173,10.5474239 C1.74369959,10.3472593 1.26330453,10.3872922 0.90300823,10.7075556 C0.702843621,10.8676872 0.502679012,11.0678519 0.302514403,11.2680165 C-0.057781893,11.6283128 -0.0978148148,12.0686749 0.22244856,12.4690041 C0.302514403,12.5891029 0.382580247,12.6691687 0.462646091,12.7492346 L1.2232716,13.7100247 C2.10399588,14.8709794 3.02475309,16.0319342 3.94551029,17.152856 C4.06560905,17.3129877 4.18570782,17.4330864 4.34583951,17.5131523 C4.50597119,17.5932181 4.82623457,17.7933827 5.22656379,17.673284 C5.70695885,17.5131523 6.06725514,17.1928889 6.22738683,16.7124938 C6.38751852,16.3121646 6.42755144,15.8718025 6.26741975,15.3914074 L6.18735391,15.0311111 L5.94715638,14.070321 C7.02804527,13.2296296 8.10893416,12.4289712 9.14979012,11.5882798 L9.67021811,11.1879506 L9.79031687,11.3881152 C10.0705473,11.8284774 10.3107449,12.2688395 10.4708765,12.7492346 L12.3123909,17.4731193 C12.4324897,17.7533498 12.5125556,18.0335802 12.6326543,18.2737778 C12.8328189,18.7141399 13.1530823,18.9543374 13.5534115,18.9543374 C13.7135432,18.9543374 13.8736749,18.9143045 14.0338066,18.8342387 C14.1539053,18.7942058 14.2740041,18.7541728 14.35407,18.674107 C14.9945967,18.3538436 15.3949259,17.9134815 15.5550576,17.3129877 C15.6751564,16.8325926 15.6351235,16.3922305 15.5950905,16.0719671 L14.6343004,9.06620576 C14.5542346,8.50574486 14.4741687,7.90525103 14.3941029,7.34479012 C14.35407,7.06455967 14.4341358,6.90442798 14.6343004,6.7442963 L15.4749918,6.0237037 C16.1555514,5.4632428 16.7960782,4.90278189 17.4766379,4.34232099 C18.0370988,3.86192593 18.3973951,3.42156379 18.7176584,2.94116872 C18.957856,2.58087243 19.1980535,2.14051029 19.3181523,1.66011523 C19.5183169,1.13968724 19.3181523,0.579226337 18.8777901,0.258962963 Z M18.5575267,1.49998354 C18.437428,1.90031276 18.2372634,2.26060905 18.0370988,2.58087243 C17.7969012,2.98120165 17.4366049,3.38153086 16.9562099,3.78186008 C16.3156831,4.34232099 15.6351235,4.90278189 14.9545638,5.4632428 L14.1539053,6.14380247 C13.7135432,6.46406584 13.5133786,6.94446091 13.5934444,7.50492181 C13.6735103,8.06538272 13.7535761,8.62584362 13.833642,9.22633745 L14.7944321,16.2320988 C14.834465,16.632428 14.834465,16.9126584 14.7543992,17.152856 C14.6343004,17.5131523 14.3941029,17.7933827 13.9937737,17.9935473 C13.9137078,18.0335802 13.833642,18.0736132 13.7135432,18.1136461 C13.4733457,18.1937119 13.3932798,18.153679 13.313214,17.9535144 C13.1931152,17.7133169 13.1130494,17.4330864 12.9929506,17.152856 L11.2315021,12.4289712 C11.0313374,11.9085432 10.751107,11.4281481 10.4708765,10.9477531 L10.230679,10.5474239 L9.87038272,10.0269959 L8.62936214,10.9477531 C7.50844033,11.7884444 6.38751852,12.6691687 5.30662963,13.5098601 C5.02639918,13.7100247 5.0664321,13.9502222 5.10646502,14.1103539 C5.18653086,14.4706502 5.30662963,14.8309465 5.38669547,15.1912428 L5.46676132,15.5515391 C5.54682716,15.8718025 5.54682716,16.1520329 5.4267284,16.3922305 C5.30662963,16.632428 5.14649794,16.7925597 4.86626749,16.8726255 C4.86626749,16.8726255 4.78620165,16.8726255 4.66610288,16.7925597 C4.58603704,16.7525267 4.50597119,16.6724609 4.46593827,16.5923951 C3.54518107,15.4314403 2.66445679,14.3105185 1.78373251,13.1495638 L1.023107,12.1887737 C0.943041152,12.1087078 0.90300823,12.028642 0.822942387,11.9085432 C0.782909465,11.8685103 0.782909465,11.8284774 0.782909465,11.8284774 L0.862975309,11.7484115 C1.023107,11.5882798 1.2232716,11.3881152 1.38340329,11.2680165 C1.50350206,11.1479177 1.66363374,11.1479177 1.82376543,11.2279835 C2.18406173,11.3881152 2.5043251,11.5482469 2.8646214,11.7484115 L3.30498354,11.9485761 C3.38504938,11.9886091 3.46511523,12.028642 3.54518107,12.0686749 C3.74534568,12.1887737 3.98554321,12.1487407 4.18570782,11.9886091 C4.50597119,11.6683457 4.82623457,11.3881152 5.14649794,11.0678519 L7.90876955,8.46571193 L8.22903292,8.14544856 L8.02886831,7.86521811 C7.98883539,7.78515226 7.94880247,7.74511934 7.90876955,7.6650535 C7.78867078,7.50492181 7.70860494,7.34479012 7.58850617,7.22469136 C7.14814403,6.70426337 6.62771605,6.30393416 6.06725514,5.94363786 C4.7061358,5.02288066 3.30498354,4.06209053 1.9438642,3.10130041 C1.82376543,3.02123457 1.70366667,2.94116872 1.5835679,2.82106996 C1.46346914,2.70097119 1.46346914,2.66093827 1.54353498,2.58087243 C1.74369959,2.22057613 2.06396296,1.90031276 2.42425926,1.6200823 C2.5043251,1.54001646 2.62442387,1.49998354 2.90465432,1.58004938 C3.18488477,1.66011523 3.4250823,1.74018107 3.62524691,1.82024691 L11.1114033,4.62255144 C11.3115679,4.70261728 11.5117325,4.74265021 11.6718642,4.78268313 C12.1122263,4.86274897 12.5525885,4.74265021 12.9128848,4.42238683 C13.1130494,4.22222222 13.313214,4.06209053 13.5133786,3.86192593 C13.833642,3.58169547 14.1539053,3.30146502 14.4741687,3.02123457 C15.1547284,2.46077366 15.7151893,1.9803786 16.2356173,1.58004938 C16.7160123,1.21975309 17.2764733,0.979555556 17.8769671,0.899489712 C18.0771317,0.85945679 18.2372634,0.899489712 18.3973951,0.979555556 C18.5575267,1.01958848 18.6375926,1.25978601 18.5575267,1.49998354 Z" id="Shape"></path>
            </g>
            <circle id="Oval" stroke="#000000" cx="17.5" cy="17.5" r="17.5"></circle>
        </g>
    </g>
</svg>