
<svg width="50px" height="50px" viewBox="0 0 50 50" version="1.1" xmlns="http://www.w3.org/2000/svg" xmlns:xlink="http://www.w3.org/1999/xlink">
    <!-- Generator: Sketch 43.1 (39012) - http://www.bohemiancoding.com/sketch -->
    <desc>Created with Sketch.</desc>
    <defs></defs>
    <g id="Page-1" stroke="none" stroke-width="1" fill="none" fill-rule="evenodd">
        <g id="Artboard-1" transform="translate(-649.000000, -317.000000)" stroke="#9CAFC3" stroke-width="2">
            <g id="Group-4" transform="translate(650.000000, 318.000000)">
                <path d="M0,24 C0,10.7451773 10.7453954,0 24.0004871,0 C37.2546028,0 48,10.7461532 48,24 C48,37.2567718 37.2546037,48 24.0004871,48 C10.7453954,48 0,37.2567718 0,24 Z M26.5259611,29.6955987 C24.2422768,28.9343443 19.6735726,24.3654826 18.9123443,22.081719 C18.9123443,21.3204647 21.1960287,19.0353661 21.1960287,18.2741115 C20.4348006,16.7516028 18.1497809,12.9439954 16.6273245,12.1827411 C15.1048683,12.1827411 12.0586204,15.229094 12.0586204,16.7516029 C13.5824121,24.3654826 24.2409407,35.0270502 31.8545576,36.5482234 C33.3783493,36.5482234 36.4245971,33.5032059 36.4245971,31.9793615 C34.9008054,30.4555172 31.8545576,28.171754 30.3321015,27.4104997 C29.5708719,27.4105019 27.2871583,29.6955987 26.5259611,29.6955987 Z" id="Phone-Icon-2"></path>
            </g>
        </g>
    </g>
</svg>