
<svg width="42px" height="42px" viewBox="0 0 42 42" version="1.1" xmlns="http://www.w3.org/2000/svg" xmlns:xlink="http://www.w3.org/1999/xlink">
    <!-- Generator: Sketch 43.1 (39012) - http://www.bohemiancoding.com/sketch -->
    <desc>Created with Sketch.</desc>
    <defs></defs>
    <g id="Page-1" stroke="none" stroke-width="1" fill="none" fill-rule="evenodd">
        <g id="call24" fill-rule="nonzero" fill="#15386E">
            <path d="M29.8397647,41.8418824 C28.3117059,41.8418824 26.4661765,41.4589412 24.4378235,40.6930588 C19.9870588,39.0155294 15.1459412,35.7 10.8051176,31.3591765 C6.46305882,27.0183529 3.14876471,22.176 1.47,17.7264706 C-0.0568235294,13.6808824 -0.0605294118,10.3591765 1.45764706,8.841 C1.67629412,8.62111765 1.89988235,8.38641176 2.12964706,8.14552941 C3.51811765,6.68788235 5.11288235,5.03258824 7.16223529,5.12029412 C8.59517647,5.17958824 9.98241176,6.069 11.4042353,7.83547059 C15.5992941,13.0558235 13.7092941,14.9161765 11.5203529,17.073 L11.1337059,17.4559412 C10.7754706,17.8141765 10.0972941,19.4731765 16.3960588,25.7707059 C18.4515882,27.8262353 20.2044706,29.3308235 21.6052941,30.2412353 C22.4885294,30.8156471 24.0635294,31.6815882 24.7108235,31.0342941 L25.0999412,30.6414706 C27.2555294,28.455 29.1158824,26.5699412 34.3325294,30.7637647 C36.1002353,32.1831176 36.9871765,33.5703529 37.0477059,35.0045294 C37.1329412,37.0810588 35.4788824,38.6511176 34.02,40.0383529 C33.7803529,40.2668824 33.5444118,40.4892353 33.3257647,40.7078824 C32.5672941,41.4626471 31.3616471,41.8418824 29.8397647,41.8418824 Z M7.01647059,6.35188235 C5.54029412,6.35188235 4.20617647,7.75517647 3.02647059,8.99664706 C2.78929412,9.24370588 2.55829412,9.48705882 2.33223529,9.71311765 C1.20070588,10.8434118 1.31682353,13.818 2.62623529,17.2904118 C4.24447059,21.5793529 7.45870588,26.2660588 11.6784706,30.4870588 C15.8982353,34.7055882 20.5837059,37.9210588 24.8738824,39.5380588 C28.3487647,40.8499412 31.3208824,40.9611176 32.4524118,39.8308235 C32.6784706,39.6047647 32.9205882,39.375 33.1688824,39.1378235 C34.4375294,37.9321765 35.8754118,36.5671765 35.8124118,35.0514706 C35.7704118,34.0088824 35.0119412,32.8897059 33.558,31.7223529 C29.2097647,28.2277059 27.9954706,29.4605294 25.9794706,31.5049412 L25.5841765,31.9039412 C24.6218824,32.8687059 23.0555294,32.6537647 20.9320588,31.2739412 C19.4595882,30.3165882 17.6387647,28.7564118 15.5227059,26.6403529 C10.2961765,21.4138235 8.62358824,18.2168824 10.2603529,16.5776471 L10.6531765,16.1885294 C12.7012941,14.1725294 13.9378235,12.9557647 10.4419412,8.60629412 C9.27335294,7.15482353 8.15417647,6.39635294 7.11158824,6.35311765 C7.07947059,6.35188235 7.04735294,6.35188235 7.01647059,6.35188235 Z" id="Shape"></path>
            <path d="M33.9434118,31.8594706 C33.7531765,31.8594706 33.5654118,31.7717647 33.4443529,31.6062353 C33.2442353,31.3295294 33.3047647,30.9441176 33.579,30.7427647 C34.8587647,29.8088824 35.9964706,28.6946471 36.96,27.4284706 C39.1341176,24.5712353 40.2829412,21.1568824 40.2829412,17.556 C40.2841765,8.55688235 32.9638235,1.23529412 23.9647059,1.23529412 C21.2384118,1.23529412 18.5392941,1.92211765 16.1613529,3.21794118 C15.8624118,3.38347059 15.4868824,3.27352941 15.3238235,2.97211765 C15.1595294,2.67317647 15.2707059,2.29764706 15.5696471,2.13458824 C18.1291765,0.738705882 21.0321176,0 23.9647059,0 C33.6444706,0 41.5194706,7.875 41.5194706,17.556 C41.5194706,21.4298824 40.2829412,25.1011765 37.9420588,28.1770588 C36.9068824,29.5383529 35.6839412,30.7365882 34.3078235,31.7421176 C34.1991176,31.8211765 34.0706471,31.8594706 33.9434118,31.8594706 Z" id="Shape"></path>
            <g id="Group" transform="translate(19.529412, 9.882353)">
                <path d="M0.998705882,0.995647059 C1.73494118,0.773294118 2.44152941,0.634941176 3.20370588,0.634941176 C5.17523529,0.634941176 6.38088235,1.61947059 6.38088235,3.29823529 C6.38088235,4.22717647 5.867,4.935 4.77129412,5.65641176 L2.56629412,7.14 C1.88564706,7.59829412 1.58052941,8.31970588 1.58052941,9.09670588 L6.08811765,9.09670588 C6.18570588,9.09670588 6.24129412,9.15229412 6.24129412,9.24864706 L6.24129412,10.3171765 C6.24129412,10.4135294 6.18570588,10.4691176 6.08811765,10.4691176 L0.164882353,10.4691176 C0.0685294118,10.4691176 0.0129411765,10.4135294 0.0129411765,10.3171765 L0.0129411765,9.65135294 C0.0129411765,7.959 0.567588235,6.73852941 1.81523529,5.91952941 L4.00788235,4.46311765 C4.56252941,4.08758824 4.81082353,3.72688235 4.81082353,3.29823529 C4.81082353,2.52123529 4.20058824,2.02217647 3.20123529,2.02217647 C2.57741176,2.02217647 1.98076471,2.13335294 1.45452941,2.31247059 L0.649117647,2.57682353 C0.567588235,2.604 0.497176471,2.562 0.468764706,2.47923529 L0.122882353,1.43911765 C0.0808823529,1.35635294 0.122882353,1.28594118 0.219235294,1.25876471 L0.998705882,0.995647059 Z" id="Shape"></path>
                <path d="M14.9439412,7.83423529 C14.9439412,7.93182353 14.8883529,7.98741176 14.792,7.98741176 L13.9322353,7.98741176 L13.9322353,10.3184118 C13.9322353,10.4147647 13.8766471,10.4703529 13.7790588,10.4703529 L12.5314118,10.4703529 C12.4338235,10.4703529 12.3782353,10.4147647 12.3782353,10.3184118 L12.3782353,7.98741176 L7.72982353,7.98741176 C7.63347059,7.98741176 7.57788235,7.93182353 7.57788235,7.83423529 L7.57788235,6.66935294 C7.57788235,6.58658824 7.59270588,6.531 7.64829412,6.47541176 C7.99417647,6.07394118 8.29929412,5.69841176 8.63282353,5.24135294 L11.1997647,1.93941176 C11.4628824,1.59229412 11.6704118,1.25876471 11.9063529,0.870882353 C11.9619412,0.801705882 12.0175294,0.774529412 12.1002941,0.774529412 L13.7778235,0.774529412 C13.8754118,0.774529412 13.931,0.830117647 13.931,0.926470588 L13.931,6.61376471 L14.7907647,6.61376471 C14.8871176,6.61376471 14.9427059,6.66935294 14.9427059,6.76694118 L14.9427059,7.83423529 L14.9439412,7.83423529 Z M12.3782353,4.21358824 C12.3782353,3.77011765 12.4054118,3.32541176 12.461,2.85352941 C12.4881765,2.68676471 12.3646471,2.64476471 12.2534706,2.79794118 L10.0052353,5.65517647 C9.82488235,5.90470588 9.56176471,6.22341176 9.36782353,6.40376471 C9.27023529,6.51494118 9.32582353,6.61129412 9.437,6.61129412 L12.3782353,6.61129412 L12.3782353,4.21358824 L12.3782353,4.21358824 Z" id="Shape"></path>
            </g>
        </g>
    </g>
</svg>