
<svg width="10px" height="10px" viewBox="0 0 10 10" version="1.1" xmlns="http://www.w3.org/2000/svg" xmlns:xlink="http://www.w3.org/1999/xlink">
    <!-- Generator: Sketch 43.1 (39012) - http://www.bohemiancoding.com/sketch -->
    <desc>Created with Sketch.</desc>
    <defs></defs>
    <g id="Page-1" stroke="none" stroke-width="1" fill="none" fill-rule="evenodd">
        <g id="correct" fill-rule="nonzero" fill="#3F973F">
            <path d="M2.94871795,4.70940171 C2.81196581,4.57264957 2.58974359,4.57264957 2.45299145,4.70940171 C2.31623932,4.84615385 2.31623932,5.06837607 2.45299145,5.20512821 L4.06837607,6.82051282 C4.13675214,6.88888889 4.22222222,6.92307692 4.31623932,6.92307692 L4.33333333,6.92307692 C4.42735043,6.91452991 4.52136752,6.87179487 4.58974359,6.79487179 L8.63247863,1.94871795 C8.75213675,1.8034188 8.73504274,1.58119658 8.58974359,1.45299145 C8.44444444,1.33333333 8.22222222,1.35042735 8.09401709,1.4957265 L4.29059829,6.05128205 L2.94871795,4.70940171 L2.94871795,4.70940171 Z" id="Shape"></path>
            <path d="M7.61538462,0.794871795 C5.64957265,-0.435897436 3.12820513,-0.145299145 1.48717949,1.4957265 C-0.444444444,3.42735043 -0.444444444,6.58119658 1.48717949,8.51282051 C2.45299145,9.47863248 3.72649573,9.96581197 4.99145299,9.96581197 C6.25641026,9.96581197 7.52991453,9.47863248 8.4957265,8.51282051 C10.1452991,6.86324786 10.4273504,4.33333333 9.18803419,2.36752137 C9.08547009,2.20512821 8.87179487,2.15384615 8.70940171,2.25641026 C8.54700855,2.35897436 8.4957265,2.57264957 8.5982906,2.73504274 C9.66666667,4.42735043 9.41880342,6.5982906 8,8.01709402 C6.34188034,9.67521368 3.63247863,9.67521368 1.97435897,8.01709402 C0.316239316,6.35897436 0.316239316,3.64957265 1.97435897,1.99145299 C3.39316239,0.581196581 5.55555556,0.333333333 7.24786325,1.38461538 C7.41025641,1.48717949 7.62393162,1.43589744 7.72649573,1.27350427 C7.82905983,1.11111111 7.77777778,0.897435897 7.61538462,0.794871795 L7.61538462,0.794871795 Z" id="Shape"></path>
        </g>
    </g>
</svg>