
<svg width="13px" height="13px" viewBox="0 0 13 13" version="1.1" xmlns="http://www.w3.org/2000/svg" xmlns:xlink="http://www.w3.org/1999/xlink">
    <!-- Generator: Sketch 43.1 (39012) - http://www.bohemiancoding.com/sketch -->
    <desc>Created with Sketch.</desc>
    <defs></defs>
    <g id="Page-1" stroke="none" stroke-width="1" fill="none" fill-rule="evenodd">
        <g id="heart" fill-rule="nonzero" fill="#E768A4">
            <path d="M9.66875,0 C8.6125,0 7.23125,0.56875 6.5,2.1125 C5.76875,0.56875 4.3875,0 3.33125,0 C1.70625,0 0,1.21875 0,3.81875 C0,5.6875 1.05625,7.71875 3.16875,9.66875 C4.7125,11.13125 6.25625,12.025 6.3375,12.10625 C6.41875,12.10625 6.41875,12.1875 6.5,12.1875 C6.58125,12.1875 6.6625,12.1875 6.6625,12.10625 C6.74375,12.10625 8.2875,11.13125 9.83125,9.66875 C11.94375,7.6375 13,5.6875 13,3.81875 C13,1.21875 11.29375,0 9.66875,0 L9.66875,0 Z" id="coeur_43_"></path>
        </g>
    </g>
</svg>