
<svg width="32px" height="32px" viewBox="0 0 32 32" version="1.1" xmlns="http://www.w3.org/2000/svg" xmlns:xlink="http://www.w3.org/1999/xlink">
    <!-- Generator: Sketch 43.1 (39012) - http://www.bohemiancoding.com/sketch -->
    <desc>Created with Sketch.</desc>
    <defs></defs>
    <g id="Page-1" stroke="none" stroke-width="1" fill="none" fill-rule="evenodd">
        <path d="M1,16 C1,24.2875 7.7125,31 16,31 C24.2875,31 31,24.2875 31,16 C31,7.7125 24.2875,1 16,1 C7.7125,1 1,7.7125 1,16 L1,16 Z M6.04375,7.28125 C4.75,7.975 5.21875,6.79375 5.74375,6.2875 L5.66875,5.89375 C7.24375,4.525 10.91875,3.38125 12.86875,3.56875 C12.68125,2.81875 12.3625,3.08125 11.78125,2.7625 C12.625,2.78125 13.50625,2.81875 14.35,2.6875 C14.5375,2.6875 15.3625,4.075 16.15,3.90625 L17.06875,3.2875 C17.65,3.2875 18.2125,3.45625 18.79375,3.56875 C18.775,4.46875 17.8,4.54375 17.29375,5.33125 L17.29375,5.55625 L18.90625,6.6625 C19.80625,6.26875 19.54375,7.525 19.675,7.69375 C20.25625,8.33125 20.8,6.64375 20.93125,6.25 L20.25625,5.1625 L21.5125,5.44375 L22.35625,6.3625 C22.6375,6.38125 22.99375,6.3625 23.2375,6.2125 C23.48125,6.79375 24.025,7.35625 24.56875,7.65625 C24.7375,8.8 26.25625,9.56875 24.45625,9.23125 L24.41875,8.5 L22.95625,8.5 C23.40625,8.575 23.66875,10 23.875,10.375 L22.54375,10.375 C22.675,11.18125 21.08125,11.18125 20.96875,11.875 C20.96875,12.7375 20.48125,12.2125 19.9375,12.75625 L20.2,14.125 L17.65,12.94375 C15.9625,13.39375 16.1125,14.40625 16.91875,15.7 L17.4625,15.38125 C17.425,15.325 17.8375,15.00625 17.875,15.30625 L17.875,16.375 L19.75,16.73125 L19.75,17.875 L20.74375,18.2125 L19.375,17.9875 C18.71875,16.24375 14.275,16.50625 14.575,14.96875 C14.275,14.65 12.45625,12.5875 12.1,12.75625 C8.875,10.975 12.56875,8.03125 8.8375,6.625 L6.325,6.625 L6.25,6.85 L6.04375,7.28125 L6.04375,7.28125 Z M23.2,26.66875 C23.2,26.8 23.2,27.2875 23.03125,27.38125 C22.75,27.5125 22.39375,27.2875 22.1125,27.45625 C21.94375,27.56875 21.86875,27.75625 21.7375,27.90625 C21.34375,28.35625 20.9125,28.75 20.51875,29.2 C20.4625,29.275 20.40625,29.40625 20.425,29.51875 C20.425,29.51875 20.48125,29.6125 20.44375,29.6125 C20.14375,29.6875 19.75,29.21875 19.7125,28.9375 C19.65625,28.58125 19.975,28.35625 20.0875,28.0375 C20.40625,27.1375 20.8375,25.43125 20.6875,24.475 C20.4625,23.10625 19.35625,23.875 19.15,22.225 C19.09375,21.90625 19.0375,21.5125 19.1875,21.19375 C19.3375,20.875 19.69375,20.74375 19.825,20.425 C20.125,19.73125 19.43125,18.79375 20.575,18.68125 L20.6875,18.6625 L20.78125,18.6625 L20.8375,18.6625 L20.9125,18.6625 L21.0625,18.625 C21.2125,18.56875 21.2875,18.55 21.4375,18.55 C21.60625,18.55 21.775,18.60625 21.94375,18.625 C22.3375,18.68125 22.73125,18.625 23.06875,18.85 C23.725,19.24375 24.41875,19.6375 25,20.18125 L24.6625,20.725 C24.7,20.65 24.775,20.63125 24.86875,20.65 C25.6,20.725 26.8375,20.81875 27.325,21.55 C27.5125,22.28125 26.0875,23.0875 26.05,23.96875 C26.05,24.08125 26.18125,24.25 26.06875,24.34375 C25.7875,24.56875 25.375,24.56875 25.09375,24.79375 C24.38125,25.375 24.23125,26.5375 23.2,26.66875 L23.2,26.66875 Z" id="Shape" stroke="#FFFFFF" stroke-width="0.3" fill="#FFFFFF"></path>
    </g>
</svg>