
<svg width="37px" height="37px" viewBox="0 0 37 37" version="1.1" xmlns="http://www.w3.org/2000/svg" xmlns:xlink="http://www.w3.org/1999/xlink">
    <!-- Generator: Sketch 43.1 (39012) - http://www.bohemiancoding.com/sketch -->
    <desc>Created with Sketch.</desc>
    <defs></defs>
    <g id="Page-1" stroke="none" stroke-width="1" fill="none" fill-rule="evenodd">
        <g id="Group-3" transform="translate(1.000000, 1.000000)">
            <g id="arrival" transform="translate(17.500000, 17.500000) scale(1, -1) translate(-17.500000, -17.500000) " stroke="#000000">
                <circle id="Oval" cx="17.5" cy="17.5" r="17.5"></circle>
            </g>
            <g id="Group-2" transform="translate(5.000000, 11.000000)" fill-rule="nonzero" fill="#000000">
                <g id="transfer">
                    <g id="Group" transform="translate(4.722851, 7.070136)">
                        <path d="M12.4809106,2.90511878 L4.39903846,2.90511878 C4.20390272,2.90511878 4.04553167,2.74674774 4.04553167,2.55161199 C4.04553167,2.35647624 4.20390272,2.1981052 4.39903846,2.1981052 L12.4809106,2.1981052 C12.6760464,2.1981052 12.8344174,2.35647624 12.8344174,2.55161199 C12.8344174,2.74674774 12.6760464,2.90511878 12.4809106,2.90511878 Z" id="Shape"></path>
                        <path d="M2.47666855,4.82819572 C1.22101244,4.82819572 0.199377827,3.8072681 0.199377827,2.55090497 C0.199377827,1.29454186 1.22030542,0.273614253 2.47666855,0.273614253 C3.73161765,0.273614253 4.75325226,1.29454186 4.75325226,2.55090497 C4.75325226,3.8072681 3.73161765,4.82819572 2.47666855,4.82819572 Z M2.47666855,0.981334844 C1.61057692,0.981334844 0.906391406,1.68552036 0.906391406,2.55161199 C0.906391406,3.41770362 1.61057692,4.12188914 2.47666855,4.12188914 C3.34205317,4.12188914 4.04623869,3.41770362 4.04623869,2.55161199 C4.04623869,1.68552036 3.34134616,0.981334844 2.47666855,0.981334844 Z" id="Shape"></path>
                        <path d="M14.4046946,4.82819572 C13.1490384,4.82819572 12.1274039,3.8072681 12.1274039,2.55090497 C12.1274039,1.29454186 13.1483314,0.273614253 14.4046946,0.273614253 C15.6610577,0.273614253 16.6819853,1.29454186 16.6819853,2.55090497 C16.6819853,3.8072681 15.6603507,4.82819572 14.4046946,4.82819572 Z M14.4046946,0.981334844 C13.5386029,0.981334844 12.8344174,1.68552036 12.8344174,2.55161199 C12.8344174,3.41770362 13.5386029,4.12188914 14.4046946,4.12188914 C15.2707862,4.12188914 15.9749717,3.41770362 15.9749717,2.55161199 C15.9749717,1.68552036 15.2700792,0.981334844 14.4046946,0.981334844 Z" id="Shape"></path>
                    </g>
                    <path d="M17.2065894,9.9752545 L9.12330319,9.9752545 C8.92816738,9.9752545 8.76979638,9.81688344 8.76979638,9.62174775 C8.76979638,9.426612 8.92816738,9.26824094 9.12330319,9.26824094 L17.2065894,9.26824094 C17.4017251,9.26824094 17.5600961,9.426612 17.5600961,9.62174775 C17.5600961,9.81688344 17.4017251,9.9752545 17.2065894,9.9752545 Z" id="Shape"></path>
                    <path d="M22.7481617,9.9752545 L21.0492081,9.9752545 C20.8540724,9.9752545 20.6957014,9.81688344 20.6957014,9.62174775 C20.6957014,9.426612 20.8540724,9.26824094 21.0492081,9.26824094 L22.7481617,9.26824094 C23.1858032,9.26824094 23.5527432,8.95432694 23.6199095,8.52163462 L23.9967477,6.10859731 C24.0229072,5.93962106 23.9811934,5.77135182 23.8772624,5.63489817 C23.7740384,5.49915159 23.6248586,5.41289591 23.4544683,5.39168553 L18.7450509,4.81759048 C18.6771776,4.80910634 18.6128394,4.78153281 18.5605204,4.73769796 L14.3035916,1.15950226 C14.0229072,0.923359731 13.6658654,0.793269231 13.2982183,0.793269231 L6.63885744,0.793269231 C6.31009612,0.793269231 6.00820134,0.958710406 5.83074096,1.23585973 L3.84049774,4.35025452 C3.79595589,4.42166289 3.72596154,4.4739819 3.64536199,4.49802036 L1.24151584,5.22270928 C0.884473981,5.33017534 0.659643663,5.6886312 0.716911763,6.05769231 L1.05345023,8.21337669 C1.14889706,8.82352944 1.66643099,9.26682694 2.28436086,9.26682694 L5.27432125,9.26682694 C5.46945702,9.26682694 5.62782807,9.425198 5.62782807,9.62033369 C5.62782807,9.8154695 5.46945702,9.9738405 5.27432125,9.9738405 L2.28294683,9.9738405 C1.31433824,9.9738405 0.501979639,9.27955319 0.353506788,8.32225675 L0.0169683258,6.16657241 C-0.094032805,5.45107466 0.343608597,4.75466629 1.03577489,4.54609728 L3.31518666,3.85888009 L5.23543553,0.8540724 C5.54298644,0.374010181 6.06759048,0.08696267 6.63885744,0.08696267 L13.2996324,0.08696267 C13.8327206,0.08696267 14.3509616,0.275735294 14.7589084,0.61863688 L18.9352376,4.12895927 L23.540724,4.69032805 C23.9027149,4.73486991 24.2222851,4.91798644 24.4414592,5.20856899 C24.6613405,5.49844457 24.7511312,5.85690043 24.6952772,6.21747736 L24.3184389,8.63051469 C24.1975396,9.40964362 23.5364819,9.9752545 22.7481617,9.9752545 Z" id="Shape"></path>
                    <path d="M14.9604072,5.09332577 L6.85237556,5.09332577 C6.65723981,5.09332577 6.49886881,4.93495476 6.49886881,4.73981901 C6.49886881,4.54468326 6.65723981,4.38631222 6.85237556,4.38631222 L14.9604072,4.38631222 C15.155543,4.38631222 15.3139141,4.54468326 15.3139141,4.73981901 C15.3139141,4.93495476 15.155543,5.09332577 14.9604072,5.09332577 Z" id="Shape"></path>
                </g>
            </g>
        </g>
    </g>
</svg>