
<svg width="60px" height="91px" viewBox="0 0 60 91" version="1.1" xmlns="http://www.w3.org/2000/svg" xmlns:xlink="http://www.w3.org/1999/xlink">
    <!-- Generator: Sketch 43.1 (39012) - http://www.bohemiancoding.com/sketch -->
    <desc>Created with Sketch.</desc>
    <defs></defs>
    <g id="Page-1" stroke="none" stroke-width="1" fill="none" fill-rule="evenodd">
        <g id="User-Interface-Icons" transform="translate(-444.000000, -411.000000)" stroke-width="4" stroke="#2B4EA2">
            <g transform="translate(244.000000, 186.000000)" id="Group">
                <g>
                    <g transform="translate(202.000000, 227.000000)" id="Shape">
                        <g>
                            <path d="M0.1,27.9 C0.1,43.1 17.5,76.2 27.6,76.2 C37.5,76.2 55.1,43 55.1,27.9 C55.1,12.8 42.8,0.4 27.6,0.4 C12.4,0.4 0.1,12.7 0.1,27.9 L0.1,27.9 Z"></path>
                            <path d="M39.7,25.2 C40.7,33.2 34,39.8 26.1,38.8 C20.7,38.1 16.3,33.7 15.6,28.3 C14.6,20.3 21.3,13.7 29.2,14.7 C34.6,15.5 39,19.8 39.7,25.2 L39.7,25.2 Z"></path>
                        </g>
                        <path d="M55.1,75.3 C55.1,81.5 42.8,86.5 27.6,86.5 C12.4,86.5 0.1,81.5 0.1,75.3 C0.1,71.4 5.1,67.9 12.6,65.9"></path>
                    </g>
                </g>
            </g>
        </g>
    </g>
</svg>