
<svg width="20px" height="20px" viewBox="0 0 20 20" version="1.1" xmlns="http://www.w3.org/2000/svg" xmlns:xlink="http://www.w3.org/1999/xlink">
    <!-- Generator: Sketch 43.1 (39012) - http://www.bohemiancoding.com/sketch -->
    <desc>Created with Sketch.</desc>
    <defs></defs>
    <g id="Page-1" stroke="#ffffff" stroke-width="1" fill="none" fill-rule="evenodd">
        <g id="star" fill-rule="nonzero" fill="#5096B1">
            <path d="M4.03107143,19.8325926 C3.95714286,19.8325926 3.88321429,19.8088889 3.82107143,19.7618519 C3.71107143,19.6788889 3.65607143,19.5385185 3.67928571,19.3996296 L4.78321429,12.7262963 L0.107857143,8.00074074 C0.0107142857,7.90222222 -0.0242857143,7.75518519 0.0175,7.62148148 C0.0596428571,7.48740741 0.171428571,7.38962963 0.306071429,7.36925926 L6.76678571,6.39555556 L9.65642857,0.324074074 C9.71642857,0.197407407 9.84071429,0.117407407 9.97642857,0.117407407 L9.97642857,0.117407407 C10.1125,0.117407407 10.2367857,0.197407407 10.2964286,0.324074074 L13.1857143,6.39555556 L19.6467857,7.36925926 C19.7814286,7.38962963 19.8928571,7.48703704 19.9353571,7.62148148 C19.9771429,7.75518519 19.9425,7.90259259 19.845,8.00074074 L15.1696429,12.727037 L16.2732143,19.4 C16.2960714,19.5388889 16.2410714,19.6792593 16.1314286,19.7622222 C16.0214286,19.8459259 15.8753571,19.8566667 15.755,19.7903704 L9.97642857,16.64 L4.19714286,19.7903704 C4.145,19.8185185 4.08785714,19.8325926 4.03107143,19.8325926 Z M1.12464286,7.99407407 L5.41607143,12.3322222 C5.5,12.417037 5.53857143,12.54 5.51857143,12.66 L4.50535714,18.7851852 L9.81035714,15.8933333 C9.91428571,15.8362963 10.0382143,15.8362963 10.1428571,15.8933333 L15.4471429,18.7851852 L14.4342857,12.66 C14.4142857,12.54 14.4528571,12.4174074 14.5367857,12.3322222 L18.8282143,7.99407407 L12.8978571,7.10037037 C12.7814286,7.08296296 12.6810714,7.00703704 12.6289286,6.89777778 L9.97642857,1.32518519 L7.32392857,6.89814815 C7.27178571,7.00740741 7.17142857,7.08333333 7.055,7.10074074 L1.12464286,7.99407407 Z" id="Shape"></path>
        </g>
    </g>
</svg>