
<svg width="512px" height="436px" viewBox="0 0 512 436" version="1.1" xmlns="http://www.w3.org/2000/svg" xmlns:xlink="http://www.w3.org/1999/xlink">
    <!-- Generator: Sketch 43.1 (39012) - http://www.bohemiancoding.com/sketch -->
    <desc>Created with Sketch.</desc>
    <defs></defs>
    <g id="Page-1" stroke="none" stroke-width="1" fill="none" fill-rule="evenodd">
        <g id="wishlistF" fill-rule="nonzero">
            <g id="Group" fill="#FFFFFF">
                <path d="M472.081,43.12 C526.189,98.464 525.164,188.553 469.78,243.936 L293.442,420.262 C283.188,430.516 269.727,435.63 256.252,435.63 C242.791,435.643 229.329,430.516 219.076,420.262 L41.594,242.78 C14.776,215.962 0,180.298 0,142.372 C0,104.446 14.776,68.781 41.594,41.964 C68.424,15.133 104.076,0.37 142.015,0.37 C179.928,0.37 215.592,15.133 242.41,41.964 L256.266,55.82 L270.109,41.964 C296.94,15.133 332.604,0.37 370.53,0.37 C409.06,0.37 445.119,15.554 472.081,43.12 Z M451.179,225.349 C496.427,180.101 497.374,106.602 453.282,61.499 C431.315,39.033 401.921,26.662 370.529,26.662 C339.623,26.662 310.571,38.69 288.709,60.552 L235.048,114.253 C232.485,116.816 229.119,118.105 225.754,118.105 C222.389,118.105 219.023,116.83 216.46,114.266 C211.32,109.126 211.32,100.805 216.46,95.665 L237.691,74.421 L223.822,60.552 C201.96,38.69 172.908,26.662 142.015,26.662 C111.109,26.662 82.044,38.69 60.182,60.552 C38.334,82.414 26.292,111.466 26.292,142.372 C26.292,173.278 38.334,202.33 60.182,224.192 L237.664,401.674 C247.918,411.915 264.6,411.915 274.84,401.674 L451.179,225.349 Z" id="Shape"></path>
                <path d="M466.297,136.404 C466.744,143.647 461.223,149.892 453.979,150.339 C453.703,150.352 453.427,150.365 453.164,150.365 C446.262,150.365 440.478,145.001 440.044,138.021 C439.005,121.05 431.815,105.091 419.812,93.088 C411.293,84.569 400.75,78.391 389.327,75.21 C382.333,73.264 378.245,66.021 380.191,59.027 C382.137,52.033 389.38,47.932 396.374,49.877 C412.162,54.281 426.688,62.786 438.401,74.499 C454.939,91.037 464.851,113.03 466.297,136.404 Z" id="Shape"></path>
            </g>
            <path d="M453.283,61.498 C497.374,106.601 496.428,180.1 451.18,225.348 L274.841,401.674 C264.6,411.915 247.918,411.915 237.665,401.674 L60.182,224.192 C38.334,202.33 26.292,173.278 26.292,142.372 C26.292,111.466 38.334,82.414 60.182,60.552 C82.044,38.69 111.109,26.662 142.015,26.662 C172.908,26.662 201.96,38.69 223.822,60.552 L237.691,74.421 L216.46,95.665 C211.32,100.805 211.32,109.126 216.46,114.266 C219.023,116.829 222.389,118.105 225.754,118.105 C229.119,118.105 232.485,116.817 235.048,114.253 L288.709,60.552 C310.571,38.69 339.623,26.662 370.529,26.662 C401.922,26.662 431.316,39.032 453.283,61.498 Z M453.979,150.338 C461.222,149.891 466.744,143.647 466.297,136.403 C464.851,113.03 454.939,91.037 438.401,74.499 C426.688,62.786 412.162,54.281 396.374,49.877 C389.38,47.931 382.137,52.033 380.191,59.027 C378.245,66.021 382.334,73.264 389.327,75.21 C400.751,78.391 411.294,84.57 419.812,93.088 C431.814,105.09 439.005,121.049 440.044,138.021 C440.478,145.001 446.262,150.365 453.164,150.365 C453.427,150.364 453.703,150.351 453.979,150.338 Z" id="Shape" fill="#DF3B52"></path>
        </g>
    </g>
</svg>