
<svg width="512px" height="436px" viewBox="0 0 512 436" version="1.1" xmlns="http://www.w3.org/2000/svg" xmlns:xlink="http://www.w3.org/1999/xlink">
    <!-- Generator: Sketch 43.1 (39012) - http://www.bohemiancoding.com/sketch -->
    <desc>Created with Sketch.</desc>
    <defs></defs>
    <g id="Page-1" stroke="none" stroke-width="1" fill="none" fill-rule="evenodd">
        <g id="wishlistE" fill-rule="nonzero" fill="#FFFFFF">
            <path d="M472.08,43.12 C445.12,15.548 409.058,0.363 370.534,0.363 C332.604,0.363 296.941,15.136 270.113,41.965 L256.267,55.82 L242.408,41.961 C215.582,15.135 179.926,0.362 142.007,0.362 C104.076,0.362 68.414,15.135 41.59,41.961 C14.77,68.78 0,104.439 0,142.37 C0,180.301 14.77,215.96 41.59,242.779 L219.072,420.26 C229.325,430.511 242.789,435.637 256.256,435.637 C269.72,435.636 283.187,430.511 293.437,420.261 L469.776,243.938 C525.161,188.551 526.195,98.466 472.08,43.12 Z M451.183,225.346 L274.845,401.671 C264.594,411.921 247.914,411.921 237.664,401.67 L60.181,224.186 C38.327,202.333 26.292,173.277 26.292,142.369 C26.292,111.461 38.327,82.405 60.181,60.551 C82.039,38.692 111.099,26.654 142.007,26.654 C172.903,26.654 201.957,38.692 223.816,60.551 L237.682,74.417 L216.449,95.666 C211.317,100.802 211.321,109.125 216.456,114.257 C219.023,116.822 222.385,118.104 225.748,118.104 C229.115,118.104 232.48,116.818 235.047,114.25 L288.705,60.55 C310.564,38.691 339.623,26.653 370.531,26.653 C401.92,26.653 431.306,39.029 453.278,61.5 C497.374,106.597 496.433,180.097 451.183,225.346 Z" id="Shape"></path>
            <path d="M466.29,136.403 C464.845,113.023 454.94,91.037 438.399,74.494 C426.687,62.782 412.154,54.272 396.373,49.879 C389.378,47.933 382.131,52.026 380.185,59.021 C378.239,66.015 382.332,73.263 389.327,75.209 C400.754,78.388 411.294,84.569 419.809,93.084 C431.813,105.088 439.001,121.047 440.05,138.022 C440.481,144.993 446.268,150.358 453.159,150.358 C453.431,150.358 453.706,150.35 453.982,150.332 C461.228,149.887 466.738,143.65 466.29,136.403 Z" id="Shape"></path>
        </g>
    </g>
</svg>